<?xml version="1.0" encoding="utf-8"?>
<!-- Generator: Adobe Illustrator 24.1.0, SVG Export Plug-In . SVG Version: 6.00 Build 0)  -->
<svg version="1.1" id="Layer_1" xmlns="http://www.w3.org/2000/svg" xmlns:xlink="http://www.w3.org/1999/xlink" x="0px" y="0px"
	 viewBox="0 0 216 216" style="enable-background:new 0 0 216 216;" xml:space="preserve">
<style type="text/css">
	.st0{fill:#FFFFFF;}
</style>
<path class="st0" d="M112.86,84.88h43.66V41.22h-43.66V84.88z M126.08,76.53c-1.98,0-3.64-1.67-3.64-3.64
	c0-1.98,1.67-3.64,3.64-3.64c1.98,0,3.64,1.67,3.64,3.64S128.06,76.53,126.08,76.53 M126.08,58.5c-1.98,0-3.64-1.67-3.64-3.64
	s1.67-3.64,3.64-3.64c1.98,0,3.64,1.67,3.64,3.64C129.72,56.9,128.06,58.5,126.08,58.5 M144.6,76.53c-1.98,0-3.64-1.67-3.64-3.64
	c0-1.98,1.67-3.64,3.64-3.64s3.64,1.67,3.64,3.64C148.18,74.86,146.58,76.53,144.6,76.53 M144.6,58.5c-1.98,0-3.64-1.67-3.64-3.64
	s1.67-3.64,3.64-3.64s3.64,1.67,3.64,3.64C148.24,56.84,146.58,58.5,144.6,58.5"/>
<path class="st0" d="M112.86,94.96h43.66v43.66h-43.66V94.96z M139.73,106.71v8.4h-8.4v-8.4h-5.03v21.83h5.03v-8.4h8.4v8.4h5.04
	v-21.83H139.73z"/>
<polygon class="st0" points="102.79,118.23 78.49,94.96 61.61,94.96 102.79,134.47 "/>
<polygon class="st0" points="102.79,94.96 86.23,94.96 102.79,111.01 "/>
<polygon class="st0" points="58.97,138.62 75.85,138.62 58.97,122.62 "/>
<polygon class="st0" points="58.97,115.22 83.65,138.62 99.34,138.62 58.97,100.16 "/>
<path class="st0" d="M59.13,41.22v43.66h43.66V41.22H59.13z M81.11,73.58c0,0-3.64,0.49-7.41-3.15l2.47-3.27
	c-0.18,0.18,2.16,1.67,2.28,1.67c1.3,0.68,3.15,0.8,4.32-0.31c1.17-1.17,0.31-2.78-0.99-3.27c-1.48-0.68-3.15-0.8-4.63-1.79
	c-0.68-0.49-1.48-1.17-1.98-1.79c-1.48-2.28-0.68-5.62,1.3-7.41c2.77-2.65,8.07-2.16,10.91,0.48c0.01-0.01,0.02-0.01,0.02,0.01
	c-0.01,0-0.01-0.01-0.02-0.01c-0.21,0.13-2.2,3.16-2.2,3.16c0.31-0.31-2.16-1.17-2.28-1.3c-1.17-0.31-2.65-0.18-3.27,0.99
	c-1.17,2.47,3.64,3.15,4.82,3.83c1.3,0.68,2.65,1.48,3.27,2.96c0.49,0.99,0.49,1.79,0.49,2.78C88.22,67.16,87.91,73.27,81.11,73.58z
	"/>
</svg>
