<?xml version="1.0" encoding="utf-8"?>
<!-- Generator: Adobe Illustrator 24.1.0, SVG Export Plug-In . SVG Version: 6.00 Build 0)  -->
<svg version="1.1" id="Layer_1" xmlns="http://www.w3.org/2000/svg" xmlns:xlink="http://www.w3.org/1999/xlink" x="0px" y="0px"
	 viewBox="0 0 216 216" style="enable-background:new 0 0 216 216;" xml:space="preserve">
<style type="text/css">
	.st0{fill:#FFFFFF;}
</style>
<g>
	<path class="st0" d="M118.48,97.67h89.48V8.19h-89.48V97.67z M145.58,80.56c-4.06,0-7.46-3.42-7.46-7.46
		c0-4.06,3.42-7.46,7.46-7.46c4.06,0,7.46,3.42,7.46,7.46S149.64,80.56,145.58,80.56 M145.58,43.6c-4.06,0-7.46-3.42-7.46-7.46
		s3.42-7.46,7.46-7.46c4.06,0,7.46,3.42,7.46,7.46C153.04,40.33,149.64,43.6,145.58,43.6 M183.53,80.56c-4.06,0-7.46-3.42-7.46-7.46
		c0-4.06,3.42-7.46,7.46-7.46c4.04,0,7.46,3.42,7.46,7.46C190.87,77.13,187.59,80.56,183.53,80.56 M183.53,43.6
		c-4.06,0-7.46-3.42-7.46-7.46s3.42-7.46,7.46-7.46c4.04,0,7.46,3.42,7.46,7.46C191,40.2,187.59,43.6,183.53,43.6"/>
	<path class="st0" d="M118.48,118.33h89.48v89.48h-89.48V118.33z M173.55,142.41v17.22h-17.22v-17.22h-10.31v44.74h10.31v-17.22
		h17.22v17.22h10.33v-44.74H173.55z"/>
	<polygon class="st0" points="97.84,166.02 48.04,118.33 13.45,118.33 97.84,199.31 	"/>
	<polygon class="st0" points="97.84,118.33 63.9,118.33 97.84,151.22 	"/>
	<polygon class="st0" points="8.04,207.81 42.63,207.81 8.04,175.02 	"/>
	<polygon class="st0" points="8.04,159.85 58.62,207.81 90.77,207.81 8.04,128.99 	"/>
	<path class="st0" d="M8.36,8.19v89.48h89.48V8.19H8.36z M53.42,74.51c0,0-7.46,1-15.19-6.46l5.06-6.7
		c-0.37,0.37,4.43,3.42,4.67,3.42c2.66,1.39,6.46,1.64,8.85-0.64c2.4-2.4,0.64-5.7-2.03-6.7c-3.03-1.39-6.46-1.64-9.49-3.67
		c-1.39-1-3.03-2.4-4.06-3.67c-3.03-4.67-1.39-11.52,2.66-15.19c5.69-5.42,16.54-4.43,22.37,0.98c0.03-0.02,0.04-0.01,0.03,0.03
		c-0.01-0.01-0.02-0.02-0.03-0.03c-0.42,0.28-4.52,6.48-4.52,6.48c0.64-0.64-4.43-2.4-4.67-2.66c-2.4-0.64-5.43-0.37-6.7,2.03
		c-2.4,5.06,7.46,6.46,9.88,7.85c2.66,1.39,5.43,3.03,6.7,6.07c1,2.03,1,3.67,1,5.7C67.97,61.35,67.34,73.87,53.42,74.51z"/>
</g>
</svg>
