<?xml version="1.0" encoding="utf-8"?>
<!-- Generator: Adobe Illustrator 24.1.0, SVG Export Plug-In . SVG Version: 6.00 Build 0)  -->
<svg version="1.1" id="Layer_1" xmlns="http://www.w3.org/2000/svg" xmlns:xlink="http://www.w3.org/1999/xlink" x="0px" y="0px"
	 viewBox="0 0 216 288" style="enable-background:new 0 0 216 288;" xml:space="preserve">
<style type="text/css">
	.st0{fill:#040404;}
	.st1{fill:#FFFFFF;}
	.st2{fill:none;}
	.st3{fill:#010101;}
</style>
<g>
	<path class="st0" d="M112.86,192.77h43.66v-43.66h-43.66V192.77z M126.08,184.42c-1.98,0-3.64-1.67-3.64-3.64
		c0-1.98,1.67-3.64,3.64-3.64c1.98,0,3.64,1.67,3.64,3.64S128.06,184.42,126.08,184.42 M126.08,166.39c-1.98,0-3.64-1.67-3.64-3.64
		s1.67-3.64,3.64-3.64c1.98,0,3.64,1.67,3.64,3.64C129.72,164.79,128.06,166.39,126.08,166.39 M144.6,184.42
		c-1.98,0-3.64-1.67-3.64-3.64c0-1.98,1.67-3.64,3.64-3.64s3.64,1.67,3.64,3.64C148.18,182.75,146.58,184.42,144.6,184.42
		 M144.6,166.39c-1.98,0-3.64-1.67-3.64-3.64s1.67-3.64,3.64-3.64s3.64,1.67,3.64,3.64C148.24,164.73,146.58,166.39,144.6,166.39"/>
	<rect x="59.13" y="149.11" class="st0" width="43.66" height="43.66"/>
	<rect x="112.86" y="202.85" class="st0" width="43.66" height="43.66"/>
	<path class="st1" d="M86.14,166.58c0.31-0.31-2.16-1.17-2.28-1.3c-1.17-0.31-2.65-0.18-3.27,0.99c-1.17,2.47,3.64,3.15,4.82,3.83
		c1.3,0.68,2.65,1.48,3.27,2.96c0.49,0.99,0.49,1.79,0.49,2.78c0,0-0.31,6.11-7.1,6.42c0,0-3.64,0.49-7.41-3.15l2.47-3.27
		c-0.18,0.18,2.16,1.67,2.28,1.67c1.3,0.68,3.15,0.8,4.32-0.31c1.17-1.17,0.31-2.78-0.99-3.27c-1.48-0.68-3.15-0.8-4.63-1.79
		c-0.68-0.49-1.48-1.17-1.98-1.79c-1.48-2.28-0.68-5.62,1.3-7.41c2.78-2.65,8.09-2.16,10.93,0.49
		C88.42,163.12,86.14,166.58,86.14,166.58"/>
	<polygon class="st1" points="139.73,214.6 139.73,223 131.33,223 131.33,214.6 126.3,214.6 126.3,236.43 131.33,236.43 
		131.33,228.03 139.73,228.03 139.73,236.43 144.77,236.43 144.77,214.6 	"/>
	<polygon class="st0" points="102.79,226.12 78.49,202.85 61.61,202.85 102.79,242.36 	"/>
	<polygon class="st0" points="102.79,202.85 86.23,202.85 102.79,218.9 	"/>
	<polygon class="st0" points="58.97,246.51 75.85,246.51 58.97,230.51 	"/>
	<polygon class="st0" points="58.97,223.11 83.65,246.51 100.34,246.51 58.97,207.05 	"/>
</g>
<rect x="18.75" y="118.88" class="st2" width="178" height="178"/>
<g>
	<path class="st3" d="M28.24,280.01c0,1.1-0.4,1.96-1.2,2.58s-1.89,0.93-3.26,0.93c-1.49,0-2.63-0.19-3.43-0.57v-1.41
		c0.51,0.22,1.07,0.39,1.68,0.51c0.61,0.13,1.21,0.19,1.8,0.19c0.97,0,1.7-0.18,2.19-0.55s0.74-0.88,0.74-1.54
		c0-0.43-0.09-0.79-0.26-1.07s-0.47-0.53-0.87-0.77c-0.41-0.23-1.03-0.5-1.86-0.8c-1.17-0.42-2-0.91-2.5-1.48s-0.75-1.32-0.75-2.24
		c0-0.96,0.36-1.73,1.09-2.3s1.69-0.86,2.88-0.86c1.25,0,2.39,0.23,3.44,0.69l-0.45,1.27c-1.03-0.43-2.04-0.65-3.02-0.65
		c-0.77,0-1.37,0.17-1.81,0.5S22,273.23,22,273.82c0,0.43,0.08,0.79,0.24,1.07s0.43,0.53,0.81,0.76s0.96,0.49,1.74,0.77
		c1.31,0.47,2.22,0.97,2.71,1.51C27.99,278.46,28.24,279.15,28.24,280.01z"/>
	<path class="st3" d="M49.63,283.34h-1.44l-2.53-8.39c-0.12-0.37-0.25-0.84-0.4-1.41s-0.23-0.91-0.23-1.02
		c-0.13,0.75-0.33,1.58-0.6,2.48l-2.45,8.34h-1.44l-3.33-12.53h1.54l1.98,7.74c0.27,1.09,0.47,2.07,0.6,2.95
		c0.15-1.05,0.38-2.07,0.69-3.07l2.25-7.62h1.54l2.36,7.69c0.27,0.88,0.51,1.88,0.69,3c0.11-0.81,0.31-1.8,0.62-2.96l1.97-7.72h1.54
		L49.63,283.34z"/>
	<path class="st3" d="M70.72,283.34l-1.56-3.98h-5.02l-1.54,3.98h-1.47l4.95-12.58h1.23l4.93,12.58H70.72z M68.7,278.05l-1.46-3.88
		c-0.19-0.49-0.38-1.09-0.58-1.81c-0.13,0.55-0.31,1.15-0.54,1.81l-1.47,3.88H68.7z"/>
	<path class="st3" d="M85.7,283.34h-1.46v-11.23h-3.97v-1.29h9.39v1.29h-3.97L85.7,283.34L85.7,283.34z"/>
	<path class="st3" d="M104.81,271.94c-1.38,0-2.46,0.46-3.26,1.38c-0.8,0.92-1.2,2.17-1.2,3.77c0,1.64,0.38,2.91,1.15,3.8
		c0.77,0.89,1.86,1.34,3.29,1.34c0.87,0,1.87-0.16,2.99-0.47v1.28c-0.87,0.33-1.94,0.49-3.21,0.49c-1.85,0-3.27-0.56-4.27-1.68
		s-1.5-2.71-1.5-4.77c0-1.29,0.24-2.42,0.72-3.39s1.18-1.72,2.09-2.25s1.98-0.79,3.22-0.79c1.31,0,2.46,0.24,3.44,0.72l-0.62,1.25
		C106.71,272.16,105.76,271.94,104.81,271.94z"/>
	<path class="st3" d="M127.93,283.34h-1.46v-5.9h-6.6v5.9h-1.46v-12.53h1.46v5.33h6.6v-5.33h1.46V283.34z"/>
	<path class="st3" d="M148.78,283.34h-1.46v-5.9h-6.6v5.9h-1.46v-12.53h1.46v5.33h6.6v-5.33h1.46V283.34z"/>
	<path class="st3" d="M169.57,270.81v8.11c0,1.43-0.43,2.55-1.29,3.37c-0.86,0.82-2.05,1.23-3.56,1.23s-2.67-0.41-3.5-1.23
		s-1.24-1.95-1.24-3.39v-8.07h1.46V279c0,1.04,0.29,1.85,0.86,2.41c0.57,0.56,1.41,0.84,2.52,0.84c1.06,0,1.87-0.28,2.44-0.84
		s0.86-1.37,0.86-2.42v-8.16h1.45V270.81z"/>
	<path class="st3" d="M180.78,270.81h3.54c1.66,0,2.86,0.25,3.61,0.75c0.74,0.5,1.11,1.28,1.11,2.36c0,0.74-0.21,1.36-0.62,1.84
		c-0.42,0.48-1.02,0.8-1.81,0.94v0.09c1.9,0.33,2.85,1.33,2.85,3c0,1.12-0.38,1.99-1.14,2.62s-1.82,0.94-3.17,0.94h-4.37
		L180.78,270.81L180.78,270.81z M182.24,276.18h2.4c1.03,0,1.77-0.16,2.22-0.48s0.68-0.87,0.68-1.63c0-0.7-0.25-1.21-0.75-1.52
		s-1.3-0.47-2.4-0.47h-2.14L182.24,276.18L182.24,276.18z M182.24,277.41v4.69h2.61c1.01,0,1.77-0.2,2.28-0.59
		c0.51-0.39,0.77-1,0.77-1.84c0-0.78-0.26-1.35-0.78-1.71c-0.52-0.37-1.32-0.55-2.39-0.55L182.24,277.41L182.24,277.41z"/>
</g>
</svg>
