<?xml version="1.0" encoding="utf-8"?>
<!-- Generator: Adobe Illustrator 24.1.0, SVG Export Plug-In . SVG Version: 6.00 Build 0)  -->
<svg version="1.1" id="Layer_1" xmlns="http://www.w3.org/2000/svg" xmlns:xlink="http://www.w3.org/1999/xlink" x="0px" y="0px"
	 viewBox="0 0 230 90" style="enable-background:new 0 0 230 90;" xml:space="preserve">
<style type="text/css">
	.st0{fill:#FFFFFF;}
</style>
<g id="_x37_HzSgf.tif">
	<g>
		<path class="st0" d="M70.96,50.42c0-3.73,0-7.33,0-10.94c0.68,0,1.26,0.06,1.81-0.03c0.21-0.03,0.38-0.39,0.56-0.59
			c-0.2-0.16-0.39-0.44-0.6-0.44c-1.83-0.03-3.66-0.03-5.48,0c-0.2,0-0.4,0.29-0.6,0.44c0.18,0.21,0.34,0.54,0.56,0.6
			c0.41,0.1,0.85,0.03,1.28,0.03c0,1.59,0,3.08,0,4.54c-1.87,0-3.66,0-5.48,0c0-1.53,0-3.01,0-4.53c0.43,0,0.8,0.08,1.11-0.02
			c0.3-0.1,0.54-0.38,0.8-0.58c-0.26-0.16-0.51-0.46-0.78-0.46c-1.73-0.04-3.47-0.04-5.2,0c-0.26,0.01-0.52,0.3-0.78,0.46
			c0.26,0.2,0.51,0.53,0.8,0.59c0.54,0.1,1.1,0.03,1.63,0.03c0,3.72,0,7.3,0,10.93c-0.65,0-1.22-0.05-1.77,0.02
			c-0.24,0.03-0.44,0.32-0.66,0.49c0.24,0.18,0.47,0.49,0.73,0.52c0.59,0.05,1.19-0.07,1.79-0.07c1.1,0.01,2.21,0.09,3.31,0.06
			c0.31-0.01,0.62-0.32,0.93-0.49c-0.28-0.18-0.53-0.43-0.83-0.51c-0.32-0.09-0.68-0.02-1.09-0.02c0-1.76,0-3.46,0-5.17
			c1.88,0,3.7,0,5.57,0c0,0.91,0,1.75,0,2.6c0,0.84,0,1.67,0,2.58c-0.48,0-0.87-0.07-1.22,0.02c-0.26,0.07-0.47,0.35-0.7,0.53
			c0.24,0.16,0.49,0.46,0.74,0.47c1.73,0.04,3.46,0.04,5.2,0c0.25-0.01,0.5-0.3,0.74-0.46c-0.23-0.19-0.44-0.5-0.69-0.54
			C72.09,50.36,71.52,50.42,70.96,50.42z M87.71,44.54c0.54-0.3,1.06-0.52,1.5-0.84c1.86-1.34,1.66-3.61-0.42-4.59
			c-0.61-0.29-1.31-0.5-1.99-0.54c-2.17-0.11-4.35-0.15-6.52-0.16c-0.24,0-0.49,0.31-0.74,0.48c0.23,0.2,0.44,0.52,0.7,0.56
			c0.55,0.09,1.12,0.03,1.7,0.03c0,3.68,0,7.29,0,10.93c-0.61,0-1.15-0.07-1.67,0.03c-0.27,0.05-0.49,0.38-0.73,0.59
			c0.26,0.14,0.52,0.4,0.79,0.4c1.89,0.04,3.78,0.04,5.67,0.01c0.25,0,0.5-0.29,0.75-0.44c-0.22-0.19-0.43-0.52-0.67-0.55
			c-0.57-0.08-1.17-0.03-1.8-0.03c0-0.97,0-1.81,0-2.65c0-0.87,0-1.73,0-2.58c3.36-0.26,3.82,0.17,3.98,3.33
			c0.04,0.76,0.22,1.56,0.53,2.25c0.4,0.89,1.35,1.07,2.19,0.92c0.5-0.09,0.96-0.6,1.35-1.01c0.1-0.1-0.13-0.51-0.21-0.78
			c-0.22,0.15-0.46,0.28-0.66,0.45c-0.21,0.18-0.38,0.41-0.56,0.61c-0.18-0.26-0.42-0.51-0.52-0.8c-0.08-0.25-0.02-0.56,0.02-0.84
			C90.77,47.04,89.98,45.4,87.71,44.54z M24.91,39.48c0,3.68,0,7.29,0,10.94c-0.55,0-1.03-0.07-1.48,0.03
			c-0.24,0.05-0.43,0.38-0.64,0.59c0.24,0.14,0.47,0.4,0.71,0.4c1.38,0.04,2.77,0.04,4.15,0c0.24-0.01,0.47-0.27,0.7-0.41
			c-0.21-0.2-0.4-0.54-0.64-0.59c-0.5-0.09-1.04-0.03-1.53-0.03c0-3.17,0-6.2,0-9.43c0.26,0.36,0.38,0.53,0.51,0.71
			c2.18,3.11,4.35,6.22,6.56,9.31c0.22,0.3,0.67,0.43,1.02,0.64c0.12-0.35,0.35-0.71,0.36-1.06c0.03-3.35,0.02-6.71,0.02-10.06
			c0-0.33,0-0.66,0-1.05c0.65,0,1.16,0.06,1.65-0.03c0.23-0.04,0.4-0.37,0.6-0.57c-0.22-0.16-0.43-0.46-0.66-0.47
			c-1.42-0.04-2.83-0.04-4.25,0c-0.22,0.01-0.43,0.32-0.65,0.48c0.2,0.19,0.38,0.51,0.61,0.55c0.48,0.09,0.99,0.03,1.52,0.03
			c0,2.61,0,5.14,0,7.9c-0.37-0.52-0.61-0.84-0.84-1.17c-1.61-2.28-3.2-4.58-4.83-6.84c-0.25-0.35-0.67-0.76-1.05-0.81
			c-1.09-0.15-2.2-0.16-3.3-0.15c-0.22,0-0.44,0.31-0.66,0.47c0.2,0.2,0.38,0.52,0.61,0.56C23.87,39.54,24.38,39.48,24.91,39.48z
			 M103.19,51.8c0.91-0.31,1.89-0.5,2.72-0.95c2.84-1.54,3.96-5.25,2.71-8.65c-1.41-3.82-5.81-5.19-9.15-2.84
			c-2.29,1.61-3.22,5.13-2.16,8.16C98.2,50.09,100.51,51.72,103.19,51.8z M171.59,51.8c0.95-0.3,1.96-0.46,2.83-0.91
			c2.51-1.29,3.68-4.19,3.14-7.44c-0.76-4.59-5.8-6.78-9.52-4.06c-2.09,1.52-2.74,3.76-2.58,6.24
			C165.69,49.07,168.28,51.61,171.59,51.8z M131.27,45.05c0.01,0.19,0,0.53,0.04,0.87c0.32,2.36,1.4,4.23,3.66,5.21
			c2.09,0.9,4.16,0.69,5.99-0.69c2.14-1.62,2.68-3.91,2.48-6.45c-0.31-3.87-3.75-6.44-7.5-5.6C133.19,39,131.29,41.65,131.27,45.05z
			 M217.65,50.42c-0.62,0-1.2-0.06-1.75,0.02c-0.26,0.04-0.48,0.34-0.72,0.52c0.25,0.17,0.5,0.48,0.75,0.48
			c3.12,0.05,6.24,0.05,9.36,0.09c0.58,0.01,0.91-0.17,0.92-0.78c0.02-0.94,0.09-1.88,0.06-2.82c-0.01-0.25-0.3-0.48-0.47-0.72
			c-0.17,0.21-0.42,0.4-0.48,0.64c-0.12,0.42-0.09,0.87-0.18,1.3c-0.13,0.68-0.56,1.19-1.25,1.23c-1.28,0.07-2.56,0.02-3.86,0.02
			c0-1.78,0-3.49,0-5.18c1.76-0.2,1.97-0.05,2.45,1.47c0.05,0.17,0.25,0.29,0.38,0.43c0.12-0.16,0.34-0.31,0.34-0.48
			c0.03-1.31,0.03-2.63,0-3.94c0-0.18-0.24-0.36-0.37-0.55c-0.12,0.16-0.3,0.29-0.35,0.47c-0.42,1.44-0.85,1.7-2.52,1.45
			c0-1.41-0.01-2.84,0.02-4.27c0-0.15,0.25-0.42,0.37-0.41c1.1,0.03,2.21,0.02,3.29,0.21c0.37,0.07,0.72,0.65,0.92,1.07
			c0.18,0.38,0.09,0.87,0.22,1.28c0.08,0.27,0.34,0.48,0.52,0.72c0.14-0.24,0.41-0.47,0.41-0.71c0.01-0.97-0.06-1.94-0.08-2.91
			c-0.01-0.58-0.31-0.71-0.85-0.71c-2.93,0.03-5.87,0.01-8.8,0.04c-0.27,0-0.54,0.28-0.8,0.44c0.26,0.21,0.49,0.55,0.77,0.61
			c0.54,0.1,1.11,0.03,1.7,0.03C217.65,43.18,217.65,46.76,217.65,50.42z M192.68,47.06c0.17,1.89-0.51,3.14-1.83,3.48
			c-1.71,0.44-3.36-0.25-3.97-1.87c-0.93-2.48-0.9-5.03,0.01-7.53c0.41-1.12,1.31-1.72,2.53-1.83c2.35-0.2,3.81,1.01,4.13,3.37
			c0.04,0.26,0.35,0.48,0.54,0.72c0.17-0.23,0.47-0.46,0.48-0.69c0.05-1.22,0.05-2.45,0-3.67c-0.01-0.23-0.3-0.44-0.47-0.66
			c-0.19,0.16-0.4,0.31-0.56,0.5c-0.11,0.12-0.14,0.31-0.24,0.55c-1.29-1.01-2.69-1.38-4.23-1.16c-3,0.43-4.98,2.54-5.34,5.94
			c-0.43,3.95,2.16,7.34,5.95,7.43c3,0.07,4.9-1.31,5.32-3.94c0.03-0.2,0.07-0.4,0.1-0.63c0.51,0,0.96,0.06,1.38-0.03
			c0.18-0.04,0.4-0.35,0.42-0.56c0.02-0.13-0.3-0.42-0.47-0.43c-1.7-0.03-3.4-0.04-5.1,0c-0.19,0-0.37,0.31-0.56,0.48
			c0.17,0.18,0.32,0.48,0.52,0.52C191.72,47.11,192.17,47.06,192.68,47.06z M117.46,39.48c0,3.73,0,7.31,0,10.94
			c-0.62,0-1.16-0.06-1.68,0.02c-0.26,0.04-0.49,0.33-0.73,0.51c0.25,0.17,0.49,0.49,0.75,0.49c1.92,0.04,3.85,0.04,5.77,0
			c0.26-0.01,0.52-0.3,0.77-0.46c-0.23-0.19-0.45-0.5-0.7-0.54c-0.57-0.08-1.17-0.03-1.83-0.03c0-1.22,0-2.31,0-3.4
			c0-0.21,0.04-0.43,0.06-0.67c0.91-0.08,1.79-0.11,2.66-0.24c1.53-0.22,2.88-0.8,3.58-2.28c1.02-2.16-0.22-4.6-2.83-5
			c-2.51-0.39-5.09-0.32-7.64-0.41c-0.19-0.01-0.4,0.3-0.59,0.46c0.2,0.2,0.38,0.55,0.61,0.58
			C116.23,39.53,116.83,39.48,117.46,39.48z M14.38,50.42c-0.48,0-0.82-0.08-1.1,0.02c-0.26,0.09-0.44,0.37-0.66,0.57
			c0.23,0.15,0.45,0.43,0.69,0.43c1.54,0.04,3.09,0.04,4.63-0.01c0.25-0.01,0.5-0.31,0.74-0.48c-0.24-0.18-0.48-0.36-0.72-0.54
			c-0.02-0.01-0.06-0.01-0.09,0c-0.91,0.22-1.24-0.29-1.55-1.05c-1.42-3.44-2.89-6.86-4.36-10.28c-0.14-0.32-0.42-0.57-0.64-0.86
			c-0.25,0.28-0.59,0.53-0.74,0.86c-1.47,3.29-2.92,6.58-4.34,9.89c-0.38,0.88-0.64,1.79-1.95,1.48c-0.14-0.03-0.38,0.35-0.57,0.54
			c0.22,0.16,0.44,0.46,0.66,0.47c1.19,0.05,2.39,0.04,3.58-0.01c0.24-0.01,0.47-0.27,0.7-0.42c-0.21-0.21-0.39-0.52-0.64-0.59
			c-0.36-0.1-0.78-0.03-1.27-0.03c0.36-0.85,0.62-1.59,0.99-2.27c0.12-0.23,0.52-0.43,0.8-0.44c1.36-0.04,2.72-0.05,4.07,0
			c0.29,0.01,0.68,0.28,0.82,0.54C13.8,48.9,14.04,49.61,14.38,50.42z M48.3,39.43c0.23-0.02,0.36-0.05,0.48-0.05
			c2.17,0.05,3.19,0.09,3.16,2.6c0,0.24,0.36,0.48,0.55,0.72c0.16-0.29,0.44-0.57,0.45-0.86c0.01-0.91-0.11-1.81-0.12-2.72
			c-0.01-0.58-0.24-0.75-0.81-0.75c-3.25,0.02-6.5,0.03-9.75,0c-0.63-0.01-0.85,0.22-0.83,0.82c0.02,0.72-0.04,1.44-0.02,2.16
			c0.01,0.47-0.43,1.25,0.39,1.3c0.79,0.05,0.52-0.77,0.57-1.25c0.08-0.78,0.21-1.58,1.07-1.8c0.8-0.2,1.65-0.18,2.48-0.26
			c0,3.8,0,7.42,0,11.08c-0.63,0-1.21-0.06-1.76,0.03c-0.24,0.04-0.43,0.38-0.64,0.59c0.24,0.15,0.47,0.42,0.71,0.42
			c1.92,0.03,3.85,0.03,5.77-0.01c0.25-0.01,0.5-0.3,0.75-0.45c-0.23-0.19-0.43-0.51-0.68-0.55c-0.57-0.08-1.17-0.03-1.76-0.03
			C48.3,46.69,48.3,43.1,48.3,39.43z M154.29,50.43c0-3.7,0-7.29,0-10.94c0.55,0,1.06,0.07,1.54-0.03c0.32-0.07,0.59-0.38,0.88-0.58
			c-0.28-0.16-0.57-0.46-0.85-0.46c-1.86-0.04-3.72-0.04-5.58,0c-0.27,0.01-0.53,0.33-0.8,0.51c0.27,0.18,0.53,0.48,0.83,0.53
			c0.51,0.09,1.05,0.02,1.61,0.02c0,3.68,0,7.27,0,10.93c-0.62,0-1.19-0.06-1.73,0.02c-0.25,0.04-0.47,0.34-0.7,0.53
			c0.24,0.16,0.49,0.46,0.73,0.47c3.18,0.05,6.37,0.05,9.55,0.09c0.63,0.01,0.95-0.18,0.94-0.85c-0.01-0.85,0.08-1.69,0.04-2.54
			c-0.01-0.31-0.27-0.62-0.41-0.93c-0.19,0.3-0.43,0.58-0.54,0.9c-0.13,0.38,0,0.89-0.21,1.17c-0.35,0.45-0.85,1.03-1.35,1.09
			C156.95,50.53,155.65,50.43,154.29,50.43z M204.26,50.42c-0.67,0-1.24-0.06-1.79,0.03c-0.24,0.04-0.44,0.37-0.66,0.57
			c0.23,0.15,0.45,0.44,0.68,0.44c1.95,0.04,3.91,0.04,5.86,0c0.24,0,0.47-0.29,0.7-0.45c-0.22-0.2-0.43-0.52-0.67-0.56
			c-0.57-0.08-1.17-0.03-1.74-0.03c0-3.72,0-7.31,0-10.94c0.6,0,1.14,0.07,1.66-0.03c0.28-0.05,0.5-0.4,0.75-0.61
			c-0.27-0.15-0.53-0.43-0.8-0.43c-1.89-0.04-3.78-0.04-5.67,0c-0.26,0.01-0.51,0.3-0.76,0.46c0.26,0.2,0.49,0.53,0.77,0.58
			c0.54,0.09,1.1,0.03,1.68,0.03C204.26,43.18,204.26,46.74,204.26,50.42z"/>
		<path d="M70.96,50.42c0.56,0,1.13-0.06,1.68,0.03c0.25,0.04,0.46,0.35,0.69,0.54c-0.25,0.16-0.49,0.45-0.74,0.46
			c-1.73,0.04-3.46,0.04-5.2,0c-0.25-0.01-0.49-0.31-0.74-0.47c0.23-0.19,0.44-0.46,0.7-0.53c0.35-0.09,0.74-0.02,1.22-0.02
			c0-0.91,0-1.74,0-2.58c0-0.84,0-1.69,0-2.6c-1.87,0-3.69,0-5.57,0c0,1.71,0,3.41,0,5.17c0.4,0,0.77-0.07,1.09,0.02
			c0.3,0.08,0.56,0.33,0.83,0.51c-0.31,0.17-0.61,0.48-0.93,0.49c-1.1,0.03-2.21-0.05-3.31-0.06c-0.6,0-1.2,0.12-1.79,0.07
			c-0.26-0.02-0.49-0.33-0.73-0.52c0.22-0.17,0.42-0.46,0.66-0.49c0.55-0.07,1.12-0.02,1.77-0.02c0-3.63,0-7.22,0-10.93
			c-0.53,0-1.1,0.07-1.63-0.03c-0.29-0.05-0.53-0.38-0.8-0.59c0.26-0.16,0.52-0.45,0.78-0.46c1.73-0.04,3.47-0.04,5.2,0
			c0.26,0.01,0.52,0.3,0.78,0.46c-0.27,0.2-0.5,0.49-0.8,0.58c-0.31,0.1-0.68,0.02-1.11,0.02c0,1.53,0,3,0,4.53
			c1.82,0,3.61,0,5.48,0c0-1.47,0-2.95,0-4.54c-0.43,0-0.87,0.07-1.28-0.03c-0.22-0.05-0.38-0.39-0.56-0.6
			c0.2-0.15,0.4-0.44,0.6-0.44c1.83-0.03,3.66-0.03,5.48,0c0.2,0,0.4,0.29,0.6,0.44c-0.19,0.21-0.35,0.56-0.56,0.59
			c-0.55,0.08-1.13,0.03-1.81,0.03C70.96,43.09,70.96,46.69,70.96,50.42z"/>
		<path d="M87.71,44.54c2.27,0.86,3.07,2.5,2.7,4.78c-0.04,0.28-0.1,0.59-0.02,0.84c0.09,0.29,0.34,0.53,0.52,0.8
			c0.19-0.21,0.35-0.43,0.56-0.61c0.2-0.17,0.44-0.3,0.66-0.45c0.08,0.27,0.31,0.68,0.21,0.78c-0.39,0.4-0.85,0.92-1.35,1.01
			c-0.84,0.15-1.79-0.03-2.19-0.92c-0.31-0.69-0.5-1.49-0.53-2.25c-0.16-3.16-0.62-3.59-3.98-3.33c0,0.85,0,1.71,0,2.58
			c0,0.84,0,1.69,0,2.65c0.64,0,1.23-0.06,1.8,0.03c0.25,0.04,0.45,0.36,0.67,0.55c-0.25,0.16-0.5,0.44-0.75,0.44
			c-1.89,0.04-3.78,0.03-5.67-0.01c-0.27-0.01-0.53-0.26-0.79-0.4c0.24-0.2,0.46-0.54,0.73-0.59c0.52-0.09,1.06-0.03,1.67-0.03
			c0-3.64,0-7.25,0-10.93c-0.59,0-1.16,0.06-1.7-0.03c-0.26-0.04-0.47-0.36-0.7-0.56c0.25-0.17,0.49-0.48,0.74-0.48
			c2.18,0.01,4.35,0.05,6.52,0.16c0.67,0.04,1.37,0.25,1.99,0.54c2.08,0.97,2.28,3.24,0.42,4.59
			C88.77,44.02,88.25,44.24,87.71,44.54z M84.34,39.34c0,1.7,0,3.25,0,4.88c1.25-0.13,2.58,0.13,3.38-1.08
			c0.57-0.86,0.62-1.91,0.08-2.77C87.02,39.13,85.62,39.56,84.34,39.34z"/>
		<path d="M24.91,39.48c-0.53,0-1.04,0.06-1.52-0.03c-0.23-0.04-0.41-0.37-0.61-0.56c0.22-0.17,0.44-0.47,0.66-0.47
			c1.1-0.01,2.21,0,3.3,0.15c0.38,0.05,0.8,0.46,1.05,0.81c1.63,2.27,3.23,4.56,4.83,6.84c0.23,0.33,0.46,0.65,0.84,1.17
			c0-2.76,0-5.29,0-7.9c-0.53,0-1.04,0.06-1.52-0.03c-0.23-0.04-0.41-0.36-0.61-0.55c0.22-0.17,0.43-0.48,0.65-0.48
			c1.42-0.04,2.83-0.04,4.25,0c0.22,0.01,0.44,0.31,0.66,0.47c-0.2,0.2-0.37,0.53-0.6,0.57c-0.48,0.09-1,0.03-1.65,0.03
			c0,0.39,0,0.72,0,1.05c0,3.35,0.01,6.71-0.02,10.06c0,0.35-0.23,0.71-0.36,1.06c-0.34-0.21-0.8-0.34-1.02-0.64
			c-2.21-3.09-4.38-6.2-6.56-9.31c-0.12-0.18-0.25-0.35-0.51-0.71c0,3.24,0,6.27,0,9.43c0.49,0,1.02-0.06,1.53,0.03
			c0.24,0.04,0.43,0.38,0.64,0.59c-0.23,0.14-0.46,0.4-0.7,0.41c-1.38,0.04-2.77,0.04-4.15,0c-0.24-0.01-0.48-0.26-0.71-0.4
			c0.21-0.21,0.4-0.54,0.64-0.59c0.45-0.1,0.93-0.03,1.48-0.03C24.91,46.77,24.91,43.16,24.91,39.48z"/>
		<path d="M103.19,51.8c-2.68-0.09-4.98-1.71-5.88-4.27c-1.06-3.03-0.13-6.55,2.16-8.16c3.34-2.35,7.74-0.99,9.15,2.84
			c1.26,3.4,0.14,7.1-2.71,8.65C105.07,51.3,104.1,51.49,103.19,51.8z M106.61,44.96c-0.11-0.95-0.16-1.93-0.33-2.88
			c-0.34-1.87-1.42-2.78-3.22-2.8c-1.83-0.03-3.1,0.81-3.31,2.66c-0.23,1.97-0.23,4-0.01,5.97c0.21,1.89,1.48,2.74,3.37,2.72
			c1.75-0.02,2.85-0.97,3.18-2.85C106.45,46.85,106.5,45.91,106.61,44.96z"/>
		<path d="M171.59,51.8c-3.31-0.19-5.91-2.73-6.13-6.18c-0.16-2.48,0.49-4.71,2.58-6.24c3.72-2.71,8.76-0.53,9.52,4.06
			c0.54,3.25-0.64,6.15-3.14,7.44C173.55,51.34,172.54,51.5,171.59,51.8z M175.24,45.39c-0.13-1.33-0.18-2.27-0.33-3.19
			c-0.28-1.7-1.26-2.72-2.67-2.87c-1.94-0.21-3.17,0.32-3.68,1.89c-0.82,2.5-0.84,5.06,0.04,7.56c0.47,1.35,1.58,1.87,2.98,1.87
			c1.4,0,2.53-0.49,2.96-1.86C174.91,47.56,175.06,46.28,175.24,45.39z"/>
		<path d="M131.27,45.05c0.02-3.4,1.92-6.05,4.67-6.67c3.75-0.84,7.2,1.73,7.5,5.6c0.2,2.54-0.34,4.83-2.48,6.45
			c-1.83,1.38-3.9,1.59-5.99,0.69c-2.26-0.97-3.34-2.85-3.66-5.21C131.27,45.59,131.28,45.24,131.27,45.05z M133.63,45.24
			c0.26,1.1,0.47,2.49,0.92,3.8c0.42,1.2,1.52,1.57,2.75,1.59c1.26,0.02,2.36-0.35,2.88-1.56c0.36-0.85,0.64-1.79,0.67-2.7
			c0.04-1.55-0.01-3.14-0.3-4.66c-0.32-1.72-1.46-2.44-3.21-2.44c-1.7,0.01-2.73,0.72-3.15,2.4
			C133.92,42.73,133.84,43.83,133.63,45.24z"/>
		<path d="M217.65,50.42c0-3.65,0-7.24,0-10.93c-0.59,0-1.16,0.07-1.7-0.03c-0.28-0.05-0.52-0.39-0.77-0.61
			c0.27-0.15,0.53-0.43,0.8-0.44c2.93-0.04,5.87-0.02,8.8-0.04c0.54,0,0.84,0.12,0.85,0.71c0.02,0.97,0.1,1.94,0.08,2.91
			c0,0.24-0.27,0.47-0.41,0.71c-0.18-0.24-0.44-0.45-0.52-0.72c-0.13-0.41-0.04-0.91-0.22-1.28c-0.2-0.42-0.55-1-0.92-1.07
			c-1.07-0.2-2.19-0.19-3.29-0.21c-0.13,0-0.37,0.27-0.37,0.41c-0.03,1.43-0.02,2.86-0.02,4.27c1.68,0.25,2.1-0.02,2.52-1.45
			c0.05-0.18,0.23-0.31,0.35-0.47c0.13,0.18,0.36,0.36,0.37,0.55c0.03,1.31,0.03,2.63,0,3.94c0,0.16-0.22,0.32-0.34,0.48
			c-0.13-0.14-0.32-0.27-0.38-0.43c-0.48-1.53-0.69-1.67-2.45-1.47c0,1.7,0,3.4,0,5.18c1.29,0,2.58,0.05,3.86-0.02
			c0.69-0.04,1.12-0.55,1.25-1.23c0.08-0.43,0.06-0.88,0.18-1.3c0.07-0.24,0.32-0.43,0.48-0.64c0.16,0.24,0.46,0.48,0.47,0.72
			c0.03,0.94-0.04,1.88-0.06,2.82c-0.02,0.61-0.34,0.78-0.92,0.78c-3.12-0.04-6.24-0.04-9.36-0.09c-0.25,0-0.5-0.31-0.75-0.48
			c0.24-0.18,0.46-0.48,0.72-0.52C216.46,50.36,217.03,50.42,217.65,50.42z"/>
		<path d="M192.68,47.06c-0.5,0-0.95,0.06-1.38-0.02c-0.2-0.04-0.35-0.34-0.52-0.52c0.19-0.17,0.37-0.48,0.56-0.48
			c1.7-0.04,3.4-0.03,5.1,0c0.17,0,0.48,0.3,0.47,0.43c-0.03,0.21-0.24,0.53-0.42,0.56c-0.42,0.08-0.87,0.03-1.38,0.03
			c-0.04,0.23-0.07,0.43-0.1,0.63c-0.42,2.64-2.32,4.01-5.32,3.94c-3.79-0.09-6.37-3.48-5.95-7.43c0.37-3.4,2.35-5.51,5.34-5.94
			c1.54-0.22,2.94,0.15,4.23,1.16c0.1-0.24,0.13-0.42,0.24-0.55c0.16-0.19,0.37-0.33,0.56-0.5c0.16,0.22,0.46,0.44,0.47,0.66
			c0.05,1.22,0.05,2.45,0,3.67c-0.01,0.24-0.31,0.46-0.48,0.69c-0.19-0.24-0.51-0.46-0.54-0.72c-0.32-2.36-1.78-3.57-4.13-3.37
			c-1.21,0.11-2.12,0.7-2.53,1.83c-0.92,2.49-0.95,5.04-0.01,7.53c0.61,1.62,2.26,2.31,3.97,1.87
			C192.17,50.2,192.85,48.95,192.68,47.06z"/>
		<path d="M117.46,39.48c-0.63,0-1.23,0.06-1.81-0.03c-0.23-0.03-0.4-0.38-0.61-0.58c0.2-0.16,0.4-0.46,0.59-0.46
			c2.55,0.09,5.13,0.03,7.64,0.41c2.61,0.4,3.85,2.84,2.83,5c-0.7,1.48-2.05,2.06-3.58,2.28c-0.87,0.12-1.75,0.16-2.66,0.24
			c-0.02,0.24-0.06,0.46-0.06,0.67c-0.01,1.09,0,2.19,0,3.4c0.66,0,1.26-0.06,1.83,0.03c0.25,0.04,0.47,0.35,0.7,0.54
			c-0.26,0.16-0.51,0.45-0.77,0.46c-1.92,0.04-3.85,0.04-5.77,0c-0.25-0.01-0.5-0.32-0.75-0.49c0.24-0.18,0.47-0.47,0.73-0.51
			c0.52-0.08,1.06-0.02,1.68-0.02C117.46,46.79,117.46,43.2,117.46,39.48z M119.81,45.42c0.94-0.09,1.76-0.13,2.56-0.24
			c0.87-0.12,1.49-0.64,1.61-1.49c0.12-0.85,0.13-1.74,0.02-2.6c-0.1-0.81-0.71-1.34-1.5-1.51c-0.67-0.15-1.38-0.19-2.07-0.17
			c-0.22,0.01-0.6,0.36-0.6,0.56C119.79,41.71,119.81,43.46,119.81,45.42z"/>
		<path d="M14.38,50.42c-0.34-0.81-0.58-1.52-0.93-2.17c-0.14-0.26-0.53-0.52-0.82-0.54c-1.36-0.06-2.72-0.05-4.07,0
			c-0.28,0.01-0.68,0.21-0.8,0.44c-0.37,0.68-0.63,1.42-0.99,2.27c0.49,0,0.91-0.08,1.27,0.03c0.25,0.07,0.43,0.39,0.64,0.59
			c-0.23,0.15-0.46,0.41-0.7,0.42c-1.19,0.05-2.39,0.05-3.58,0.01c-0.23-0.01-0.44-0.31-0.66-0.47c0.19-0.19,0.43-0.58,0.57-0.54
			c1.3,0.31,1.57-0.6,1.95-1.48c1.43-3.3,2.88-6.6,4.34-9.89c0.15-0.33,0.49-0.57,0.74-0.86c0.22,0.28,0.5,0.54,0.64,0.86
			c1.47,3.42,2.95,6.84,4.36,10.28c0.31,0.76,0.64,1.27,1.55,1.05c0.03-0.01,0.07-0.01,0.09,0c0.24,0.18,0.48,0.36,0.72,0.54
			c-0.25,0.17-0.49,0.47-0.74,0.48c-1.54,0.05-3.09,0.05-4.63,0.01c-0.23-0.01-0.46-0.28-0.69-0.43c0.22-0.2,0.41-0.48,0.66-0.57
			C13.55,50.34,13.89,50.42,14.38,50.42z M12.74,46.56c-0.73-1.74-1.39-3.32-2.12-5.05c-0.77,1.75-1.47,3.36-2.21,5.05
			C9.89,46.56,11.23,46.56,12.74,46.56z"/>
		<path d="M48.3,39.43c0,3.67,0,7.26,0,10.99c0.59,0,1.19-0.06,1.76,0.03c0.25,0.04,0.45,0.36,0.68,0.55
			c-0.25,0.16-0.49,0.45-0.75,0.45c-1.92,0.04-3.85,0.04-5.77,0.01c-0.24,0-0.47-0.27-0.71-0.42c0.21-0.2,0.4-0.55,0.64-0.59
			c0.55-0.09,1.13-0.03,1.76-0.03c0-3.66,0-7.28,0-11.08c-0.83,0.08-1.69,0.06-2.48,0.26c-0.87,0.22-0.99,1.02-1.07,1.8
			c-0.05,0.48,0.22,1.3-0.57,1.25c-0.82-0.05-0.38-0.83-0.39-1.3c-0.02-0.72,0.04-1.44,0.02-2.16c-0.01-0.6,0.2-0.82,0.83-0.82
			c3.25,0.03,6.5,0.02,9.75,0c0.56,0,0.8,0.17,0.81,0.75c0.01,0.91,0.13,1.81,0.12,2.72c0,0.29-0.29,0.58-0.45,0.86
			c-0.19-0.24-0.56-0.48-0.55-0.72c0.03-2.51-0.99-2.55-3.16-2.6C48.66,39.38,48.54,39.41,48.3,39.43z"/>
		<path d="M154.29,50.43c1.36,0,2.66,0.1,3.93-0.05c0.5-0.06,1-0.63,1.35-1.09c0.21-0.28,0.09-0.8,0.21-1.17
			c0.11-0.32,0.35-0.6,0.54-0.9c0.15,0.31,0.4,0.61,0.41,0.93c0.04,0.84-0.05,1.69-0.04,2.54c0.01,0.67-0.31,0.85-0.94,0.85
			c-3.18-0.04-6.37-0.04-9.55-0.09c-0.25,0-0.49-0.3-0.73-0.47c0.23-0.18,0.45-0.49,0.7-0.53c0.55-0.08,1.12-0.02,1.73-0.02
			c0-3.66,0-7.25,0-10.93c-0.56,0-1.1,0.06-1.61-0.02c-0.3-0.05-0.55-0.34-0.83-0.53c0.27-0.18,0.53-0.51,0.8-0.51
			c1.86-0.05,3.72-0.04,5.58,0c0.29,0.01,0.57,0.3,0.85,0.46c-0.29,0.2-0.56,0.51-0.88,0.58c-0.48,0.1-0.99,0.03-1.54,0.03
			C154.29,43.14,154.29,46.73,154.29,50.43z"/>
		<path d="M204.26,50.42c0-3.68,0-7.24,0-10.93c-0.58,0-1.14,0.07-1.68-0.03c-0.28-0.05-0.52-0.38-0.77-0.58
			c0.25-0.16,0.51-0.46,0.76-0.46c1.89-0.04,3.78-0.04,5.67,0c0.27,0.01,0.53,0.28,0.8,0.43c-0.25,0.21-0.47,0.56-0.75,0.61
			c-0.51,0.1-1.06,0.03-1.66,0.03c0,3.63,0,7.22,0,10.94c0.57,0,1.17-0.06,1.74,0.03c0.25,0.04,0.45,0.36,0.67,0.56
			c-0.23,0.16-0.46,0.45-0.7,0.45c-1.95,0.04-3.91,0.04-5.86,0c-0.23,0-0.45-0.29-0.68-0.44c0.22-0.2,0.42-0.53,0.66-0.57
			C203.02,50.36,203.59,50.42,204.26,50.42z"/>
		<path class="st0" d="M84.34,39.34c1.28,0.23,2.68-0.21,3.46,1.04c0.54,0.86,0.49,1.9-0.08,2.77c-0.8,1.2-2.13,0.95-3.38,1.08
			C84.34,42.58,84.34,41.03,84.34,39.34z"/>
		<path class="st0" d="M106.61,44.96c-0.11,0.96-0.16,1.9-0.33,2.82c-0.34,1.88-1.43,2.83-3.18,2.85c-1.89,0.02-3.16-0.83-3.37-2.72
			c-0.22-1.97-0.22-4,0.01-5.97c0.22-1.86,1.48-2.69,3.31-2.66c1.8,0.03,2.88,0.93,3.22,2.8C106.45,43.03,106.5,44,106.61,44.96z"/>
		<path class="st0" d="M175.24,45.39c-0.18,0.89-0.33,2.17-0.71,3.38c-0.43,1.37-1.57,1.86-2.96,1.86c-1.4,0-2.51-0.52-2.98-1.87
			c-0.87-2.5-0.86-5.06-0.04-7.56c0.51-1.56,1.74-2.1,3.68-1.89c1.41,0.15,2.39,1.17,2.67,2.87
			C175.06,43.11,175.1,44.05,175.24,45.39z"/>
		<path class="st0" d="M133.63,45.24c0.21-1.41,0.29-2.51,0.55-3.56c0.43-1.68,1.45-2.39,3.15-2.4c1.75-0.01,2.88,0.72,3.21,2.44
			c0.29,1.52,0.34,3.11,0.3,4.66c-0.02,0.91-0.3,1.86-0.67,2.7c-0.52,1.21-1.62,1.58-2.88,1.56c-1.23-0.02-2.33-0.39-2.75-1.59
			C134.1,47.73,133.89,46.33,133.63,45.24z"/>
		<path class="st0" d="M119.81,45.42c0-1.95-0.02-3.7,0.03-5.45c0.01-0.2,0.39-0.55,0.6-0.56c0.69-0.02,1.39,0.02,2.07,0.17
			c0.79,0.17,1.4,0.7,1.5,1.51c0.1,0.86,0.1,1.75-0.02,2.6c-0.12,0.84-0.74,1.37-1.61,1.49C121.56,45.28,120.75,45.33,119.81,45.42z
			"/>
		<path class="st0" d="M12.74,46.56c-1.52,0-2.85,0-4.33,0c0.74-1.69,1.44-3.3,2.21-5.05C11.35,43.24,12.01,44.82,12.74,46.56z"/>
	</g>
</g>
</svg>
