<?xml version="1.0" encoding="utf-8"?>
<!-- Generator: Adobe Illustrator 24.1.0, SVG Export Plug-In . SVG Version: 6.00 Build 0)  -->
<svg version="1.1" id="Layer_1" xmlns="http://www.w3.org/2000/svg" xmlns:xlink="http://www.w3.org/1999/xlink" x="0px" y="0px"
	 viewBox="0 0 230 90" style="enable-background:new 0 0 230 90;" xml:space="preserve">
<style type="text/css">
	.st0{fill:#231F20;}
	.st1{fill:none;}
	.st2{fill:#FFFFFF;}
	.st3{fill:#FFFFFF;stroke:#231F20;stroke-width:0.5145;stroke-miterlimit:10;}
</style>
<path class="st0" d="M144.73,71.73c4.02,0,7.96,0.15,11.88-0.05c2.74-0.14,5.09-1.32,6.01-4.18c1.04-3.18-0.05-5.54-3.38-7.65
	c0.22-0.15,0.43-0.29,0.64-0.44c1.94-1.36,2.3-3.31,1.9-5.45c-0.4-2.14-1.9-3.49-3.96-3.64c-4.33-0.31-8.69-0.32-13.1-0.45
	C144.73,57.28,144.73,64.43,144.73,71.73z M206.63,45.44c1.53,0,2.97,0,4.53,0c0-4.75,0-9.41,0-14.46c0.49,0.73,0.78,1.12,1.04,1.54
	c2.5,4.02,4.99,8.04,7.51,12.05c0.23,0.37,0.61,0.87,0.95,0.9c1.44,0.1,2.89,0.04,4.33,0.04c0-7.36,0-14.55,0-21.81
	c-1.47,0-2.86,0-4.46,0c0,4.72,0,9.41,0,14.1c-0.49-0.3-0.72-0.64-0.94-0.98c-2.55-4.08-5.1-8.18-7.67-12.25
	c-0.23-0.36-0.61-0.86-0.95-0.88c-1.43-0.1-2.87-0.04-4.35-0.04C206.63,30.99,206.63,38.14,206.63,45.44z M62.15,31.29
	c0.08-0.03,0.16-0.06,0.25-0.09c0.23,0.34,0.47,0.68,0.68,1.03c2.56,4.13,5.11,8.27,7.69,12.39c0.23,0.36,0.63,0.83,0.97,0.86
	c1.4,0.1,2.81,0.04,4.25,0.04c0-7.35,0-14.57,0-21.78c-1.49,0-2.88,0-4.36,0c0,4.81,0,9.52,0,14.57c-0.41-0.61-0.66-0.93-0.87-1.27
	c-2.59-4.16-5.17-8.33-7.79-12.48c-0.24-0.38-0.7-0.85-1.09-0.88c-1.35-0.11-2.71-0.04-4.11-0.04c0,7.36,0,14.58,0,21.8
	c1.51,0,2.91,0,4.37,0C62.15,40.67,62.15,35.98,62.15,31.29z M141.77,71.8c0-7.37,0-14.55,0-21.73c-1.49,0-2.88,0-4.41,0
	c0,4.77,0,9.46,0,14.51c-0.44-0.65-0.68-0.98-0.9-1.33c-2.57-4.12-5.12-8.25-7.72-12.36c-0.24-0.38-0.7-0.83-1.09-0.86
	c-1.35-0.11-2.72-0.04-4.16-0.04c0,7.29,0,14.48,0,21.73c1.49,0,2.91,0,4.51,0c0-4.76,0-9.44,0-14.45c0.43,0.67,0.67,1.02,0.89,1.38
	c2.54,4.09,5.06,8.19,7.63,12.26c0.24,0.38,0.7,0.82,1.1,0.85C138.97,71.86,140.33,71.8,141.77,71.8z M6.41,23.88
	c0,7.11,0,14.3,0,21.54c3.55,0,7.05,0.1,10.54-0.03c3.44-0.13,6.03-1.85,7.45-4.99c1.7-3.74,1.79-7.62,0.17-11.41
	c-1.24-2.9-3.56-4.83-6.73-5.06C14.1,23.68,10.33,23.88,6.41,23.88z M45.59,50.03c0,7.32,0,14.5,0,21.7c1.61,0,3.13,0,4.78,0
	c0-2.82,0-5.57,0-8.42c1.53,0,2.94,0,4.34,0c2.81,0,3.87,0.99,4.12,3.74c0.12,1.31,0.24,2.63,0.48,3.92
	c0.06,0.32,0.55,0.77,0.87,0.79c1.3,0.09,2.62,0.04,3.83,0.04c-0.19-1.42-0.45-2.71-0.52-4.01c-0.13-2.52-0.35-4.95-3.01-6.28
	c2.73-1.78,3.71-4.07,3.03-6.93c-0.59-2.51-2.64-4.41-5.39-4.51C53.99,49.92,49.84,50.03,45.59,50.03z M220.17,56.93
	c1.48-0.33,2.87-0.64,4.49-1c-0.52-1.04-0.86-1.96-1.41-2.74c-2.97-4.19-10.1-5.01-14.25-1.63c-3.99,3.25-4.84,7.59-3.93,12.36
	c1.66,8.68,12.08,10.8,16.38,5.7c0.22,0.75,0.43,1.46,0.61,2.09c1.07,0,2,0,2.91,0c0-3.94,0-7.8,0-11.61c-3.08,0-6.05,0-9.03,0
	c0,1.19,0,2.28,0,3.53c1.62,0,3.17,0,4.8,0c-0.33,2.09-1.09,3.65-3.07,4.37c-3.08,1.12-6.34-0.28-7.45-3.34
	c-0.89-2.44-0.88-4.94-0.01-7.39c0.82-2.33,2.59-3.62,4.87-3.69C217.71,53.5,218.95,54.29,220.17,56.93z M199.6,61.56
	c0.15-0.14,0.22-0.25,0.32-0.3c2.6-1.38,3.07-3.72,2.78-6.33c-0.25-2.27-2.1-4.19-4.63-4.69c-1.41-0.28-2.89-0.23-4.33-0.24
	c-2.98-0.03-5.97-0.01-9.02-0.01c0,7.31,0,14.49,0,21.71c1.58,0,3.08,0,4.72,0c0-2.84,0-5.59,0-8.4c1.71,0,3.29-0.01,4.87,0
	c2.15,0.03,3.29,1.07,3.55,3.22c0.17,1.44,0.28,2.88,0.52,4.3c0.06,0.35,0.48,0.9,0.77,0.92c1.34,0.1,2.69,0.04,3.9,0.04
	c-0.2-1.83-0.42-3.51-0.55-5.2C202.33,64.48,201.8,62.58,199.6,61.56z M193.89,45.96c1.89,0.03,4.13-0.55,6.08-2.02
	c3.54-2.67,5.1-7.94,3.73-12.87c-1.08-3.89-3.43-6.7-7.52-7.57c-4.18-0.89-8.01-0.16-10.9,3.32c-2.07,2.49-2.68,5.43-2.61,8.6
	C182.81,41.56,187.21,45.93,193.89,45.96z M181.88,50.04c-5.46,0-10.8,0-16.18,0c0,7.26,0,14.47,0,21.68c5.53,0,10.95,0,16.38,0
	c0-1.33,0-2.58,0-3.98c-3.92,0-7.75,0-11.64,0c0-1.79,0-3.44,0-5.25c3.5,0,6.94,0,10.4,0c0-1.34,0-2.51,0-3.83
	c-3.52,0-6.95,0-10.4,0c0-1.59,0-3.02,0-4.63c3.84,0,7.62,0,11.43,0C181.88,52.63,181.88,51.41,181.88,50.04z M95.25,27.71
	c0-1.45,0-2.71,0-3.99c-5.41,0-10.74,0-16.14,0c0,7.26,0,14.45,0,21.72c5.5,0,10.95,0,16.38,0c0-1.35,0-2.6,0-3.97
	c-3.93,0-7.76,0-11.62,0c0-1.83,0-3.55,0-5.36c3.51,0,6.92,0,10.41,0c0-1.26,0-2.43,0-3.74c-3.52,0-6.96,0-10.42,0
	c0-1.62,0-3.09,0-4.65C87.69,27.71,91.44,27.71,95.25,27.71z M109.32,67.8c0-1.9,0-3.54,0-5.39c3.55,0,7.02,0,10.49,0
	c0-1.34,0-2.48,0-3.73c-3.54,0-6.99,0-10.47,0c0-1.59,0-3.05,0-4.65c3.84,0,7.58,0,11.37,0c0-1.4,0-2.65,0-3.93
	c-5.43,0-10.79,0-16.17,0c0,7.25,0,14.41,0,21.62c5.51,0,10.96,0,16.44,0c0-1.32,0-2.54,0-3.91C117.09,67.8,113.25,67.8,109.32,67.8
	z M82.79,55.57c-0.14-1.9-0.97-3.28-2.37-4.32c-3.24-2.41-8.97-2.34-12.18,0.12c-3.35,2.58-2.91,7.84,0.89,9.68
	c1.37,0.66,2.89,1.02,4.34,1.5c1.37,0.45,2.78,0.81,4.12,1.35c0.93,0.38,1.63,1.21,1.27,2.23c-0.26,0.76-0.86,1.63-1.54,1.97
	c-3.27,1.63-6.63,0.05-7.58-3.46c-0.74,0.17-1.48,0.33-2.22,0.52c-0.72,0.18-1.44,0.4-2.13,0.59c0.29,2.38,1.45,4.24,3.45,5.22
	c3.66,1.79,7.42,1.88,11.14,0.22c1.89-0.84,3.16-2.34,3.52-4.43c0.65-3.77-1.37-6.57-5.36-7.55c-1.9-0.47-3.8-0.97-5.68-1.52
	c-1.16-0.34-2.04-1.01-1.78-2.39c0.24-1.27,1.18-1.81,2.37-1.99c2.88-0.43,4.23,0.34,5.39,3.14C79.82,56.18,81.23,55.89,82.79,55.57
	z M24.14,50.05c0,5.05-0.08,9.95,0.03,14.86c0.08,3.49,2.09,5.91,5.46,6.89c2.57,0.75,5.16,0.73,7.71-0.06
	c2.74-0.84,4.57-2.61,5.09-5.51c0.16-0.87,0.26-1.77,0.27-2.66c0.03-4.1,0.01-8.19,0.01-12.29c0-0.41-0.05-0.81-0.07-1.22
	c-1.61,0-3.09,0-4.57,0c-0.05,0.19-0.1,0.3-0.1,0.42c0,4.39-0.03,8.79,0.02,13.18c0.03,2.94-1.18,4.38-4.08,4.6
	c-0.51,0.04-1.02,0-1.53-0.07c-2.17-0.26-3.32-1.42-3.36-3.61c-0.08-4.35-0.06-8.7-0.08-13.06c0-0.49,0-0.98,0-1.49
	C27.24,50.05,25.76,50.05,24.14,50.05z M56.05,45.52c-2.38-6.32-4.67-12.41-6.95-18.5c-1.27-3.39-1.26-3.35-4.92-3.41
	c-1.01-0.02-1.39,0.36-1.72,1.23c-2.41,6.5-4.86,12.98-7.3,19.47c-0.13,0.34-0.23,0.7-0.39,1.22c1.34,0,2.52-0.04,3.71,0.01
	c0.76,0.03,1.17-0.19,1.38-0.96c0.28-1.02,0.61-2.05,1.06-3c0.18-0.39,0.73-0.83,1.13-0.85c2.18-0.08,4.36-0.08,6.54,0
	c0.36,0.01,0.88,0.43,1.03,0.79c0.46,1.05,0.74,2.17,1.18,3.23c0.13,0.32,0.53,0.72,0.82,0.74C53.02,45.57,54.42,45.52,56.05,45.52z
	 M162.86,23.68c0.15,0.54,0.24,0.95,0.37,1.35c1.79,5.54,3.58,11.08,5.39,16.62c0.41,1.25,0.52,2.98,1.4,3.59
	c0.94,0.65,2.62,0.19,3.97,0.31c0.98,0.08,1.42-0.27,1.72-1.21c2.03-6.27,4.13-12.51,6.2-18.77c0.2-0.59,0.37-1.19,0.6-1.93
	c-1.4,0-2.64,0.06-3.87-0.02c-0.86-0.05-1.16,0.3-1.39,1.07c-1.33,4.3-2.72,8.59-4.1,12.88c-0.13,0.42-0.31,0.82-0.55,1.48
	c-1.7-5.34-3.3-10.38-4.89-15.37C166.03,23.68,164.54,23.68,162.86,23.68z M20.21,59.12c-0.6,0-1.07,0-1.54,0
	c-2.18,0-4.36,0.03-6.55-0.03c-0.34-0.01-0.96-0.37-0.97-0.6c-0.09-1.43-0.05-2.87-0.05-4.48c3.59,0,7.02,0,10.45,0
	c0-1.43,0-2.68,0-3.91c-5.12,0-10.14,0-15.12,0c0,7.28,0,14.46,0,21.62c1.59,0,3.07,0,4.69,0c0-3,0-5.92,0-8.97
	c3.12,0,6.09,0,9.07,0C20.21,61.51,20.21,60.42,20.21,59.12z M95.57,71.75c0-5.96,0-11.78,0-17.74c2.21,0,4.29,0,6.38,0
	c0-1.4,0-2.66,0-3.92c-5.95,0-11.82,0-17.63,0c0,1.36,0,2.61,0,4.01c2.18,0,4.25,0,6.44,0c0,5.97,0,11.79,0,17.64
	C92.37,71.75,93.86,71.75,95.57,71.75z M28.32,23.68c0,7.32,0,14.53,0,21.77c1.58,0,3.06,0,4.58,0c0-7.3,0-14.51,0-21.77
	C31.35,23.68,29.9,23.68,28.32,23.68z"/>
<path class="st0" d="M144.73,71.73c0-7.3,0-14.45,0-21.86c4.42,0.13,8.77,0.14,13.1,0.45c2.05,0.15,3.56,1.5,3.96,3.64
	c0.4,2.14,0.04,4.09-1.9,5.45c-0.21,0.15-0.42,0.29-0.64,0.44c3.33,2.11,4.41,4.47,3.38,7.65c-0.93,2.86-3.28,4.04-6.01,4.18
	C152.69,71.87,148.75,71.73,144.73,71.73z M149.57,68.2c2.24-0.1,4.41-0.11,6.55-0.33c1.29-0.14,2.04-1.31,2.08-2.69
	c0.03-1.29-0.66-2.6-1.83-2.75c-2.25-0.3-4.53-0.33-6.8-0.48C149.57,64.17,149.57,66.07,149.57,68.2z M149.58,53.58
	c0,1.85,0,3.48,0,5.14c1.92,0,3.75,0.07,5.57-0.03c1.27-0.07,2.06-1.07,2.09-2.32c0.03-1.37-0.58-2.34-1.87-2.48
	C153.48,53.68,151.57,53.68,149.58,53.58z"/>
<path class="st0" d="M206.63,45.44c0-7.3,0-14.46,0-21.79c1.48,0,2.92-0.06,4.35,0.04c0.34,0.02,0.72,0.52,0.95,0.88
	c2.57,4.07,5.12,8.16,7.67,12.25c0.22,0.35,0.45,0.68,0.94,0.98c0-4.69,0-9.38,0-14.1c1.59,0,2.99,0,4.46,0c0,7.26,0,14.45,0,21.81
	c-1.45,0-2.9,0.06-4.33-0.04c-0.34-0.02-0.72-0.53-0.95-0.9c-2.52-4.01-5-8.03-7.51-12.05c-0.26-0.41-0.55-0.81-1.04-1.54
	c0,5.05,0,9.71,0,14.46C209.6,45.44,208.16,45.44,206.63,45.44z"/>
<path class="st0" d="M62.15,31.29c0,4.69,0,9.38,0,14.15c-1.46,0-2.86,0-4.37,0c0-7.22,0-14.44,0-21.8c1.4,0,2.76-0.07,4.11,0.04
	c0.39,0.03,0.84,0.5,1.09,0.88c2.62,4.15,5.2,8.32,7.79,12.48c0.21,0.34,0.45,0.67,0.87,1.27c0-5.05,0-9.76,0-14.57
	c1.48,0,2.87,0,4.36,0c0,7.21,0,14.43,0,21.78c-1.44,0-2.85,0.06-4.25-0.04c-0.35-0.02-0.75-0.5-0.97-0.86
	c-2.58-4.12-5.13-8.26-7.69-12.39c-0.22-0.35-0.45-0.68-0.68-1.03C62.32,31.23,62.24,31.26,62.15,31.29z"/>
<path class="st0" d="M141.77,71.8c-1.43,0-2.8,0.06-4.15-0.04c-0.39-0.03-0.86-0.47-1.1-0.85c-2.56-4.07-5.09-8.17-7.63-12.26
	c-0.22-0.36-0.46-0.71-0.89-1.38c0,5.01,0,9.69,0,14.45c-1.59,0-3.02,0-4.51,0c0-7.25,0-14.43,0-21.73c1.44,0,2.81-0.06,4.16,0.04
	c0.39,0.03,0.85,0.48,1.09,0.86c2.59,4.11,5.15,8.24,7.72,12.36c0.22,0.35,0.46,0.68,0.9,1.33c0-5.05,0-9.74,0-14.51
	c1.53,0,2.92,0,4.41,0C141.77,57.25,141.77,64.43,141.77,71.8z"/>
<path class="st0" d="M6.41,23.88c3.92,0,7.69-0.2,11.43,0.06c3.17,0.22,5.49,2.16,6.73,5.06c1.62,3.78,1.53,7.66-0.17,11.41
	c-1.42,3.14-4.01,4.86-7.45,4.99c-3.49,0.13-6.99,0.03-10.54,0.03C6.41,38.18,6.41,30.99,6.41,23.88z M11.17,41.41
	c5.03,0.54,7.54-0.19,8.81-2.5c1.38-2.52,1.13-7.39-0.67-9.37c-2.27-2.5-5.29-1.73-8.15-1.77C11.17,32.4,11.17,36.87,11.17,41.41z"
	/>
<path class="st0" d="M45.59,50.03c4.24,0,8.39-0.11,12.53,0.04c2.75,0.1,4.8,2,5.39,4.51c0.68,2.86-0.3,5.15-3.03,6.93
	c2.66,1.33,2.88,3.76,3.01,6.28c0.07,1.3,0.33,2.6,0.52,4.01c-1.21,0-2.52,0.05-3.83-0.04c-0.32-0.02-0.81-0.47-0.87-0.79
	c-0.24-1.29-0.36-2.61-0.48-3.92c-0.25-2.75-1.31-3.74-4.12-3.74c-1.4,0-2.81,0-4.34,0c0,2.85,0,5.6,0,8.42c-1.65,0-3.17,0-4.78,0
	C45.59,64.53,45.59,57.35,45.59,50.03z M50.42,53.82c0,2.04,0,3.97,0,5.96c2.03,0,4.02,0.11,6-0.03c1.81-0.12,2.5-1.16,2.46-3.19
	c-0.04-1.65-0.89-2.64-2.57-2.72C54.4,53.75,52.48,53.82,50.42,53.82z"/>
<path class="st0" d="M220.17,56.93c-1.23-2.64-2.46-3.44-5.09-3.35c-2.28,0.07-4.05,1.36-4.87,3.69c-0.86,2.45-0.87,4.95,0.01,7.39
	c1.11,3.05,4.38,4.46,7.45,3.34c1.98-0.72,2.73-2.28,3.07-4.37c-1.63,0-3.18,0-4.8,0c0-1.25,0-2.34,0-3.53c2.98,0,5.95,0,9.03,0
	c0,3.82,0,7.67,0,11.61c-0.91,0-1.83,0-2.91,0c-0.18-0.63-0.39-1.34-0.61-2.09c-4.3,5.1-14.73,2.98-16.38-5.7
	c-0.91-4.77-0.05-9.11,3.93-12.36c4.15-3.38,11.28-2.56,14.25,1.63c0.55,0.78,0.88,1.71,1.41,2.74
	C223.04,56.29,221.65,56.6,220.17,56.93z"/>
<path class="st0" d="M199.6,61.56c2.2,1.02,2.73,2.91,2.9,5.04c0.13,1.69,0.35,3.36,0.55,5.2c-1.22,0-2.56,0.05-3.9-0.04
	c-0.29-0.02-0.71-0.57-0.77-0.92c-0.24-1.42-0.35-2.87-0.52-4.3c-0.25-2.15-1.39-3.19-3.55-3.22c-1.58-0.02-3.16,0-4.87,0
	c0,2.81,0,5.56,0,8.4c-1.64,0-3.14,0-4.72,0c0-7.23,0-14.41,0-21.71c3.05,0,6.04-0.02,9.02,0.01c1.45,0.02,2.93-0.04,4.33,0.24
	c2.53,0.5,4.38,2.42,4.63,4.69c0.29,2.61-0.19,4.95-2.78,6.33C199.82,61.32,199.75,61.42,199.6,61.56z M189.45,59.73
	c2.19,0,4.32,0.09,6.44-0.03c1.25-0.07,2.13-1.34,2.15-2.64c0.02-1.77-0.73-3.06-2.16-3.16c-2.11-0.15-4.25-0.04-6.43-0.04
	C189.45,55.86,189.45,57.8,189.45,59.73z"/>
<path class="st1" d="M198.8,31.19c0.77,2.42,0.79,4.86-0.16,7.25c-0.92,2.31-2.82,3.59-5.25,3.58c-2.46-0.01-4.47-1.35-5.27-3.72
	c-0.4-1.19-0.52-2.47-0.73-3.52c0.2-1.29,0.27-2.37,0.55-3.38c0.73-2.64,2.69-4.15,5.28-4.2C195.98,27.16,197.95,28.52,198.8,31.19z
	 M199.97,43.95c-1.95,1.47-4.19,2.05-6.08,2.02c-6.68-0.03-11.08-4.4-11.22-10.54c-0.07-3.17,0.54-6.11,2.61-8.6
	c2.89-3.48,6.72-4.21,10.9-3.32c4.09,0.87,6.44,3.68,7.52,7.57C205.07,36.01,203.51,41.28,199.97,43.95z M198.8,31.19
	c-0.85-2.67-2.81-4.03-5.57-3.98c-2.6,0.05-4.55,1.55-5.28,4.2c-0.28,1.01-0.35,2.09-0.55,3.38c0.21,1.04,0.33,2.33,0.73,3.52
	c0.8,2.37,2.8,3.71,5.27,3.72c2.42,0.01,4.33-1.27,5.25-3.58C199.58,36.06,199.56,33.61,198.8,31.19z"/>
<path class="st0" d="M181.88,50.04c0,1.36,0,2.59,0,4c-3.81,0-7.59,0-11.43,0c0,1.61,0,3.04,0,4.63c3.45,0,6.89,0,10.4,0
	c0,1.32,0,2.49,0,3.83c-3.47,0-6.91,0-10.4,0c0,1.81,0,3.45,0,5.25c3.89,0,7.72,0,11.64,0c0,1.4,0,2.65,0,3.98
	c-5.43,0-10.85,0-16.38,0c0-7.21,0-14.42,0-21.68C171.09,50.04,176.42,50.04,181.88,50.04z"/>
<path class="st0" d="M95.25,27.71c-3.81,0-7.56,0-11.39,0c0,1.56,0,3.03,0,4.65c3.46,0,6.9,0,10.42,0c0,1.32,0,2.48,0,3.74
	c-3.49,0-6.9,0-10.41,0c0,1.81,0,3.53,0,5.36c3.85,0,7.69,0,11.62,0c0,1.36,0,2.62,0,3.97c-5.43,0-10.88,0-16.38,0
	c0-7.27,0-14.46,0-21.72c5.4,0,10.73,0,16.14,0C95.25,25,95.25,26.26,95.25,27.71z"/>
<path class="st0" d="M109.32,67.8c3.94,0,7.77,0,11.65,0c0,1.37,0,2.6,0,3.91c-5.48,0-10.92,0-16.44,0c0-7.22,0-14.37,0-21.62
	c5.37,0,10.73,0,16.17,0c0,1.28,0,2.54,0,3.93c-3.79,0-7.53,0-11.37,0c0,1.6,0,3.07,0,4.65c3.48,0,6.93,0,10.47,0
	c0,1.25,0,2.39,0,3.73c-3.47,0-6.94,0-10.49,0C109.32,64.26,109.32,65.9,109.32,67.8z"/>
<path class="st0" d="M82.79,55.57c-1.56,0.32-2.97,0.61-4.35,0.89c-1.16-2.8-2.51-3.57-5.39-3.14c-1.19,0.18-2.13,0.72-2.37,1.99
	c-0.26,1.39,0.62,2.06,1.78,2.39c1.88,0.55,3.78,1.05,5.68,1.52c3.98,0.98,6.01,3.77,5.36,7.55c-0.36,2.09-1.63,3.58-3.52,4.43
	c-3.72,1.66-7.48,1.57-11.14-0.22c-2-0.98-3.16-2.84-3.45-5.22c0.69-0.19,1.41-0.41,2.13-0.59c0.74-0.19,1.48-0.35,2.22-0.52
	c0.95,3.52,4.31,5.1,7.58,3.46c0.69-0.34,1.28-1.21,1.54-1.97c0.35-1.02-0.35-1.86-1.27-2.23c-1.34-0.54-2.75-0.9-4.12-1.35
	c-1.45-0.48-2.97-0.84-4.34-1.5c-3.8-1.84-4.25-7.1-0.89-9.68c3.2-2.46,8.94-2.53,12.18-0.12C81.82,52.29,82.65,53.68,82.79,55.57z"
	/>
<path class="st0" d="M24.14,50.05c1.62,0,3.1,0,4.8,0c0,0.51,0,1,0,1.49c0.02,4.35,0.01,8.7,0.08,13.06
	c0.04,2.19,1.19,3.34,3.36,3.61c0.51,0.06,1.02,0.1,1.53,0.07c2.9-0.22,4.11-1.66,4.08-4.6c-0.05-4.39-0.02-8.79-0.02-13.18
	c0-0.12,0.06-0.24,0.1-0.42c1.48,0,2.96,0,4.57,0c0.02,0.4,0.07,0.81,0.07,1.22c0.01,4.1,0.02,8.19-0.01,12.29
	c-0.01,0.89-0.11,1.78-0.27,2.66c-0.52,2.9-2.35,4.67-5.09,5.51c-2.55,0.78-5.14,0.81-7.71,0.06c-3.37-0.99-5.38-3.4-5.46-6.89
	C24.06,60,24.14,55.1,24.14,50.05z"/>
<path class="st0" d="M56.05,45.52c-1.62,0-3.03,0.04-4.42-0.03c-0.29-0.02-0.69-0.42-0.82-0.74c-0.44-1.06-0.71-2.19-1.18-3.23
	c-0.16-0.36-0.67-0.77-1.03-0.79c-2.18-0.07-4.37-0.08-6.54,0c-0.4,0.02-0.95,0.46-1.13,0.85c-0.45,0.96-0.78,1.98-1.06,3
	c-0.21,0.77-0.62,0.99-1.38,0.96c-1.18-0.05-2.37-0.01-3.71-0.01c0.17-0.53,0.26-0.88,0.39-1.22c2.44-6.49,4.89-12.97,7.3-19.47
	c0.32-0.87,0.71-1.25,1.72-1.23c1.81,0.03,2.81-0.26,3.38,0.21c0.72,0.61,0.9,1.48,1.55,3.2C51.38,33.12,53.67,39.2,56.05,45.52z
	 M45.34,28.93c-1,2.85-1.9,5.39-2.84,8.06c1.96,0,3.7,0,5.59,0C47.19,34.32,46.31,31.78,45.34,28.93z"/>
<path class="st0" d="M162.86,23.68c1.67,0,3.16,0,4.84,0c1.59,4.99,3.19,10.03,4.89,15.37c0.25-0.66,0.42-1.06,0.55-1.48
	c1.38-4.29,2.77-8.58,4.1-12.88c0.24-0.77,0.54-1.12,1.39-1.07c1.23,0.08,2.47,0.02,3.87,0.02c-0.23,0.74-0.4,1.34-0.6,1.93
	c-2.07,6.25-4.17,12.5-6.2,18.77c-0.3,0.94-0.75,1.29-1.72,1.21c-1.35-0.12-3.04,0.35-3.97-0.31c-0.88-0.61-0.99-2.34-1.4-3.59
	c-1.81-5.54-3.6-11.08-5.39-16.62C163.1,24.63,163.01,24.22,162.86,23.68z"/>
<path class="st0" d="M20.21,59.12c0,1.29,0,2.39,0,3.63c-2.98,0-5.95,0-9.07,0c0,3.05,0,5.97,0,8.97c-1.62,0-3.1,0-4.69,0
	c0-7.16,0-14.34,0-21.62c4.97,0,9.99,0,15.12,0c0,1.24,0,2.49,0,3.91c-3.43,0-6.87,0-10.45,0c0,1.61-0.04,3.05,0.05,4.48
	c0.01,0.23,0.63,0.6,0.97,0.6c2.18,0.06,4.36,0.03,6.55,0.03C19.15,59.12,19.61,59.12,20.21,59.12z"/>
<path class="st0" d="M95.57,71.75c-1.71,0-3.2,0-4.81,0c0-5.85,0-11.67,0-17.64c-2.19,0-4.26,0-6.44,0c0-1.4,0-2.65,0-4.01
	c5.81,0,11.68,0,17.63,0c0,1.26,0,2.52,0,3.92c-2.09,0-4.17,0-6.38,0C95.57,59.97,95.57,65.79,95.57,71.75z"/>
<path class="st0" d="M28.32,23.68c1.58,0,3.03,0,4.58,0c0,7.25,0,14.47,0,21.77c-1.52,0-3,0-4.58,0
	C28.32,38.21,28.32,31,28.32,23.68z"/>
<path class="st2" d="M149.57,68.2c0-2.13,0-4.03,0-6.26c2.27,0.14,4.56,0.18,6.8,0.48c1.17,0.15,1.86,1.46,1.83,2.75
	c-0.04,1.38-0.79,2.56-2.08,2.69C153.98,68.09,151.81,68.1,149.57,68.2z"/>
<path class="st2" d="M149.58,53.58c1.98,0.1,3.9,0.1,5.79,0.31c1.29,0.14,1.9,1.11,1.87,2.48c-0.03,1.25-0.82,2.25-2.09,2.32
	c-1.82,0.1-3.66,0.03-5.57,0.03C149.58,57.06,149.58,55.43,149.58,53.58z"/>
<path class="st3" d="M11.17,41.41c0-4.55,0-9.01,0-13.64c2.86,0.04,5.88-0.73,8.15,1.77c1.8,1.98,2.05,6.85,0.67,9.37
	C18.72,41.22,16.21,41.95,11.17,41.41z"/>
<path class="st3" d="M50.42,53.82c2.06,0,3.98-0.07,5.89,0.02c1.68,0.08,2.53,1.06,2.57,2.72c0.05,2.02-0.65,3.07-2.46,3.19
	c-1.98,0.14-3.97,0.03-6,0.03C50.42,57.79,50.42,55.85,50.42,53.82z"/>
<path class="st3" d="M189.45,59.73c0-1.94,0-3.88,0-5.87c2.19,0,4.32-0.11,6.43,0.04c1.42,0.1,2.18,1.4,2.16,3.16
	c-0.01,1.3-0.89,2.56-2.15,2.64C193.77,59.82,191.64,59.73,189.45,59.73z"/>
<path class="st3" d="M187.39,34.79c0.2-1.29,0.27-2.37,0.55-3.38c0.73-2.64,2.69-4.15,5.28-4.2c2.76-0.05,4.73,1.31,5.57,3.98
	c0.77,2.42,0.79,4.86-0.16,7.25c-0.92,2.31-2.82,3.59-5.25,3.58c-2.46-0.01-4.47-1.35-5.27-3.72
	C187.72,37.12,187.6,35.83,187.39,34.79z"/>
<path class="st3" d="M45.34,28.93c0.98,2.85,1.85,5.4,2.76,8.06c-1.9,0-3.63,0-5.59,0C43.44,34.31,44.34,31.77,45.34,28.93z"/>
</svg>
