<?xml version="1.0" encoding="utf-8"?>
<!-- Generator: Adobe Illustrator 24.1.0, SVG Export Plug-In . SVG Version: 6.00 Build 0)  -->
<svg version="1.1" id="Layer_1" xmlns="http://www.w3.org/2000/svg" xmlns:xlink="http://www.w3.org/1999/xlink" x="0px" y="0px"
	 viewBox="0 0 230 90" style="enable-background:new 0 0 230 90;" xml:space="preserve">
<style type="text/css">
	.st0{fill:#FFFFFF;}
</style>
<g id="PHG06a.tif">
	<g>
		<path class="st0" d="M190.51,58.77c-0.39-0.66-0.72-1.09-0.92-1.57c-1.83-4.19-3.71-8.37-5.43-12.61
			c-1.71-4.24-3.23-8.55-4.85-12.82c-0.43-1.15,0-1.82,1.09-2.25c0.33-0.13,0.57-0.49,0.86-0.75c-0.36-0.21-0.72-0.61-1.08-0.62
			c-3.03-0.05-6.07-0.06-9.1,0c-0.46,0.01-0.9,0.44-1.35,0.67c0.37,0.27,0.72,0.73,1.12,0.79c2.2,0.34,3.47,1.73,4.35,3.6
			c0.41,0.87,0.83,1.74,1.19,2.63c4.07,10,8.12,20.01,12.19,30.01c0.16,0.39,0.42,0.73,0.63,1.1c0.14,0.01,0.29,0.01,0.43,0.02
			c1.11-2.82,2.19-5.65,3.33-8.46c1.16-2.84,2.37-5.66,3.56-8.48c0.13,0.03,0.27,0.05,0.4,0.08c2.5,5.61,4.7,11.36,7.53,16.88
			c0.49-0.48,0.74-0.9,0.93-1.34c0.74-1.68,1.45-3.36,2.18-5.04c3.95-9.16,7.86-18.33,11.89-27.46c0.52-1.18,1.65-2.09,2.49-3.14
			c0.29-0.36,0.55-0.74,0.82-1.11c-0.43-0.17-0.86-0.47-1.3-0.49c-2.35-0.07-4.69-0.07-7.04-0.07c-0.35,0-0.71,0.16-1.06,0.24
			c0.27,0.57,0.56,0.88,0.91,0.97c3.58,0.98,2.92,2.01,2.13,4.75c-0.08,0.26-0.16,0.52-0.27,0.78c-3.12,7.57-6.25,15.14-9.39,22.7
			c-0.21,0.52-0.55,0.99-0.92,1.64c-0.38-0.54-0.68-0.84-0.84-1.2c-1.82-4.19-3.65-8.39-5.41-12.61c-0.22-0.54-0.28-1.31-0.07-1.84
			c1.67-4.2,3.38-8.39,5.21-12.53c0.29-0.65,1.23-1.01,1.84-1.53c0.35-0.3,0.64-0.66,0.96-0.99c-0.4-0.14-0.8-0.38-1.21-0.39
			c-2.02-0.05-4.05-0.07-6.07-0.03c-0.52,0.01-1.04,0.26-1.56,0.4c0.38,0.33,0.71,0.82,1.16,0.96c1.34,0.43,2.17,1.24,1.69,2.63
			c-1,2.89-2.16,5.72-3.28,8.57c-0.04,0.09-0.22,0.13-0.32,0.18c-0.12-0.05-0.25-0.06-0.27-0.11c-1.13-3.03-2.29-6.06-3.34-9.12
			c-0.33-0.96,0.03-1.77,1.11-2.19c0.34-0.13,0.53-0.62,0.79-0.95c-0.38-0.19-0.76-0.53-1.15-0.53c-2.99-0.05-5.98-0.06-8.96,0.01
			c-0.49,0.01-0.97,0.46-1.46,0.71c0.41,0.3,0.78,0.78,1.23,0.85c2.27,0.4,3.65,1.75,4.45,3.83c1.61,4.18,3.28,8.34,4.86,12.54
			c0.2,0.54,0.22,1.29,0.01,1.83c-1.32,3.36-2.72,6.69-4.11,10.03C190.99,58.14,190.83,58.31,190.51,58.77z M100.87,29.08
			c0,0.13-0.01,0.27-0.01,0.4c0.51,0.22,1,0.5,1.53,0.66c2.68,0.83,3.19,1.4,3.22,4.17c0.11,8.71,0.17,17.42,0.26,26.12
			c0.02,2.22-0.67,3.94-2.98,4.7c-0.35,0.12-0.58,0.57-0.87,0.87c0.39,0.15,0.77,0.42,1.16,0.42c3.26,0,6.52-0.07,9.78-0.1
			c0.87-0.01,1.75,0.06,2.62,0.02c0.21-0.01,0.4-0.27,0.6-0.41c-0.15-0.21-0.26-0.55-0.46-0.61c-0.57-0.17-1.17-0.22-1.75-0.34
			c-2.43-0.48-3.32-1.32-3.78-3.72c-0.16-0.8-0.2-1.64-0.21-2.46c-0.04-2.93-0.05-5.86-0.04-8.79c0-0.87,0.39-1.51,1.38-1.56
			c2.68-0.14,5.17,0.17,6.66,2.83c0.36,0.64,0.76,1.25,1.16,1.87c1.96,3.05,3.89,6.11,5.88,9.13c2.06,3.13,5,4.49,8.73,4.04
			c0.58-0.07,1.11-0.45,1.94-0.8c-0.58-0.35-0.75-0.52-0.96-0.56c-2.48-0.54-4.06-2.28-5.43-4.19c-2.52-3.5-4.96-7.05-7.39-10.61
			c-0.63-0.93-1.14-1.94-1.71-2.91c0.97-0.74,1.85-1.32,2.63-2.02c3.19-2.82,4.56-6.25,3.33-10.46c-1.24-4.24-4.58-5.93-8.56-6.13
			c-5.23-0.26-10.48-0.05-15.72-0.01C101.54,28.67,101.2,28.94,100.87,29.08z M160.52,52.31c0.14-0.03,0.27-0.07,0.41-0.1
			c0.08-0.2,0.22-0.4,0.22-0.6c0-3.07-0.01-6.14-0.06-9.21c0-0.28-0.32-0.55-0.49-0.82c-0.2,0.26-0.5,0.49-0.58,0.78
			c-0.45,1.74-1.63,2.67-3.34,2.79c-2.43,0.18-4.86,0.24-7.3,0.3c-1.77,0.04-2.23-0.27-2.26-1.98c-0.05-3.66,0.06-7.33,0.13-11
			c0.02-1.14,0.68-1.85,1.8-1.85c3.13-0.01,6.26-0.08,9.37,0.18c2.58,0.21,3.33,1.27,3.56,3.86c0.03,0.35,0.3,0.67,0.46,1.01
			c0.24-0.32,0.65-0.63,0.69-0.98c0.2-1.5,0.25-3.01,0.43-4.51c0.19-1.69,0.1-1.83-1.58-1.82c-6.58,0.05-13.16,0.09-19.75,0.13
			c-0.83,0.01-1.67-0.08-2.48,0.02c-0.47,0.06-0.91,0.41-1.37,0.63c0.41,0.26,0.79,0.64,1.24,0.75c2.2,0.52,3.21,1.48,3.35,3.72
			c0.2,3.11,0.32,6.23,0.32,9.35c0.01,6.19-0.04,12.38-0.14,18.57c-0.03,2.1-0.81,2.82-2.95,3.27c-0.38,0.08-0.73,0.25-1.1,0.39
			c-0.02,0.14-0.03,0.29-0.05,0.43c0.5,0.17,1,0.48,1.49,0.47c1.56-0.03,3.12-0.27,4.68-0.26c4.32,0.01,8.65,0.07,12.97,0.17
			c2.23,0.06,4.42-0.03,5.87-1.98c1-1.34,1.79-2.85,2.59-4.34c0.19-0.35,0.01-0.89,0-1.34c-0.39,0.23-0.81,0.43-1.17,0.71
			c-1.25,0.97-2.34,2.36-3.75,2.87c-3.82,1.37-7.87,1.81-11.94,1.68c-1.26-0.04-2.2-0.66-2.24-2.11c-0.11-4.12-0.25-8.23-0.33-12.35
			c-0.02-1.06,0.85-1.2,1.66-1.2c2.39-0.02,4.79-0.06,7.18,0c2.27,0.05,2.93,0.59,3.73,2.75C160.02,51.23,160.28,51.77,160.52,52.31
			z M94.13,31.48c-0.82,0-1.61,0.23-2.14-0.04c-3.34-1.72-6.81-2.96-10.58-3.23c-6.62-0.49-12.24,1.46-16.41,6.82
			c-3.55,4.56-4.47,9.85-4.12,15.43c0.46,7.24,4.89,13.15,11.64,15.16c6.5,1.94,12.89,1.26,19.05-1.6c1.74-0.81,2.97-1.91,3.01-4
			c0.01-0.67,0.36-1.32,0.47-2c0.08-0.49,0.02-1,0.02-1.5c-0.13-0.05-0.25-0.09-0.38-0.14c-0.39,0.53-0.81,1.03-1.16,1.58
			c-5.6,8.82-18.22,9.24-24.41,0.83c-3.27-4.44-4.25-9.5-3.8-14.84c0.65-7.65,4.52-13.43,13.3-14.13c4.41-0.35,8.22,0.92,11.23,4.1
			c1.53,1.61,2.64,3.6,3.98,5.39c0.21,0.28,0.6,0.42,0.9,0.63c0.11-0.32,0.35-0.65,0.32-0.96C94.77,36.51,94.44,34.02,94.13,31.48z
			 M34.59,43.57c-0.09,0-0.18,0-0.28,0c0,3.89,0.12,7.79-0.04,11.67c-0.1,2.49-0.91,4.9-2.65,6.78c-3.55,3.84-9.97,3.25-13.05-1.21
			c-0.88-1.27-1.43-2.76-2.25-4.08c-0.25-0.4-0.91-0.56-1.38-0.83c-0.19,0.46-0.57,0.94-0.52,1.37c0.15,1.27,0.34,2.56,0.76,3.75
			c0.35,0.99,0.85,2.1,1.62,2.75c4.85,4.05,14.52,4.34,18.99-1.92c2.02-2.83,3.04-5.99,3.17-9.35c0.23-6.23,0.18-12.46,0.3-18.7
			c0.05-2.96,0.13-3,2.94-3.91c0.13-0.04,0.29-0.06,0.38-0.15c0.22-0.2,0.6-0.53,0.55-0.65c-0.12-0.28-0.43-0.62-0.71-0.66
			c-0.63-0.09-1.28-0.01-1.93-0.02c-3.17-0.06-6.34-0.18-9.51-0.17c-0.73,0-1.45,0.4-2.18,0.62c0.61,0.36,1.17,0.89,1.83,1.04
			c2.94,0.68,3.94,1.86,3.94,4.85C34.59,37.7,34.59,40.64,34.59,43.57z M49.96,60.14c-1.24,1.34-2.37,2.56-3.58,3.87
			c1.28,1.22,2.42,2.32,3.65,3.49c0.96-1.03,1.95-2.04,2.86-3.11c0.18-0.21,0.18-0.81,0-1.02C51.99,62.29,51.01,61.28,49.96,60.14z"
			/>
		<path d="M190.51,58.77c0.31-0.46,0.48-0.62,0.56-0.82c1.38-3.34,2.79-6.67,4.11-10.03c0.21-0.53,0.19-1.28-0.01-1.83
			c-1.58-4.19-3.24-8.36-4.86-12.54c-0.8-2.08-2.17-3.43-4.45-3.83c-0.45-0.08-0.82-0.56-1.23-0.85c0.49-0.25,0.97-0.7,1.46-0.71
			c2.99-0.07,5.97-0.05,8.96-0.01c0.39,0.01,0.77,0.35,1.15,0.53c-0.26,0.33-0.45,0.82-0.79,0.95c-1.08,0.42-1.44,1.24-1.11,2.19
			c1.05,3.06,2.21,6.08,3.34,9.12c0.02,0.06,0.16,0.07,0.27,0.11c0.1-0.05,0.28-0.09,0.32-0.18c1.11-2.85,2.28-5.68,3.28-8.57
			c0.48-1.39-0.35-2.2-1.69-2.63c-0.44-0.14-0.78-0.63-1.16-0.96c0.52-0.14,1.04-0.39,1.56-0.4c2.02-0.04,4.05-0.02,6.07,0.03
			c0.41,0.01,0.81,0.25,1.21,0.39c-0.32,0.33-0.61,0.69-0.96,0.99c-0.61,0.52-1.55,0.88-1.84,1.53c-1.82,4.14-3.53,8.33-5.21,12.53
			c-0.21,0.53-0.16,1.3,0.07,1.84c1.76,4.22,3.58,8.42,5.41,12.61c0.16,0.36,0.46,0.66,0.84,1.2c0.37-0.66,0.71-1.13,0.92-1.64
			c3.14-7.56,6.26-15.13,9.39-22.7c0.1-0.25,0.19-0.51,0.27-0.78c0.79-2.75,1.45-3.77-2.13-4.75c-0.35-0.1-0.64-0.4-0.91-0.97
			c0.35-0.08,0.71-0.24,1.06-0.24c2.35,0,4.7,0,7.04,0.07c0.44,0.01,0.87,0.32,1.3,0.49c-0.27,0.37-0.53,0.75-0.82,1.11
			c-0.84,1.04-1.97,1.96-2.49,3.14c-4.03,9.12-7.94,18.3-11.89,27.46c-0.72,1.68-1.44,3.36-2.18,5.04
			c-0.19,0.44-0.44,0.86-0.93,1.34c-2.82-5.52-5.03-11.27-7.53-16.88c-0.13-0.03-0.27-0.05-0.4-0.08c-1.19,2.83-2.41,5.64-3.56,8.48
			c-1.14,2.81-2.22,5.64-3.33,8.46c-0.14-0.01-0.29-0.01-0.43-0.02c-0.21-0.37-0.47-0.71-0.63-1.1c-4.07-10-8.12-20.01-12.19-30.01
			c-0.36-0.89-0.78-1.76-1.19-2.63c-0.88-1.88-2.15-3.27-4.35-3.6c-0.41-0.06-0.75-0.52-1.12-0.79c0.45-0.23,0.9-0.66,1.35-0.67
			c3.03-0.06,6.07-0.05,9.1,0c0.36,0.01,0.72,0.4,1.08,0.62c-0.28,0.26-0.53,0.62-0.86,0.75c-1.09,0.43-1.52,1.1-1.09,2.25
			c1.61,4.27,3.14,8.58,4.85,12.82c1.71,4.24,3.6,8.41,5.43,12.61C189.8,57.67,190.12,58.11,190.51,58.77z"/>
		<path d="M100.87,29.08c0.34-0.15,0.67-0.41,1.01-0.42c5.24-0.04,10.49-0.25,15.72,0.01c3.98,0.2,7.32,1.89,8.56,6.13
			c1.23,4.21-0.14,7.64-3.33,10.46c-0.78,0.7-1.67,1.28-2.63,2.02c0.57,0.98,1.08,1.99,1.71,2.91c2.44,3.55,4.87,7.11,7.39,10.61
			c1.37,1.91,2.95,3.65,5.43,4.19c0.2,0.04,0.38,0.22,0.96,0.56c-0.83,0.35-1.37,0.73-1.94,0.8c-3.73,0.45-6.67-0.91-8.73-4.04
			c-1.99-3.02-3.93-6.08-5.88-9.13c-0.4-0.62-0.8-1.23-1.16-1.87c-1.49-2.66-3.98-2.96-6.66-2.83c-0.99,0.05-1.38,0.69-1.38,1.56
			c-0.01,2.93,0.01,5.86,0.04,8.79c0.01,0.82,0.05,1.66,0.21,2.46c0.46,2.4,1.35,3.24,3.78,3.72c0.59,0.12,1.19,0.17,1.75,0.34
			c0.2,0.06,0.31,0.4,0.46,0.61c-0.2,0.14-0.4,0.4-0.6,0.41c-0.87,0.03-1.75-0.03-2.62-0.02c-3.26,0.03-6.52,0.09-9.78,0.1
			c-0.38,0-0.77-0.28-1.16-0.42c0.29-0.3,0.52-0.76,0.87-0.87c2.31-0.77,3-2.48,2.98-4.7c-0.09-8.71-0.14-17.42-0.26-26.12
			c-0.04-2.78-0.55-3.34-3.22-4.17c-0.53-0.16-1.02-0.44-1.53-0.66C100.86,29.35,100.86,29.22,100.87,29.08z M109.8,38.69
			c0,0-0.01,0-0.01,0c0,1.46-0.01,2.93,0,4.39c0.02,3.33,0.04,3.36,3.33,3.52c0.46,0.02,0.92,0.07,1.37,0.09
			c4.02,0.16,7.01-1.76,7.69-5.19c1.23-6.22-2.38-11.31-9.79-11.1c-1.92,0.06-2.58,0.87-2.59,2.8
			C109.79,35.03,109.8,36.86,109.8,38.69z"/>
		<path d="M160.52,52.31c-0.24-0.55-0.5-1.09-0.71-1.65c-0.8-2.16-1.46-2.7-3.73-2.75c-2.39-0.05-4.79-0.02-7.18,0
			c-0.81,0.01-1.68,0.14-1.66,1.2c0.08,4.12,0.21,8.24,0.33,12.35c0.04,1.45,0.98,2.07,2.24,2.11c4.07,0.13,8.11-0.31,11.94-1.68
			c1.41-0.51,2.5-1.9,3.75-2.87c0.36-0.28,0.78-0.47,1.17-0.71c0.01,0.45,0.18,1,0,1.34c-0.79,1.48-1.58,2.99-2.59,4.34
			c-1.45,1.95-3.64,2.04-5.87,1.98c-4.32-0.11-8.65-0.16-12.97-0.17c-1.56,0-3.12,0.23-4.68,0.26c-0.49,0.01-0.99-0.3-1.49-0.47
			c0.02-0.14,0.03-0.29,0.05-0.43c0.37-0.13,0.72-0.31,1.1-0.39c2.15-0.45,2.92-1.17,2.95-3.27c0.1-6.19,0.15-12.38,0.14-18.57
			c-0.01-3.12-0.12-6.24-0.32-9.35c-0.14-2.24-1.15-3.2-3.35-3.72c-0.45-0.11-0.83-0.49-1.24-0.75c0.45-0.22,0.89-0.57,1.37-0.63
			c0.82-0.1,1.65-0.02,2.48-0.02c6.58-0.04,13.16-0.09,19.75-0.13c1.68-0.01,1.78,0.13,1.58,1.82c-0.17,1.5-0.23,3.02-0.43,4.51
			c-0.05,0.35-0.45,0.65-0.69,0.98c-0.16-0.33-0.43-0.66-0.46-1.01c-0.23-2.59-0.98-3.64-3.56-3.86c-3.11-0.26-6.25-0.19-9.37-0.18
			c-1.12,0-1.78,0.71-1.8,1.85c-0.07,3.67-0.18,7.33-0.13,11c0.02,1.71,0.49,2.02,2.26,1.98c2.43-0.06,4.87-0.12,7.3-0.3
			c1.71-0.13,2.89-1.06,3.34-2.79c0.08-0.29,0.38-0.52,0.58-0.78c0.17,0.27,0.48,0.54,0.49,0.82c0.05,3.07,0.06,6.14,0.06,9.21
			c0,0.2-0.14,0.4-0.22,0.6C160.79,52.25,160.66,52.28,160.52,52.31z"/>
		<path d="M94.13,31.48c0.32,2.53,0.64,5.02,0.92,7.52c0.03,0.3-0.21,0.64-0.32,0.96c-0.31-0.21-0.7-0.35-0.9-0.63
			c-1.34-1.79-2.45-3.78-3.98-5.39c-3.01-3.18-6.82-4.45-11.23-4.1c-8.78,0.7-12.65,6.48-13.3,14.13
			c-0.45,5.34,0.52,10.39,3.8,14.84c6.19,8.41,18.81,7.99,24.41-0.83c0.35-0.55,0.77-1.05,1.16-1.58c0.13,0.05,0.25,0.09,0.38,0.14
			c0,0.5,0.06,1.02-0.02,1.5c-0.11,0.67-0.46,1.33-0.47,2c-0.04,2.09-1.28,3.19-3.01,4c-6.16,2.86-12.55,3.54-19.05,1.6
			c-6.75-2.01-11.18-7.92-11.64-15.16c-0.35-5.58,0.57-10.87,4.12-15.43c4.17-5.36,9.79-7.31,16.41-6.82
			c3.77,0.28,7.24,1.51,10.58,3.23C92.52,31.72,93.31,31.48,94.13,31.48z"/>
		<path d="M34.59,43.57c0-2.93,0-5.87,0-8.8c0-2.99-1.01-4.17-3.94-4.85c-0.65-0.15-1.22-0.69-1.83-1.04
			c0.73-0.22,1.45-0.62,2.18-0.62c3.17,0,6.34,0.11,9.51,0.17c0.64,0.01,1.3-0.07,1.93,0.02c0.28,0.04,0.59,0.38,0.71,0.66
			c0.05,0.12-0.34,0.45-0.55,0.65c-0.09,0.09-0.25,0.1-0.38,0.15c-2.81,0.91-2.89,0.94-2.94,3.91c-0.12,6.23-0.07,12.47-0.3,18.7
			c-0.13,3.37-1.15,6.52-3.17,9.35c-4.47,6.26-14.15,5.97-18.99,1.92c-0.78-0.65-1.27-1.76-1.62-2.75c-0.42-1.2-0.61-2.49-0.76-3.75
			c-0.05-0.43,0.33-0.91,0.52-1.37c0.47,0.27,1.13,0.42,1.38,0.83c0.82,1.31,1.37,2.81,2.25,4.08c3.08,4.46,9.5,5.05,13.05,1.21
			c1.74-1.89,2.55-4.29,2.65-6.78C34.43,51.36,34.5,43.57,34.59,43.57z"/>
		<path d="M49.96,60.14c1.05,1.14,2.03,2.15,2.93,3.23c0.17,0.21,0.17,0.81,0,1.02c-0.91,1.07-1.9,2.08-2.86,3.11
			c-1.22-1.17-2.37-2.27-3.65-3.49C47.59,62.7,48.72,61.48,49.96,60.14z"/>
		<path class="st0" d="M109.8,38.69c0-1.83-0.01-3.66,0-5.49c0.01-1.92,0.67-2.74,2.59-2.8c7.41-0.22,11.02,4.88,9.79,11.1
			c-0.68,3.43-3.67,5.35-7.69,5.19c-0.46-0.02-0.92-0.07-1.37-0.09c-3.28-0.16-3.31-0.18-3.33-3.52c-0.01-1.46,0-2.93,0-4.39
			C109.79,38.69,109.79,38.69,109.8,38.69z"/>
	</g>
</g>
</svg>
