<?xml version="1.0" encoding="utf-8"?>
<!-- Generator: Adobe Illustrator 24.1.0, SVG Export Plug-In . SVG Version: 6.00 Build 0)  -->
<svg version="1.1" id="Layer_1" xmlns="http://www.w3.org/2000/svg" xmlns:xlink="http://www.w3.org/1999/xlink" x="0px" y="0px"
	 viewBox="0 0 230 90" style="enable-background:new 0 0 230 90;" xml:space="preserve">
<style type="text/css">
	.st0{fill:#FFFFFF;}
</style>
<g id="tOzFDo.tif">
	<g>
		<path class="st0" d="M93.84,48.07c2.44,4.46,4.67,8.63,7.01,12.73c0.28,0.49,1.13,0.9,1.75,0.93c2,0.12,4,0.04,6.38,0.04
			c-0.46-1.04-0.62-1.63-0.94-2.11c-2.46-3.63-4.33-7.25-0.23-11.01c0.21-0.19,0.26-0.54,0.37-0.83c3.18-7.81-0.18-17.36-7.38-18.84
			c-5.6-1.15-11.54-0.69-17.33-0.94c0,11.63,0,22.57,0,33.58c2.16,0,4.08,0,6.4,0c0-8.57,0-16.99,0-25.58c3.27,0,6.15-0.2,8.98,0.1
			c1.09,0.12,2.48,1.19,2.99,2.19c2.53,4.95-0.21,9.34-5.75,9.52C95.51,47.87,94.93,47.96,93.84,48.07z M144,28.43
			c-1.18-0.07-2.01-0.03-2.8-0.18c-3.4-0.63-5.16,0.75-6.34,3.94c-1.69,4.58-3.95,8.97-6.25,14.06c-2.56-5.68-4.89-10.71-7.06-15.81
			c-0.7-1.64-1.62-2.39-3.46-2.21c-1.49,0.14-3,0.03-5.03,0.03c2.53,5.55,4.85,10.58,7.13,15.63c2.48,5.49,5.75,10.77,4.92,17.18
			c-0.02,0.14,0.23,0.31,0.33,0.43c2.23,0,4.42,0,7.09,0c-1.64-6.12,1.49-10.84,3.72-15.79c1.87-4.15,3.78-8.28,5.66-12.43
			C142.6,31.75,143.24,30.19,144,28.43z M187.22,61.61c0-11.23,0-22.07,0-33.04c-2.35,0-4.46,0-6.74,0c0,11.09,0,22,0,33.04
			C182.82,61.61,184.93,61.61,187.22,61.61z"/>
		<path d="M5.85,27.73c5.48,5.84,10.96,11.69,16.73,17.84c5.83-5.94,11.4-11.61,17.46-17.79c0,11.74,0,22.68,0,33.81
			c-2.26,0-4.38,0-6.85,0c0-5.78,0-11.47,0-17.66c-3.56,3.69-6.69,6.93-10.14,10.5c-3.7-3.83-6.85-7.09-10.01-10.35
			c-0.24,0.09-0.47,0.18-0.71,0.27c0,5.68,0,11.37,0,17.3c-2.64,0-4.88,0-7.11,0c0-10.61-0.01-21.21,0.03-31.82
			C5.26,29.13,5.64,28.43,5.85,27.73z"/>
		<path d="M163.09,27.73c2.9,1.18,5.79,2.36,8.93,3.64c-1.13,1.99-2.01,3.56-3.04,5.38c-1.57-0.69-3-1.45-4.52-1.94
			c-1.54-0.5-3.26-1.21-4.73-0.93c-1.32,0.25-3.14,1.57-3.39,2.7c-0.23,1.09,0.94,3.07,2.07,3.72c2.46,1.41,5.49,1.9,7.89,3.39
			c2.25,1.39,4.73,3.22,5.8,5.46c2.87,5.97-2.15,12.62-9.33,13.08c-5.83,0.38-10.87-1.64-16.03-4.64c0.97-1.77,1.87-3.4,2.89-5.25
			c1.96,0.95,3.63,1.98,5.44,2.56c2.11,0.68,4.34,1.2,6.55,1.36c2.07,0.15,3.86-1.11,3.73-3.17c-0.09-1.39-1.17-3.24-2.38-3.95
			c-2.53-1.49-5.49-2.26-8.19-3.5c-3.25-1.49-5.54-3.83-6-7.5c-0.49-3.95,1.24-7.17,4.82-9.01c0.89-0.46,1.78-0.92,2.66-1.38
			C158.55,27.73,160.82,27.73,163.09,27.73z"/>
		<path d="M62.18,27.73c0.31,0.93,0.51,1.91,0.94,2.79c4.52,9.29,9.08,18.56,13.62,27.84c0.48,0.98,0.89,1.99,1.53,3.42
			c-2.22,0-4.08,0.21-5.85-0.09c-0.87-0.15-1.86-1.11-2.29-1.95c-2.79-5.38-5.45-10.83-8.45-16.86c-1.6,3.15-2.97,5.8-4.31,8.46
			c-0.91,1.81-1.79,3.63-2.69,5.45c-2.7,5.46-2.7,5.46-9.65,4.71c5.56-11.37,11.04-22.57,16.52-33.77
			C61.77,27.73,61.98,27.73,62.18,27.73z"/>
		<path d="M211.37,27.73c0.35,1.02,0.6,2.09,1.07,3.06c4.52,9.27,9.07,18.52,13.61,27.79c0.44,0.89,0.82,1.81,1.44,3.19
			c-2.25,0-4.19,0.22-6.03-0.1c-0.85-0.14-1.77-1.2-2.22-2.07c-2.33-4.49-4.52-9.04-6.77-13.57c-0.43-0.87-0.94-1.7-1.71-3.1
			c-2.46,4.96-4.69,9.45-6.92,13.94c-2.71,5.47-2.71,5.47-9.62,4.59c5.56-11.34,11.04-22.54,16.53-33.74
			C210.96,27.73,211.17,27.73,211.37,27.73z"/>
		<path d="M93.84,48.07c1.09-0.11,1.66-0.2,2.24-0.22c5.54-0.17,8.28-4.57,5.75-9.52c-0.51-1-1.9-2.08-2.99-2.19
			c-2.83-0.31-5.71-0.1-8.98-0.1c0,8.6,0,17.01,0,25.58c-2.33,0-4.25,0-6.4,0c0-11.01,0-21.95,0-33.58
			c5.79,0.25,11.74-0.21,17.33,0.94c7.2,1.48,10.55,11.04,7.38,18.84c-0.11,0.28-0.16,0.64-0.37,0.83
			c-4.09,3.76-2.22,7.38,0.23,11.01c0.32,0.48,0.48,1.06,0.94,2.11c-2.37,0-4.38,0.07-6.38-0.04c-0.61-0.04-1.47-0.44-1.75-0.93
			C98.51,56.69,96.28,52.53,93.84,48.07z"/>
		<path d="M144,28.43c-0.76,1.76-1.4,3.32-2.09,4.85c-1.88,4.15-3.79,8.28-5.66,12.43c-2.23,4.95-5.36,9.67-3.72,15.79
			c-2.68,0-4.87,0-7.09,0c-0.1-0.12-0.35-0.29-0.33-0.43c0.82-6.4-2.44-11.69-4.92-17.18c-2.28-5.05-4.59-10.08-7.13-15.63
			c2.03,0,3.54,0.12,5.03-0.03c1.85-0.18,2.76,0.57,3.46,2.21c2.17,5.09,4.51,10.12,7.06,15.81c2.3-5.09,4.56-9.47,6.25-14.06
			c1.18-3.19,2.94-4.57,6.34-3.94C141.99,28.4,142.82,28.36,144,28.43z"/>
		<path d="M187.22,61.61c-2.29,0-4.4,0-6.74,0c0-11.04,0-21.95,0-33.04c2.28,0,4.39,0,6.74,0
			C187.22,39.54,187.22,50.38,187.22,61.61z"/>
	</g>
</g>
</svg>
