<?xml version="1.0" encoding="utf-8"?>
<!-- Generator: Adobe Illustrator 24.1.0, SVG Export Plug-In . SVG Version: 6.00 Build 0)  -->
<svg version="1.1" id="Layer_1" xmlns="http://www.w3.org/2000/svg" xmlns:xlink="http://www.w3.org/1999/xlink" x="0px" y="0px"
	 viewBox="0 0 230 90" style="enable-background:new 0 0 230 90;" xml:space="preserve">
<style type="text/css">
	.st0{fill:#FFFFFF;}
</style>
<g id="_x38_gcGI5.tif">
	<g>
		<path class="st0" d="M188.4,40.75c0,5.19,0,10.4,0,15.63c4.21,0,8.33,0.12,12.44-0.04c2.88-0.12,4.62-1.71,5.06-4
			c0.36-1.89-0.39-3.31-1.83-4.44c2.15-3.01,1.13-6.75-2.51-7.06C197.24,40.47,192.86,40.75,188.4,40.75z M4.86,40.54
			c0,5.39,0,10.6,0,15.84c1.18,0,2.28,0,3.59,0c0-2.89,0-5.73,0-8.58c0.08,0,0.16-0.01,0.25-0.01c1.65,2.44,3.3,4.89,5.02,7.43
			c1.77-2.63,3.42-5.07,5.07-7.51c0.1,0.04,0.2,0.07,0.29,0.11c0,2.83,0,5.66,0,8.51c1.25,0,2.37,0,3.45,0c0-5.3,0-10.51,0-15.65
			c-2-0.53-3.46-0.1-4.29,1.82c-0.19,0.44-0.53,0.82-0.8,1.23c-1.19,1.78-2.38,3.57-3.66,5.48c-1.83-2.74-3.54-5.33-5.29-7.89
			c-0.23-0.33-0.63-0.7-0.99-0.75C6.67,40.47,5.8,40.54,4.86,40.54z M63.41,50.61c0.8-0.43,1.54-0.73,2.15-1.18
			c1.61-1.18,2.24-3.32,1.63-5.28c-0.6-1.95-2.33-3.32-4.63-3.42c-3.21-0.14-6.42-0.14-9.63-0.19c-0.68-0.01-1.37,0-2.06,0
			c0,5.39,0,10.59,0,15.83c1.21,0,2.35,0,3.61,0c0-1.88,0-3.69,0-5.61c1.4,0,2.67-0.06,3.93,0.03c0.44,0.03,1,0.33,1.27,0.69
			c1.02,1.38,1.94,2.83,2.92,4.24c0.19,0.28,0.5,0.66,0.77,0.67c1.28,0.07,2.56,0.03,4.05,0.03C65.99,54.35,64.72,52.5,63.41,50.61z
			 M226.73,42.58c-4.35-2.66-8.76-3.32-13.39-1.35c-1.77,0.75-2.71,2.2-2.58,4.19c0.12,1.92,1.27,3.11,3.01,3.6
			c1.72,0.49,3.53,0.68,5.3,1c1.25,0.22,2.51,0.38,3.73,0.7c0.37,0.1,0.83,0.65,0.84,1.01c0.01,0.37-0.42,0.8-0.74,1.14
			c-0.18,0.19-0.51,0.27-0.79,0.32c-2.63,0.54-5.23,0.55-7.72-0.58c-1.03-0.47-1.97-1.11-3.01-1.7c-0.68,0.92-1.32,1.79-2.06,2.78
			c0.97,0.61,1.8,1.21,2.69,1.68c2.96,1.57,6.14,1.69,9.36,1.2c1.83-0.28,3.62-0.78,4.96-2.21c1.96-2.08,1.56-5.26-1.02-6.5
			c-1.4-0.68-3.03-0.94-4.58-1.26c-1.65-0.33-3.34-0.44-4.98-0.77c-0.47-0.1-0.84-0.64-1.26-0.98c0.42-0.39,0.79-0.91,1.29-1.14
			c0.54-0.25,1.2-0.27,1.81-0.32c2.59-0.2,4.96,0.44,7.14,1.94C225.39,44.45,226.01,43.6,226.73,42.58z M174.39,40.24
			c-0.33,0-0.66-0.03-0.99,0c-3.27,0.3-5.99,1.57-7.45,4.64c-1.39,2.94-1.21,5.89,0.76,8.55c2.05,2.76,5.08,3.49,8.31,3.42
			c6-0.12,9.89-5.62,7.98-11.16C181.84,42.3,178.59,40.24,174.39,40.24z M159.48,50.91c-0.46,0.33-0.85,0.62-1.25,0.89
			c-2.51,1.67-5.23,2.1-8.11,1.16c-2.95-0.97-4.21-4.26-2.61-6.84c1.03-1.67,2.73-2.27,4.61-2.43c2.39-0.2,4.52,0.57,6.51,1.92
			c0.77-0.92,1.48-1.79,2.26-2.72c-4.38-2.89-8.86-3.78-13.59-1.42c-3.04,1.52-4.6,4.61-4.23,7.91c0.39,3.52,2.27,5.88,5.71,6.89
			c2.52,0.74,5.1,0.86,7.66,0.12c2.04-0.59,3.84-1.59,5.28-3.21C160.93,52.38,160.22,51.66,159.48,50.91z M89.2,43.01
			c-3.35-3.05-9.49-3.74-13.48-1.58c-3.12,1.69-4.63,4.63-4.15,8.43C72,53.2,74,55.33,77.2,56.27c2.52,0.74,5.11,0.86,7.67,0.11
			c2.03-0.59,3.83-1.59,5.22-3.14c-0.79-0.79-1.5-1.51-2.22-2.22c-0.09,0.03-0.18,0.04-0.24,0.08c-0.27,0.19-0.53,0.39-0.8,0.57
			c-2.56,1.77-5.35,2.25-8.32,1.28c-2.68-0.87-3.96-3.68-2.87-6.21c0.9-2.09,2.72-2.83,4.83-3.04c2.43-0.24,4.58,0.57,6.6,1.92
			C87.83,44.69,88.52,43.85,89.2,43.01z M46.62,56.43c-0.24-0.52-0.4-0.89-0.58-1.24c-2.34-4.53-4.72-9.04-7-13.6
			c-0.45-0.91-1.02-1.15-1.92-1.06c-1,0.1-2.01-0.3-2.68,1.06c-2.24,4.58-4.65,9.08-6.99,13.61c-0.18,0.35-0.34,0.72-0.52,1.1
			c3.42,0.58,3.7,0.44,5.09-2.36c0.04-0.07,0.09-0.14,0.12-0.21c0.2-0.69,0.65-0.93,1.38-0.9c1.32,0.05,2.66,0.18,3.95-0.02
			c2.48-0.39,4.07,0.43,4.8,2.85c0.1,0.32,0.51,0.74,0.8,0.76C44.2,56.49,45.34,56.43,46.62,56.43z M140.87,56.44
			c-0.25-0.56-0.41-0.96-0.61-1.34c-2.18-4.2-4.45-8.34-6.5-12.6c-0.76-1.57-1.65-2.2-3.36-1.99c-0.76,0.09-1.25,0.2-1.63,0.95
			c-2.38,4.69-4.81,9.35-7.22,14.02c-0.14,0.27-0.21,0.56-0.36,0.96c1.14,0,2.13,0.06,3.11-0.03c0.36-0.03,0.9-0.37,0.98-0.66
			c0.71-2.7,2.56-3.35,5.08-2.93c0.4,0.07,0.83,0.07,1.23,0c2.51-0.45,4.27,0.3,4.99,2.91c0.08,0.29,0.53,0.66,0.84,0.68
			C138.5,56.49,139.61,56.44,140.87,56.44z M102.26,47.55c0.11,1.58,0.09,3.05,0.35,4.47c0.43,2.36,2,3.76,4.29,4.38
			c2.32,0.62,4.65,0.54,6.95-0.07c2.66-0.71,4.35-2.88,4.42-5.67c0.06-2.32,0.03-4.65,0.04-6.98c0-1.01,0-2.01,0-3.07
			c-1.25,0-2.34,0-3.59,0c0,0.51,0,0.94,0,1.38c-0.02,2.49,0.06,4.98-0.07,7.47c-0.16,2.92-1.25,3.88-4.17,3.97
			c-3.05,0.1-4.41-1.15-4.53-4.17c-0.02-0.55,0-1.11,0-1.7C104.69,47.55,103.63,47.55,102.26,47.55z"/>
		<path d="M188.4,40.75c4.46,0,8.84-0.28,13.16,0.09c3.64,0.31,4.65,4.05,2.51,7.06c1.43,1.13,2.19,2.55,1.83,4.44
			c-0.44,2.29-2.18,3.89-5.06,4c-4.11,0.16-8.23,0.04-12.44,0.04C188.4,51.15,188.4,45.95,188.4,40.75z M192.01,53.12
			c2.38,0,4.68,0.02,6.97-0.01c0.65-0.01,1.4,0.02,1.93-0.27c0.52-0.28,1.03-0.91,1.15-1.47c0.18-0.82-0.54-1.3-1.28-1.32
			c-2.91-0.06-5.82-0.02-8.78-0.02C192.01,51.05,192.01,51.98,192.01,53.12z M192.01,46.58c2.71,0,5.33,0.04,7.95-0.02
			c0.79-0.02,1.43-0.46,1.39-1.39c-0.04-0.87-0.67-1.22-1.42-1.23c-2.62-0.04-5.24-0.02-7.93-0.02
			C192.01,44.82,192.01,45.62,192.01,46.58z"/>
		<path d="M4.86,40.54c0.94,0,1.81-0.08,2.65,0.04c0.36,0.05,0.76,0.42,0.99,0.75c1.75,2.56,3.46,5.15,5.29,7.89
			c1.28-1.92,2.47-3.7,3.66-5.48c0.27-0.41,0.61-0.79,0.8-1.23c0.82-1.92,2.29-2.34,4.29-1.82c0,5.15,0,10.35,0,15.65
			c-1.08,0-2.2,0-3.45,0c0-2.85,0-5.68,0-8.51c-0.1-0.04-0.2-0.07-0.29-0.11c-1.65,2.44-3.3,4.88-5.07,7.51
			c-1.71-2.54-3.37-4.98-5.02-7.43c-0.08,0-0.16,0.01-0.25,0.01c0,2.84,0,5.69,0,8.58c-1.31,0-2.41,0-3.59,0
			C4.86,51.14,4.86,45.94,4.86,40.54z"/>
		<path d="M63.41,50.61c1.3,1.89,2.58,3.74,4.01,5.82c-1.48,0-2.77,0.04-4.05-0.03C63.1,56.38,62.8,56,62.6,55.73
			c-0.98-1.41-1.9-2.86-2.92-4.24c-0.26-0.35-0.82-0.65-1.27-0.69c-1.26-0.09-2.53-0.03-3.93-0.03c0,1.92,0,3.73,0,5.61
			c-1.27,0-2.4,0-3.61,0c0-5.24,0-10.45,0-15.83c0.7,0,1.38-0.01,2.06,0c3.21,0.05,6.42,0.05,9.63,0.19
			c2.31,0.1,4.03,1.47,4.63,3.42c0.61,1.96-0.02,4.1-1.63,5.28C64.95,49.88,64.22,50.18,63.41,50.61z M54.53,47.34
			c2.51,0,4.9,0.03,7.28-0.01c1.01-0.02,1.76-0.51,1.8-1.62c0.04-1.05-0.65-1.64-1.6-1.67c-2.49-0.08-4.98-0.03-7.49-0.03
			C54.53,45.13,54.53,46.18,54.53,47.34z"/>
		<path d="M226.73,42.58c-0.73,1.01-1.34,1.87-1.99,2.78c-2.18-1.5-4.55-2.14-7.14-1.94c-0.61,0.05-1.27,0.07-1.81,0.32
			c-0.5,0.23-0.87,0.75-1.29,1.14c0.42,0.34,0.79,0.88,1.26,0.98c1.64,0.33,3.34,0.44,4.98,0.77c1.55,0.31,3.18,0.58,4.58,1.26
			c2.58,1.24,2.98,4.41,1.02,6.5c-1.35,1.43-3.14,1.93-4.96,2.21c-3.22,0.49-6.4,0.37-9.36-1.2c-0.89-0.47-1.72-1.07-2.69-1.68
			c0.74-0.99,1.38-1.87,2.06-2.78c1.03,0.59,1.98,1.23,3.01,1.7c2.49,1.13,5.09,1.12,7.72,0.58c0.28-0.06,0.61-0.14,0.79-0.32
			c0.32-0.33,0.75-0.76,0.74-1.14c-0.01-0.36-0.48-0.91-0.84-1.01c-1.22-0.32-2.49-0.48-3.73-0.7c-1.77-0.32-3.58-0.51-5.3-1
			c-1.73-0.49-2.89-1.69-3.01-3.6c-0.13-1.99,0.81-3.44,2.58-4.19C217.97,39.26,222.38,39.93,226.73,42.58z"/>
		<path d="M174.39,40.24c4.2,0,7.45,2.06,8.62,5.46c1.91,5.54-1.98,11.03-7.98,11.16c-3.24,0.07-6.27-0.66-8.31-3.42
			c-1.97-2.66-2.16-5.61-0.76-8.55c1.45-3.07,4.17-4.34,7.45-4.64C173.73,40.21,174.06,40.24,174.39,40.24z M168.95,48.51
			c-0.02,2.91,2.09,4.89,5.24,4.95c3.19,0.05,5.47-1.94,5.51-4.83c0.04-2.78-2.22-4.97-5.13-4.97
			C171.2,43.67,168.97,45.59,168.95,48.51z"/>
		<path d="M159.48,50.91c0.74,0.75,1.45,1.47,2.23,2.27c-1.45,1.63-3.24,2.63-5.28,3.21c-2.56,0.74-5.14,0.62-7.66-0.12
			c-3.44-1.01-5.32-3.37-5.71-6.89c-0.36-3.3,1.19-6.4,4.23-7.91c4.74-2.36,9.21-1.47,13.59,1.42c-0.78,0.94-1.49,1.8-2.26,2.72
			c-1.99-1.35-4.11-2.12-6.51-1.92c-1.88,0.16-3.57,0.75-4.61,2.43c-1.6,2.59-0.34,5.88,2.61,6.84c2.87,0.94,5.59,0.51,8.11-1.16
			C158.63,51.53,159.02,51.24,159.48,50.91z"/>
		<path d="M89.2,43.01c-0.68,0.84-1.37,1.68-2.12,2.6c-2.02-1.35-4.17-2.16-6.6-1.92c-2.11,0.21-3.93,0.95-4.83,3.04
			c-1.09,2.53,0.18,5.34,2.87,6.21c2.97,0.97,5.76,0.49,8.32-1.28c0.27-0.19,0.53-0.39,0.8-0.57c0.06-0.04,0.15-0.05,0.24-0.08
			c0.71,0.71,1.42,1.43,2.22,2.22c-1.4,1.55-3.19,2.55-5.22,3.14c-2.56,0.75-5.14,0.63-7.67-0.11C74,55.33,72,53.2,71.58,49.86
			c-0.48-3.8,1.03-6.74,4.15-8.43C79.72,39.27,85.85,39.96,89.2,43.01z"/>
		<path d="M46.62,56.43c-1.28,0-2.42,0.05-3.55-0.04c-0.29-0.02-0.7-0.44-0.8-0.76c-0.74-2.42-2.32-3.24-4.8-2.85
			c-1.29,0.2-2.63,0.07-3.95,0.02c-0.73-0.03-1.18,0.21-1.38,0.9c-0.02,0.08-0.08,0.14-0.12,0.21c-1.39,2.81-1.67,2.94-5.09,2.36
			c0.18-0.38,0.34-0.75,0.52-1.1c2.34-4.53,4.74-9.03,6.99-13.61c0.66-1.35,1.68-0.96,2.68-1.06c0.91-0.09,1.47,0.15,1.92,1.06
			c2.28,4.56,4.66,9.07,7,13.6C46.22,55.55,46.37,55.91,46.62,56.43z M34.26,49.5c1.72,0,3.23,0,4.9,0
			c-0.81-1.6-1.56-3.09-2.42-4.78C35.87,46.4,35.11,47.86,34.26,49.5z"/>
		<path d="M140.87,56.44c-1.26,0-2.36,0.05-3.45-0.03c-0.3-0.02-0.76-0.39-0.84-0.68c-0.72-2.6-2.47-3.35-4.99-2.91
			c-0.4,0.07-0.83,0.07-1.23,0c-2.52-0.42-4.37,0.23-5.08,2.93c-0.08,0.3-0.62,0.63-0.98,0.66c-0.98,0.09-1.97,0.03-3.11,0.03
			c0.15-0.4,0.22-0.7,0.36-0.96c2.41-4.67,4.84-9.33,7.22-14.02c0.38-0.75,0.87-0.86,1.63-0.95c1.72-0.21,2.61,0.41,3.36,1.99
			c2.05,4.26,4.32,8.41,6.5,12.6C140.46,55.48,140.62,55.88,140.87,56.44z M133.35,49.49c-0.81-1.6-1.57-3.09-2.43-4.79
			c-0.86,1.71-1.6,3.18-2.41,4.79C130.2,49.49,131.69,49.49,133.35,49.49z"/>
		<path d="M102.26,47.55c1.37,0,2.43,0,3.68,0c0,0.59-0.02,1.15,0,1.7c0.12,3.02,1.48,4.27,4.53,4.17c2.92-0.09,4.01-1.05,4.17-3.97
			c0.13-2.48,0.06-4.98,0.07-7.47c0-0.44,0-0.87,0-1.38c1.26,0,2.35,0,3.59,0c0,1.06,0,2.07,0,3.07c-0.01,2.33,0.02,4.65-0.04,6.98
			c-0.07,2.78-1.76,4.95-4.42,5.67c-2.3,0.62-4.63,0.7-6.95,0.07c-2.29-0.62-3.87-2.02-4.29-4.38
			C102.35,50.6,102.37,49.13,102.26,47.55z"/>
		<path class="st0" d="M192.01,53.12c0-1.14,0-2.07,0-3.08c2.96,0,5.87-0.03,8.78,0.02c0.74,0.01,1.46,0.5,1.28,1.32
			c-0.12,0.56-0.64,1.18-1.15,1.47c-0.53,0.29-1.28,0.26-1.93,0.27C196.68,53.14,194.38,53.12,192.01,53.12z"/>
		<path class="st0" d="M192.01,46.58c0-0.96,0-1.76,0-2.66c2.68,0,5.31-0.03,7.93,0.02c0.74,0.01,1.38,0.36,1.42,1.23
			c0.04,0.93-0.6,1.38-1.39,1.39C197.34,46.62,194.71,46.58,192.01,46.58z"/>
		<path class="st0" d="M54.53,47.34c0-1.17,0-2.21,0-3.33c2.51,0,5-0.05,7.49,0.03c0.95,0.03,1.64,0.62,1.6,1.67
			c-0.04,1.1-0.79,1.6-1.8,1.62C59.43,47.37,57.05,47.34,54.53,47.34z"/>
		<path class="st0" d="M168.95,48.51c0.02-2.92,2.25-4.84,5.63-4.85c2.91-0.01,5.17,2.18,5.13,4.97c-0.04,2.88-2.32,4.88-5.51,4.83
			C171.04,53.4,168.94,51.42,168.95,48.51z"/>
		<path class="st0" d="M34.26,49.5c0.85-1.64,1.62-3.1,2.49-4.78c0.85,1.69,1.61,3.18,2.42,4.78C37.48,49.5,35.98,49.5,34.26,49.5z"
			/>
		<path class="st0" d="M133.35,49.49c-1.66,0-3.14,0-4.84,0c0.81-1.6,1.55-3.07,2.41-4.79C131.78,46.4,132.53,47.89,133.35,49.49z"
			/>
	</g>
</g>
</svg>
