<?xml version="1.0" encoding="utf-8"?>
<!-- Generator: Adobe Illustrator 24.1.0, SVG Export Plug-In . SVG Version: 6.00 Build 0)  -->
<svg version="1.1" id="Layer_1" xmlns="http://www.w3.org/2000/svg" xmlns:xlink="http://www.w3.org/1999/xlink" x="0px" y="0px"
	 viewBox="0 0 230 90" style="enable-background:new 0 0 230 90;" xml:space="preserve">
<style type="text/css">
	.st0{fill:#231F20;}
	.st1{fill:#FFFFFF;stroke:#231F20;stroke-width:0.3625;stroke-miterlimit:10;}
</style>
<g id="SdKwEI.tif">
	<g>
		<path class="st0" d="M223.16,40.41c0.13-0.01,0.26-0.01,0.39-0.02c0,2.61,0,5.22,0,7.83c-0.13-0.01-0.26-0.01-0.39-0.02
			C222.29,45.61,222.29,43.01,223.16,40.41z"/>
		<path class="st0" d="M110.3,44.02c-0.87-0.96-1.82-1.8-2.51-2.82c-0.5-0.74,0.5-1.07,0.9-1.48c1.95-2,4-3.91,5.95-5.92
			c0.78-0.81,1.4-1.03,2.14-0.03c0.17,0.24,0.39,0.45,0.63,0.62c1.27,0.9,1.28,1.66,0.06,2.74c-2.09,1.85-4.01,3.9-6.01,5.86
			C111.17,43.28,110.85,43.54,110.3,44.02z"/>
		<path class="st0" d="M107.59,56.97c-0.82-0.9-1.67-1.72-2.38-2.65c-0.62-0.8,0.31-1.14,0.71-1.54c2.01-2.03,4.1-3.99,6.08-6.05
			c0.81-0.85,1.29-0.85,2.12-0.01c1.99,2.03,2.04,1.99,0.06,3.94c-1.78,1.76-3.56,3.51-5.35,5.26
			C108.52,56.21,108.19,56.46,107.59,56.97z"/>
		<path class="st0" d="M108.22,49.18c-0.76-0.3-0.98-0.61-1.23-0.86c-2.21-2.17-4.43-4.34-6.62-6.52c-1.33-1.32,0.26-1.81,0.84-2.51
			c0.59-0.71,1.22-1.57,2.31-0.45c2.13,2.17,4.3,4.29,6.49,6.4c0.67,0.64,0.68,1.09,0.01,1.74
			C109.34,47.64,108.81,48.44,108.22,49.18z"/>
		<path class="st0" d="M123.76,48.76c-0.57,1.07-1.43,1.83-2.34,2.47c-0.83,0.59-1.28-0.33-1.75-0.78c-1.97-1.9-3.87-3.88-5.88-5.74
			c-0.92-0.85-1.01-1.47,0-2.24c0.47-0.36,0.87-0.81,1.28-1.25c0.48-0.51,0.89-0.45,1.36,0.02c2.28,2.27,4.58,4.52,6.86,6.79
			C123.49,48.23,123.6,48.51,123.76,48.76z"/>
		<path class="st0" d="M44.48,41.98c-1.33,1.6-2.35,2.79-3.32,4.02c-0.62,0.79-1.12,0.7-1.67-0.04c-0.64-0.86-1.31-1.69-1.97-2.53
			c-0.26-0.33-0.52-0.84-0.94-0.73c-0.62,0.16-0.35,0.79-0.37,1.23c-0.03,0.95,0.02,1.9-0.02,2.85c-0.02,0.54,0.26,1.33-0.66,1.39
			c-0.96,0.06-0.76-0.74-0.76-1.28c-0.02-1.72-0.02-3.44,0-5.16c0.01-0.5-0.17-1.16,0.61-1.28c0.65-0.1,1.3-0.14,1.8,0.5
			c0.79,1.04,1.64,2.04,2.47,3.05c0.52,0.64,0.94,0.77,1.51-0.03c0.76-1.06,1.71-1.98,2.51-3.02c0.51-0.66,1.14-0.63,1.78-0.47
			c0.73,0.19,0.49,0.87,0.49,1.36c0.03,1.72,0.02,3.44,0,5.16c0,0.51,0.14,1.16-0.69,1.19c-0.84,0.03-0.74-0.61-0.75-1.13
			C44.47,45.53,44.48,44.01,44.48,41.98z"/>
		<path class="st0" d="M135.27,42.55c0,1.71,0.01,3.12,0,4.53c0,0.53,0.04,1.15-0.78,1.1c-0.69-0.04-0.65-0.58-0.66-1.05
			c-0.01-1.78-0.02-3.55,0-5.33c0.01-0.5-0.21-1.15,0.52-1.35c0.61-0.17,1.21-0.07,1.63,0.46c0.78,0.97,1.6,1.91,2.32,2.93
			c0.69,0.97,1.28,0.87,1.95,0.01c0.72-0.94,1.46-1.87,2.19-2.81c0.46-0.59,1.07-0.78,1.76-0.58c0.73,0.21,0.49,0.86,0.5,1.35
			c0.03,1.72,0.02,3.43,0,5.15c-0.01,0.5,0.16,1.18-0.66,1.21c-0.96,0.04-0.76-0.73-0.77-1.28c-0.02-1.42-0.01-2.84-0.01-4.46
			c-1.42,1.01-2.22,2.37-3.17,3.56c-0.74,0.93-1.02,0.76-1.7-0.05C137.5,44.85,136.82,43.56,135.27,42.55z"/>
		<path class="st0" d="M186.92,39.95c1.1,0.26,2.22,0.48,3.3,0.81c0.34,0.1,1.1,0.16,0.74,0.87c-0.25,0.48-0.71,0.55-1.24,0.31
			c-1.18-0.53-2.45-0.58-3.71-0.46c-0.64,0.06-1.47,0.12-1.42,1c0.05,0.77,0.81,0.72,1.41,0.77c1.25,0.12,2.51,0.18,3.75,0.41
			c0.96,0.18,1.83,0.61,1.98,1.77c0.15,1.18-0.44,1.97-1.43,2.43c-2.28,1.06-4.54,0.78-6.75-0.27c-0.34-0.16-0.9-0.29-0.55-0.88
			c0.24-0.41,0.58-0.52,1.07-0.31c1.33,0.59,2.74,0.87,4.2,0.74c0.85-0.08,1.86-0.21,1.91-1.23c0.05-1.04-1.07-1.01-1.76-1.15
			c-1.22-0.25-2.5-0.02-3.75-0.38c-0.9-0.26-1.54-0.6-1.64-1.59c-0.1-1.02,0.33-1.71,1.27-2.11
			C185.12,40.32,185.97,40.01,186.92,39.95z"/>
		<path class="st0" d="M202.61,40.05c2.86,0.02,5.01,1.82,5.02,4.21c0.02,2.48-2.19,4.34-5.11,4.31c-2.87-0.03-5.01-1.83-5.03-4.22
			C197.48,41.86,199.66,40.03,202.61,40.05z"/>
		<path class="st0" d="M56.85,48.23c-4.05,0-4.05,0-4.05-3.98c0-3.85,0-3.85,4-3.85c0.84,0,1.69-0.04,2.53,0.01
			c0.52,0.03,1.4-0.32,1.33,0.66c-0.06,0.8-0.83,0.71-1.42,0.71c-1.2,0.01-2.41,0-3.61,0.01c-0.67,0-1.39-0.08-1.36,0.93
			c0.03,1.03,0.8,0.84,1.43,0.86c0.72,0.02,1.44,0,2.17,0.01c0.41,0.01,0.94-0.05,0.97,0.52c0.03,0.59-0.5,0.56-0.92,0.57
			c-0.84,0.02-1.69,0.02-2.53,0c-0.71-0.02-1.13,0.18-1.14,0.99c-0.01,0.83,0.3,1.19,1.16,1.17c1.5-0.03,3.01-0.01,4.51,0
			c0.57,0.01,1.17,0.13,1.13,0.84c-0.03,0.7-0.68,0.53-1.12,0.54C58.89,48.24,57.87,48.23,56.85,48.23z"/>
		<path class="st0" d="M168.92,42.11c0,1.94,0.01,3.47,0,5c0,0.47,0.05,1.02-0.64,1.07c-0.82,0.06-0.79-0.55-0.8-1.09
			c-0.01-1.66-0.04-3.32,0.01-4.98c0.02-0.58-0.38-1.39,0.56-1.66c0.8-0.23,1.33,0.25,1.9,0.74c1.78,1.5,3.61,2.94,5.42,4.4
			c-0.1,0.19-0.2,0.39-0.29,0.58c0-1.5-0.01-2.99,0.01-4.49c0.01-0.5-0.17-1.18,0.65-1.22c0.97-0.05,0.77,0.72,0.78,1.27
			c0.02,1.66,0.03,3.32,0,4.98c-0.01,0.49,0.26,1.15-0.4,1.42c-0.66,0.27-1.29,0.09-1.8-0.45c-1.42-1.53-2.85-3.05-4.29-4.56
			C169.79,42.85,169.51,42.63,168.92,42.11z"/>
		<path class="st0" d="M223.16,40.41c0,2.6,0,5.2,0,7.8c-2.42,0.36-3.24-1.72-4.5-3.01c-0.91-0.93-1.81-1.87-3.07-3.22
			c0,1.81,0.05,3.18-0.02,4.54c-0.03,0.6,0.44,1.67-0.74,1.62c-1.13-0.05-0.63-1.09-0.66-1.7c-0.07-1.48-0.05-2.96-0.01-4.44
			c0.02-0.54-0.31-1.27,0.47-1.54c0.76-0.26,1.38,0.07,1.91,0.65c1.44,1.58,3.16,2.91,4.41,4.67c0.12,0.17,0.35,0.28,0.8,0.62
			c0-1.71,0.05-3.16-0.02-4.6C221.68,40.74,222.02,40.22,223.16,40.41z"/>
		<path class="st0" d="M6.5,44.32c0-3.93,0-3.93,3.93-3.93c0.9,0,1.81,0,2.71,0.01c1.52,0.01,2.16,1.04,2.32,2.27
			c0.16,1.16-0.48,2-1.68,2.42c-1.42,0.49-2.87,0.28-4.3,0.26c-1.15-0.02-1.68,0.31-1.57,1.51c0.05,0.53,0.24,1.34-0.71,1.32
			c-0.95-0.02-0.66-0.82-0.69-1.35C6.47,45.99,6.5,45.15,6.5,44.32z"/>
		<path class="st0" d="M160.61,43.63c0.01,4.21-3.28,6.22-7.2,4.37c-1.15-0.54-1.92-1.37-1.86-2.77c0.06-1.3,0.01-2.61,0.02-3.91
			c0-0.44,0.08-0.85,0.64-0.89c0.68-0.05,0.79,0.4,0.79,0.92c0,1.19-0.03,2.37,0.01,3.56c0.05,1.63,0.96,2.26,3.16,2.24
			c2.05-0.01,2.93-0.65,2.98-2.25c0.04-1.18,0.01-2.37,0.01-3.56c0-0.53,0.12-0.96,0.8-0.92c0.57,0.04,0.64,0.45,0.64,0.89
			C160.62,42.09,160.61,42.86,160.61,43.63z"/>
		<path class="st0" d="M29.03,47.8c0.03,0.31-0.16,0.4-0.42,0.41c-0.42,0.01-0.87,0.06-1.11-0.39c-1.34-2.6-3.72-0.99-5.61-1.29
			c-0.63-0.1-0.72,0.84-1.08,1.29c-0.3,0.36-0.73,0.52-1.12,0.35c-0.64-0.29-0.11-0.72,0.04-1.01c1.04-2,2.08-3.99,3.2-5.94
			c0.59-1.05,1.89-1.22,2.43-0.3c1.26,2.15,2.38,4.36,3.56,6.55C28.95,47.57,28.98,47.69,29.03,47.8z"/>
		<path class="st0" d="M80.23,47.32c0.49-0.89,1.14-2.02,1.76-3.16c0.48-0.89,0.9-1.81,1.39-2.69c0.81-1.46,1.97-1.56,2.81-0.15
			c1.12,1.88,2.11,3.85,3.13,5.79c0.16,0.31,0.6,0.76-0.03,1.03c-0.41,0.18-0.76,0-1.09-0.37c-1.68-1.91-4.91-1.92-6.59-0.03
			c-0.37,0.41-0.77,0.55-1.27,0.41C80.08,48.08,80,47.85,80.23,47.32z"/>
		<path class="st0" d="M70.81,48.23c-3.77-0.09-3.92,0.91-3.87-3.83c0.01-1.01,0-2.02,0.1-3.02c0.05-0.54,0.33-1.05,1.06-0.94
			c0.68,0.1,0.59,0.65,0.6,1.11c0.01,1.19,0.08,2.38-0.01,3.56c-0.1,1.29,0.3,1.89,1.7,1.74c0.89-0.1,1.81-0.03,2.71-0.01
			c0.61,0.01,1.35-0.01,1.34,0.81c-0.01,0.82-0.78,0.55-1.26,0.58C72.38,48.26,71.6,48.23,70.81,48.23z"/>
		<path class="st0" d="M107.89,33.03c0.49,0.05,2.76,2.51,2.68,2.91c-0.08,0.41-2.52,2.6-2.85,2.57c-0.37-0.04-2.7-2.39-2.7-2.73
			C105.01,35.33,107.46,32.98,107.89,33.03z"/>
		<path class="st0" d="M118.53,53.84c0.03,0.32-2.22,2.73-2.62,2.8c-0.41,0.08-2.9-2.16-2.95-2.65c-0.04-0.33,2.2-2.72,2.62-2.8
			C115.98,51.12,118.48,53.36,118.53,53.84z"/>
		<path class="st0" d="M123.68,40.99c-0.02,0.38-2.3,2.75-2.66,2.77c-0.29,0.01-2.88-2.48-2.9-2.79c-0.02-0.44,2.45-2.71,2.91-2.68
			C121.59,38.32,123.71,40.48,123.68,40.99z"/>
		<path class="st0" d="M102.47,51.4c-0.58-0.05-2.65-2.22-2.6-2.73c0.04-0.38,2.35-2.74,2.69-2.74c0.3,0,2.88,2.53,2.88,2.82
			C105.42,49.19,102.9,51.44,102.47,51.4z"/>
		<path class="st1" d="M202.53,47.16c-2.21-0.01-3.61-1.13-3.59-2.88c0.02-1.75,1.43-2.83,3.65-2.82c2.21,0.01,3.6,1.13,3.58,2.89
			C206.16,46.09,204.77,47.17,202.53,47.16z"/>
		<path class="st1" d="M10.63,43.96c-0.54,0-1.08-0.02-1.61,0C8.26,44,7.93,43.68,7.94,42.92c0.01-0.69,0.17-1.14,0.99-1.13
			c1.32,0.02,2.63,0,3.95,0.01c0.59,0,1.11,0.22,1.15,0.86c0.04,0.68-0.44,1.14-1.06,1.23c-0.76,0.11-1.55,0.03-2.33,0.03
			C10.63,43.93,10.63,43.95,10.63,43.96z"/>
		<path class="st1" d="M24.06,45.39c-0.48-0.26-1.61,0.37-1.39-0.67c0.2-0.94,0.63-2.51,1.5-2.51c0.96,0,1.46,1.54,1.55,2.5
			C25.82,45.73,24.66,45.17,24.06,45.39z"/>
		<path class="st1" d="M84.87,42.04c0.43,1.11,2.19,1.82,1.21,3.12c-0.42,0.56-2.1,0.54-2.47,0.02
			C82.67,43.88,84.56,43.21,84.87,42.04z"/>
	</g>
</g>
</svg>
