<?xml version="1.0" encoding="utf-8"?>
<!-- Generator: Adobe Illustrator 24.1.0, SVG Export Plug-In . SVG Version: 6.00 Build 0)  -->
<svg version="1.1" id="Layer_1" xmlns="http://www.w3.org/2000/svg" xmlns:xlink="http://www.w3.org/1999/xlink" x="0px" y="0px"
	 viewBox="0 0 230 90" style="enable-background:new 0 0 230 90;" xml:space="preserve">
<style type="text/css">
	.st0{fill:#FFFFFF;}
</style>
<g id="LXbNzx.tif">
	<g>
		<path class="st0" d="M63.09,49.18c-0.14,0.08-0.28,0.15-0.42,0.23c-0.16-0.26-0.3-0.54-0.5-0.77c-1.9-2.19-3.81-4.36-5.72-6.54
			c-2.26-2.58-4.55-5.15-6.78-7.77c-0.74-0.87-1.66-0.87-2.52-0.59c-0.3,0.1-0.45,1.04-0.45,1.59c-0.03,5.9,0.01,11.79-0.04,17.69
			c-0.01,1.16,0.5,1.3,1.48,1.33c1.05,0.03,1.31-0.35,1.3-1.34c-0.05-4.35-0.02-8.71-0.02-13.06c0-0.39,0.05-0.78,0.09-1.48
			c0.53,0.55,0.82,0.84,1.1,1.15c4.02,4.59,8.03,9.18,12.05,13.77c0.18,0.2,0.34,0.53,0.55,0.58c0.77,0.15,1.57,0.3,2.34,0.23
			c0.16-0.01,0.36-0.91,0.36-1.39c0.02-5.97-0.01-11.95,0.04-17.92c0.01-1.05-0.35-1.32-1.34-1.29c-0.95,0.03-1.5,0.11-1.48,1.3
			c0.07,4.31,0.03,8.63,0.02,12.95C63.15,48.29,63.11,48.74,63.09,49.18z M205.04,37.7c0.43-1.55,0.29-2.52-0.5-2.85
			c-3.3-1.38-6.67-1.92-10.2-0.92c-3.85,1.08-6.96,4.64-7.46,8.34c-0.73,5.35,1.74,9.11,5.25,10.91c4.27,2.19,8.64,1.59,12.93-0.09
			c0.29-0.11,0.57-0.66,0.58-1c0.05-2.35,0.05-4.7-0.01-7.05c-0.01-0.28-0.5-0.78-0.78-0.8c-1.74-0.07-3.49-0.05-5.23-0.02
			c-0.26,0-0.65,0.15-0.75,0.35c-0.57,1.13,0.05,2.12,1.29,2.12c0.58,0,1.17-0.04,1.74,0.02c0.26,0.03,0.72,0.24,0.72,0.38
			c0.06,1.26,0.05,2.53,0.02,3.79c0,0.14-0.32,0.32-0.52,0.39c-3.2,1.11-6.33,1.18-9.2-0.86c-3.02-2.15-4.04-6.31-2.48-9.73
			c1.64-3.6,5.57-5.51,9.56-4.55C201.68,36.55,203.31,37.16,205.04,37.7z M106.55,44.26c-0.08,0.05,0.02-0.01,0.12-0.07
			c2.32-1.48,3.27-3.39,2.82-5.7c-0.51-2.63-2.04-4.21-4.82-4.58c-1.87-0.25-3.78-0.16-5.67-0.3c-1.07-0.08-1.41,0.3-1.41,1.36
			c0.04,6.01,0.04,12.02,0,18.03c-0.01,0.97,0.25,1.39,1.31,1.35c0.95-0.04,1.64-0.05,1.6-1.33c-0.08-2.23,0-4.47-0.03-6.7
			c-0.01-0.73,0.24-1.01,1.01-1.03c1.3-0.05,2.42,0.34,3.18,1.35c1.49,1.96,2.9,3.98,4.29,6.01c1.23,1.8,1.9,2.07,4.4,1.42
			C111.08,50.8,108.86,47.6,106.55,44.26z M12.75,44.3c-0.03,0.03,0.07-0.08,0.19-0.16c2.38-1.56,3.16-3.42,2.6-6.23
			c-0.41-2.06-2.18-3.69-4.7-4.01c-1.95-0.25-3.94-0.18-5.91-0.29c-0.94-0.05-1.2,0.36-1.2,1.23c0.02,6.09,0.03,12.17-0.01,18.26
			c-0.01,1.11,0.53,1.25,1.44,1.24c0.87-0.01,1.5-0.04,1.46-1.19c-0.07-2.27,0-4.55-0.03-6.82c-0.01-0.74,0.27-0.99,1.02-1.04
			c1.56-0.1,2.74,0.57,3.6,1.74c1.44,1.95,2.78,3.97,4.15,5.98c0.95,1.39,2.28,1.76,4.12,0.98C17.24,50.75,15.02,47.56,12.75,44.3z
			 M139.47,54.1c-0.09-0.31-0.14-0.65-0.27-0.94c-2.79-6.25-5.61-12.48-8.37-18.75c-0.34-0.77-0.81-0.86-1.52-0.9
			c-0.78-0.05-1.09,0.33-1.35,0.95c-2.68,6.3-5.38,12.58-8.07,18.88c-0.11,0.26-0.16,0.55-0.23,0.83c2.55,0.44,2.67,0.37,3.59-1.81
			c0.45-1.06,0.92-2.11,1.34-3.19c0.27-0.68,0.64-1.03,1.45-1.01c2.32,0.06,4.65,0.05,6.97,0c0.75-0.02,1.13,0.3,1.4,0.93
			c0.52,1.2,1.08,2.38,1.62,3.57C136.88,54.51,137.29,54.69,139.47,54.1z M181.72,54.32c-0.09-0.39-0.1-0.58-0.17-0.75
			c-2.9-6.5-5.79-12.99-8.72-19.48c-0.11-0.25-0.48-0.47-0.76-0.53c-1.04-0.23-1.64,0.17-2.08,1.22
			c-2.11,5.08-4.32,10.11-6.49,15.16c-0.6,1.39-1.16,2.8-1.77,4.28c0.43,0.05,0.66,0.09,0.88,0.09c1.97,0.06,1.97,0.06,2.73-1.71
			c0.5-1.17,1.03-2.32,1.48-3.5c0.26-0.68,0.65-0.94,1.38-0.92c2.32,0.04,4.65,0.04,6.97,0c0.73-0.01,1.14,0.25,1.42,0.91
			c0.64,1.48,1.28,2.97,2.03,4.39c0.2,0.38,0.75,0.69,1.2,0.8C180.37,54.42,180.98,54.32,181.72,54.32z M26.7,43.91
			c0,3.08,0.03,6.16-0.02,9.24c-0.01,0.91,0.29,1.2,1.21,1.19c3.21-0.05,6.43-0.06,9.64,0.01c1.11,0.02,1.17-0.52,1.16-1.35
			c0-0.81-0.01-1.4-1.14-1.36c-2.32,0.08-4.65,0-6.97,0.03c-0.75,0.01-1.03-0.25-1.01-1c0.04-1.46,0.05-2.93,0-4.39
			c-0.03-0.87,0.3-1.15,1.15-1.13c2.05,0.04,4.11-0.03,6.16,0.03c0.98,0.02,1.28-0.36,1.26-1.29c-0.01-0.88-0.17-1.35-1.22-1.31
			c-2.13,0.07-4.26,0-6.39,0.03c-0.69,0.01-0.97-0.22-0.95-0.93c0.04-1.42,0.06-2.85-0.01-4.27c-0.05-0.95,0.34-1.18,1.22-1.16
			c2.13,0.05,4.26-0.03,6.39,0.03c1.04,0.03,1.21-0.46,1.21-1.33c0-0.87-0.15-1.35-1.2-1.33c-3.1,0.06-6.2,0.05-9.29,0
			c-0.92-0.01-1.22,0.29-1.2,1.19C26.72,37.83,26.7,40.87,26.7,43.91z M226.06,42.59c-2.46,0-4.81-0.03-7.17,0.02
			c-0.87,0.02-1.28-0.2-1.24-1.16c0.06-1.34,0.06-2.7,0-4.04c-0.04-0.94,0.37-1.19,1.25-1.17c2.17,0.04,4.34-0.04,6.51,0.03
			c1.16,0.04,1.09-0.62,1.1-1.39c0.01-0.78-0.05-1.3-1.09-1.28c-3.14,0.06-6.28,0.05-9.41,0c-1.01-0.02-1.25,0.4-1.25,1.3
			c0.02,6.05,0.02,12.09,0,18.14c0,0.91,0.25,1.31,1.26,1.3c3.18-0.05,6.35-0.06,9.53,0c1.11,0.02,1.26-0.5,1.27-1.41
			c0.01-0.92-0.27-1.32-1.27-1.29c-2.25,0.06-4.49-0.01-6.74,0.03c-0.87,0.02-1.17-0.31-1.14-1.15c0.04-1.35,0.06-2.7,0-4.04
			c-0.05-1,0.3-1.38,1.33-1.35c2.05,0.06,4.11,0,6.16,0.03c0.75,0.01,1.08-0.26,1.01-1.01C226.11,43.67,226.09,43.18,226.06,42.59z
			 M83.13,45.27c0-2.58,0.05-5.16-0.02-7.74c-0.03-1.09,0.36-1.41,1.41-1.37c1.55,0.07,3.1-0.03,4.64,0.03
			c1.05,0.05,1.21-0.47,1.19-1.34c-0.01-0.81-0.12-1.28-1.13-1.27c-5.03,0.05-10.07,0.04-15.1,0C73.11,33.59,73,34.08,73,34.89
			c0,0.79,0.08,1.34,1.1,1.31c1.55-0.05,3.1,0.04,4.64-0.03c1.1-0.05,1.49,0.3,1.48,1.44c-0.05,5.12,0.01,10.24-0.05,15.36
			c-0.01,1.19,0.48,1.4,1.52,1.39c1.01-0.01,1.48-0.22,1.45-1.35C83.08,50.43,83.13,47.85,83.13,45.27z M159.55,33.74
			c-1.99-0.29-3.51-0.29-4.63,1.51c-1.04,1.66-2.41,3.1-3.6,4.66c-0.54,0.7-0.93,0.76-1.5,0.01c-1.17-1.58-2.55-3.02-3.57-4.68
			c-1.12-1.82-2.67-1.74-4.59-1.52c0.3,0.46,0.5,0.81,0.75,1.13c1.93,2.45,3.84,4.92,5.81,7.34c0.62,0.76,0.9,1.54,0.89,2.52
			c-0.05,2.77,0.03,5.54-0.04,8.31c-0.03,1.14,0.48,1.34,1.48,1.33c0.97-0.02,1.61-0.06,1.58-1.33c-0.08-2.88-0.06-5.77,0.01-8.66
			c0.02-0.63,0.28-1.36,0.67-1.87c1.96-2.58,3.99-5.1,5.99-7.64C159.01,34.56,159.21,34.23,159.55,33.74z"/>
		<path d="M63.09,49.18c0.02-0.45,0.06-0.89,0.06-1.34c0-4.32,0.04-8.63-0.02-12.95c-0.02-1.19,0.53-1.28,1.48-1.3
			c1-0.03,1.35,0.25,1.34,1.29c-0.05,5.97-0.01,11.95-0.04,17.92c0,0.49-0.2,1.38-0.36,1.39c-0.77,0.06-1.57-0.08-2.34-0.23
			c-0.21-0.04-0.37-0.37-0.55-0.58c-4.02-4.59-8.03-9.18-12.05-13.77c-0.27-0.31-0.57-0.6-1.1-1.15c-0.05,0.7-0.09,1.09-0.09,1.48
			c-0.01,4.35-0.03,8.71,0.02,13.06c0.01,0.99-0.25,1.37-1.3,1.34c-0.98-0.03-1.49-0.17-1.48-1.33c0.05-5.9,0.01-11.79,0.04-17.69
			c0-0.56,0.15-1.5,0.45-1.59c0.85-0.28,1.77-0.28,2.52,0.59c2.22,2.62,4.51,5.18,6.78,7.77c1.91,2.18,3.82,4.36,5.72,6.54
			c0.2,0.23,0.33,0.51,0.5,0.77C62.8,49.34,62.95,49.26,63.09,49.18z"/>
		<path d="M205.04,37.7c-1.73-0.54-3.36-1.16-5.04-1.56c-3.99-0.96-7.92,0.95-9.56,4.55c-1.56,3.42-0.55,7.58,2.48,9.73
			c2.87,2.04,6,1.97,9.2,0.86c0.2-0.07,0.51-0.25,0.52-0.39c0.04-1.26,0.04-2.53-0.02-3.79c-0.01-0.14-0.46-0.35-0.72-0.38
			c-0.58-0.06-1.16-0.02-1.74-0.02c-1.24-0.01-1.86-0.99-1.29-2.12c0.1-0.2,0.49-0.34,0.75-0.35c1.74-0.03,3.49-0.05,5.23,0.02
			c0.28,0.01,0.77,0.51,0.78,0.8c0.06,2.35,0.06,4.7,0.01,7.05c-0.01,0.35-0.29,0.89-0.58,1c-4.29,1.68-8.66,2.28-12.93,0.09
			c-3.51-1.8-5.98-5.56-5.25-10.91c0.5-3.7,3.61-7.26,7.46-8.34c3.52-0.99,6.9-0.46,10.2,0.92
			C205.33,35.18,205.47,36.15,205.04,37.7z"/>
		<path d="M106.55,44.26c2.32,3.35,4.53,6.54,6.8,9.81c-2.49,0.65-3.16,0.38-4.4-1.42c-1.39-2.03-2.81-4.05-4.29-6.01
			c-0.76-1-1.88-1.4-3.18-1.35c-0.77,0.03-1.01,0.31-1.01,1.03c0.02,2.23-0.05,4.47,0.03,6.7c0.04,1.27-0.64,1.29-1.6,1.33
			c-1.06,0.04-1.31-0.38-1.31-1.35c0.03-6.01,0.04-12.02,0-18.03c-0.01-1.06,0.33-1.44,1.41-1.36c1.89,0.14,3.8,0.05,5.67,0.3
			c2.78,0.37,4.31,1.95,4.82,4.58c0.45,2.31-0.5,4.23-2.82,5.7C106.57,44.25,106.47,44.3,106.55,44.26z M100.47,39.4
			c0,0.15,0,0.31,0,0.46c0,3,0,3,3.01,2.73c1.87-0.16,2.99-1.3,3.05-3.11c0.07-1.78-0.86-2.88-2.76-3.21
			c-0.61-0.11-1.23-0.13-1.84-0.21c-1.07-0.15-1.6,0.22-1.49,1.38C100.52,38.09,100.47,38.75,100.47,39.4z"/>
		<path d="M12.75,44.3c2.27,3.26,4.49,6.46,6.74,9.69c-1.84,0.78-3.17,0.41-4.12-0.98c-1.37-2-2.71-4.02-4.15-5.98
			c-0.86-1.17-2.04-1.84-3.6-1.74c-0.75,0.05-1.03,0.31-1.02,1.04c0.02,2.27-0.04,4.55,0.03,6.82c0.03,1.16-0.59,1.19-1.46,1.19
			c-0.91,0.01-1.45-0.13-1.44-1.24c0.04-6.09,0.03-12.17,0.01-18.26c0-0.87,0.26-1.29,1.2-1.23c1.97,0.11,3.96,0.04,5.91,0.29
			c2.53,0.32,4.3,1.95,4.7,4.01c0.56,2.81-0.22,4.67-2.6,6.23C12.83,44.22,12.72,44.32,12.75,44.3z M8.55,42.66
			c0.27-0.02,0.54-0.03,0.81-0.05c2.05-0.14,3.26-1.2,3.35-2.94c0.11-2.03-0.8-3.09-3.03-3.45c-0.64-0.1-1.31-0.1-1.96-0.15
			c-0.78-0.06-1.13,0.28-1.12,1.07c0.03,1.23,0,2.46,0,3.69C6.61,42.73,6.61,42.73,8.55,42.66z"/>
		<path d="M139.47,54.1c-2.18,0.59-2.59,0.41-3.43-1.42c-0.55-1.19-1.1-2.37-1.62-3.57c-0.27-0.63-0.65-0.94-1.4-0.93
			c-2.32,0.05-4.65,0.05-6.97,0c-0.81-0.02-1.19,0.32-1.45,1.01c-0.42,1.07-0.89,2.13-1.34,3.19c-0.93,2.18-1.04,2.24-3.59,1.81
			c0.08-0.29,0.12-0.57,0.23-0.83c2.69-6.29,5.39-12.58,8.07-18.88c0.26-0.62,0.57-1,1.35-0.95c0.71,0.04,1.18,0.13,1.52,0.9
			c2.76,6.26,5.57,12.5,8.37,18.75C139.33,53.46,139.38,53.79,139.47,54.1z M129.53,38.34c-0.12,0.02-0.24,0.04-0.37,0.06
			c-0.95,2.3-1.89,4.61-2.9,7.07c2.24,0,4.21,0,6.46,0C131.59,42.95,130.56,40.64,129.53,38.34z"/>
		<path d="M181.72,54.32c-0.74,0-1.34,0.1-1.88-0.03c-0.45-0.11-1-0.42-1.2-0.8c-0.75-1.43-1.4-2.91-2.03-4.39
			c-0.28-0.66-0.69-0.92-1.42-0.91c-2.32,0.04-4.65,0.04-6.97,0c-0.73-0.01-1.13,0.25-1.38,0.92c-0.45,1.18-0.98,2.34-1.48,3.5
			c-0.76,1.77-0.76,1.77-2.73,1.71c-0.23-0.01-0.45-0.05-0.88-0.09c0.61-1.49,1.18-2.89,1.77-4.28c2.17-5.05,4.38-10.09,6.49-15.16
			c0.44-1.05,1.03-1.45,2.08-1.22c0.28,0.06,0.65,0.29,0.76,0.53c2.93,6.48,5.82,12.98,8.72,19.48
			C181.62,53.73,181.63,53.93,181.72,54.32z M168.44,45.44c2.28,0,4.28,0,6.48,0c-1.13-2.49-2.18-4.78-3.22-7.07
			c-0.12,0.03-0.25,0.06-0.37,0.09C170.4,40.72,169.46,42.97,168.44,45.44z"/>
		<path d="M26.7,43.91c0-3.04,0.03-6.08-0.02-9.12c-0.01-0.9,0.28-1.2,1.2-1.19c3.1,0.05,6.2,0.06,9.29,0
			c1.06-0.02,1.2,0.47,1.2,1.33c0,0.88-0.17,1.36-1.21,1.33c-2.13-0.06-4.26,0.01-6.39-0.03c-0.88-0.02-1.27,0.21-1.22,1.16
			c0.07,1.42,0.05,2.85,0.01,4.27c-0.02,0.71,0.26,0.94,0.95,0.93c2.13-0.03,4.26,0.04,6.39-0.03c1.05-0.04,1.21,0.43,1.22,1.31
			c0.02,0.93-0.28,1.32-1.26,1.29c-2.05-0.05-4.11,0.01-6.16-0.03c-0.85-0.02-1.18,0.26-1.15,1.13c0.05,1.46,0.05,2.93,0,4.39
			c-0.02,0.75,0.25,1.01,1.01,1c2.32-0.03,4.65,0.05,6.97-0.03c1.13-0.04,1.14,0.55,1.14,1.36c0.01,0.83-0.05,1.37-1.16,1.35
			c-3.21-0.07-6.43-0.05-9.64-0.01c-0.92,0.01-1.22-0.28-1.21-1.19C26.72,50.07,26.7,46.99,26.7,43.91z"/>
		<path d="M226.06,42.59c0.04,0.59,0.05,1.08,0.1,1.57c0.07,0.75-0.26,1.02-1.01,1.01c-2.05-0.03-4.11,0.03-6.16-0.03
			c-1.03-0.03-1.38,0.35-1.33,1.35c0.06,1.34,0.05,2.7,0,4.04c-0.03,0.84,0.27,1.16,1.14,1.15c2.25-0.04,4.49,0.02,6.74-0.03
			c0.99-0.02,1.27,0.37,1.27,1.29c-0.01,0.91-0.15,1.43-1.27,1.41c-3.18-0.06-6.35-0.05-9.53,0c-1,0.02-1.26-0.39-1.26-1.3
			c0.02-6.05,0.02-12.09,0-18.14c0-0.91,0.24-1.32,1.25-1.3c3.14,0.05,6.28,0.06,9.41,0c1.05-0.02,1.1,0.49,1.09,1.28
			c-0.01,0.78,0.06,1.43-1.1,1.39c-2.17-0.07-4.34,0.01-6.51-0.03c-0.88-0.02-1.28,0.24-1.25,1.17c0.05,1.35,0.06,2.7,0,4.04
			c-0.05,0.95,0.36,1.17,1.24,1.16C221.24,42.56,223.6,42.59,226.06,42.59z"/>
		<path d="M83.13,45.27c0,2.58-0.05,5.16,0.02,7.74c0.03,1.13-0.44,1.34-1.45,1.35c-1.04,0.01-1.54-0.21-1.52-1.39
			c0.05-5.12-0.01-10.24,0.05-15.36c0.01-1.13-0.38-1.49-1.48-1.44c-1.55,0.07-3.1-0.02-4.64,0.03c-1.02,0.04-1.1-0.51-1.1-1.31
			c0-0.8,0.11-1.29,1.12-1.28c5.03,0.04,10.07,0.04,15.1,0c1.01-0.01,1.12,0.46,1.13,1.27c0.01,0.87-0.14,1.38-1.19,1.34
			c-1.55-0.07-3.1,0.03-4.64-0.03c-1.05-0.05-1.44,0.28-1.41,1.37C83.17,40.11,83.13,42.69,83.13,45.27z"/>
		<path d="M159.55,33.74c-0.34,0.49-0.54,0.81-0.77,1.11c-2,2.54-4.04,5.06-5.99,7.64c-0.38,0.51-0.65,1.23-0.67,1.87
			c-0.07,2.88-0.09,5.77-0.01,8.66c0.03,1.27-0.61,1.31-1.58,1.33c-0.99,0.02-1.5-0.18-1.48-1.33c0.07-2.77-0.01-5.54,0.04-8.31
			c0.02-0.99-0.26-1.76-0.89-2.52c-1.97-2.42-3.89-4.89-5.81-7.34c-0.25-0.31-0.44-0.67-0.75-1.13c1.92-0.22,3.47-0.31,4.59,1.52
			c1.02,1.66,2.4,3.1,3.57,4.68c0.56,0.76,0.96,0.7,1.5-0.01c1.19-1.56,2.57-3.01,3.6-4.66C156.04,33.46,157.56,33.45,159.55,33.74z
			"/>
		<path class="st0" d="M100.47,39.4c0-0.65,0.05-1.31-0.01-1.95c-0.12-1.15,0.41-1.52,1.49-1.38c0.61,0.08,1.23,0.1,1.84,0.21
			c1.9,0.33,2.83,1.43,2.76,3.21c-0.07,1.81-1.19,2.94-3.05,3.11c-3.01,0.26-3.01,0.26-3.01-2.73
			C100.47,39.71,100.47,39.55,100.47,39.4z"/>
		<path class="st0" d="M8.55,42.66c-1.94,0.07-1.94,0.07-1.94-1.83c0-1.23,0.02-2.46,0-3.69c-0.02-0.79,0.34-1.14,1.12-1.07
			c0.65,0.05,1.32,0.05,1.96,0.15c2.23,0.36,3.14,1.42,3.03,3.45c-0.1,1.74-1.3,2.8-3.35,2.94C9.09,42.63,8.82,42.65,8.55,42.66z"/>
		<path class="st0" d="M129.53,38.34c1.03,2.31,2.06,4.61,3.19,7.13c-2.25,0-4.22,0-6.46,0c1.01-2.46,1.96-4.77,2.9-7.07
			C129.29,38.37,129.41,38.36,129.53,38.34z"/>
		<path class="st0" d="M168.44,45.44c1.02-2.47,1.95-4.72,2.89-6.97c0.12-0.03,0.25-0.06,0.37-0.09c1.04,2.29,2.08,4.58,3.22,7.07
			C172.72,45.44,170.72,45.44,168.44,45.44z"/>
	</g>
</g>
</svg>
