<?xml version="1.0" encoding="utf-8"?>
<!-- Generator: Adobe Illustrator 24.1.0, SVG Export Plug-In . SVG Version: 6.00 Build 0)  -->
<svg version="1.1" id="Layer_1" xmlns="http://www.w3.org/2000/svg" xmlns:xlink="http://www.w3.org/1999/xlink" x="0px" y="0px"
	 viewBox="0 0 230 90" style="enable-background:new 0 0 230 90;" xml:space="preserve">
<style type="text/css">
	.st0{fill:#FFFFFF;}
</style>
<g id="p6HKEu.tif">
	<g>
		<path class="st0" d="M94.29,50.77c0-4.67,0-9.29,0-13.98c0.5,0,0.94,0,1.42,0c-0.03-0.23-0.05-0.39-0.08-0.59
			c-1.67,0-3.28,0.01-4.9-0.01c-0.47,0-0.51,0.21-0.4,0.63c0.44,0,0.85,0,1.3,0c0,2.18,0,4.29,0,6.43c-2.01,0-3.98,0-5.98,0
			c0-2.15,0-4.26,0-6.45c0.5,0,0.96,0,1.42,0c0.04-0.08,0.07-0.15,0.11-0.23c-0.18-0.12-0.35-0.35-0.53-0.35
			c-1.51-0.03-3.01-0.01-4.52-0.02c-0.46,0-0.53,0.2-0.38,0.64c0.41,0,0.83,0,1.25,0c0,4.7,0,9.32,0,14c-0.33,0-0.63-0.03-0.91,0.01
			c-0.15,0.02-0.28,0.19-0.41,0.29c0.14,0.09,0.29,0.26,0.43,0.27c1.51,0.02,3.01,0.02,4.52,0c0.16,0,0.32-0.19,0.48-0.3
			c-0.17-0.09-0.34-0.23-0.52-0.26c-0.3-0.04-0.61-0.01-0.94-0.01c0-2.39,0-4.69,0-7.03c2.02,0,4,0,5.97,0c0,2.37,0,4.68,0,7.03
			c-0.37,0-0.69-0.03-0.99,0.01c-0.13,0.02-0.23,0.18-0.35,0.28c0.12,0.09,0.24,0.26,0.37,0.27c1.66,0.02,3.32,0.01,4.98,0.01
			C95.65,50.97,95.65,50.97,94.29,50.77z M174.33,36.68c0,4.79,0,9.5,0,14.27c-0.48,0-0.89,0-1.31,0c-0.03,0.06-0.05,0.12-0.08,0.18
			c0.14,0.09,0.28,0.26,0.43,0.26c1.6,0.02,3.19,0.02,4.79,0c0.15,0,0.3-0.17,0.45-0.26c-0.03-0.08-0.06-0.16-0.1-0.24
			c-0.57,0-1.14,0-1.69,0c0-2.42,0-4.76,0-7.2c0.21,0.25,0.35,0.42,0.49,0.59c1.66,2.17,3.32,4.34,4.99,6.5
			c0.18,0.23,0.45,0.51,0.7,0.52c1.14,0.06,2.28,0.02,3.43,0.02c0.03-0.07,0.06-0.14,0.1-0.21c-0.17-0.1-0.34-0.29-0.5-0.27
			c-0.49,0.04-0.77-0.17-1.05-0.55c-1.56-2.08-3.14-4.14-4.71-6.21c-0.1-0.13-0.16-0.28-0.2-0.36c1.02-0.3,2.04-0.51,2.97-0.91
			c1.19-0.51,1.94-1.44,1.98-2.8c0.06-1.87-1.01-3.35-3.04-3.55c-2.87-0.28-5.78-0.21-8.67-0.27c-0.11,0-0.23,0.21-0.34,0.32
			c0.04,0.05,0.07,0.1,0.11,0.14C173.47,36.68,173.87,36.68,174.33,36.68z M12.93,43.64c0.29-0.04,0.49-0.05,0.68-0.11
			c0.9-0.26,1.84-0.44,2.67-0.83c0.97-0.46,1.6-1.28,1.72-2.41c0.2-2-0.93-3.63-3.1-3.83c-2.85-0.26-5.74-0.19-8.61-0.25
			c-0.12,0-0.24,0.2-0.36,0.31C5.96,36.59,6,36.64,6.03,36.7c0.44,0,0.88,0,1.35,0c0,4.76,0,9.45,0,14.21c-0.48,0-0.92,0-1.36,0
			c-0.04,0.07-0.07,0.14-0.11,0.21c0.15,0.1,0.29,0.27,0.44,0.27c1.62,0.02,3.24,0.02,4.85,0c0.14,0,0.28-0.18,0.43-0.28
			c-0.04-0.07-0.07-0.14-0.11-0.21c-0.53,0-1.06,0-1.58,0c0-2.41,0-4.76,0-7.21c0.14,0.16,0.2,0.22,0.25,0.29
			c1.76,2.29,3.52,4.59,5.28,6.88c0.14,0.18,0.35,0.44,0.53,0.44c1.18,0.04,2.36,0.02,3.55,0.02c0.03-0.08,0.05-0.17,0.08-0.25
			c-0.18-0.08-0.36-0.24-0.54-0.23c-0.48,0.03-0.78-0.14-1.06-0.53c-0.62-0.88-1.31-1.71-1.96-2.56
			C15.05,46.41,14.02,45.07,12.93,43.64z M196.01,50.8c0-2.4,0-4.74,0-7.12c0.65,0,1.26-0.02,1.86,0c0.75,0.03,1.28,0.4,1.54,1.1
			c0.19,0.5,0.31,1.03,0.49,1.53c0.05,0.13,0.22,0.22,0.34,0.33c0.08-0.13,0.24-0.26,0.24-0.39c0.02-1.91,0.02-3.81,0-5.72
			c0-0.13-0.16-0.26-0.24-0.38c-0.11,0.11-0.28,0.21-0.32,0.35c-0.17,0.48-0.23,1.02-0.47,1.46c-0.23,0.4-0.59,0.9-0.99,1
			c-0.78,0.2-1.62,0.16-2.46,0.22c0-2.24,0-4.34,0-6.52c1.53,0,3.03,0.02,4.53-0.01c0.77-0.02,1.31,0.28,1.59,0.98
			c0.39,0.97,0.73,1.97,1.12,2.94c0.08,0.19,0.3,0.31,0.46,0.47c0.04-0.05,0.09-0.09,0.13-0.14c0-1.54,0-3.07,0-4.7
			c-0.28,0-0.52,0-0.76,0c-2.14,0-4.27,0-6.41,0c-1.37,0-2.74-0.01-4.11,0.01c-0.18,0-0.35,0.17-0.53,0.25
			c0.03,0.08,0.06,0.16,0.1,0.24c0.44,0,0.88,0,1.34,0c0,4.76,0,9.46,0,14.21c-0.48,0-0.92,0-1.36,0c-0.03,0.08-0.06,0.16-0.08,0.24
			c0.19,0.08,0.38,0.24,0.57,0.24c3.67,0.01,7.33,0.01,11,0.01c0.15,0,0.3-0.03,0.53-0.06c0-0.42,0-0.82,0-1.22
			c0-1.32,0.01-2.64-0.01-3.97c0-0.14-0.13-0.29-0.2-0.43c-0.14,0.1-0.31,0.19-0.42,0.32c-0.08,0.09-0.08,0.25-0.13,0.38
			c-0.47,1.16-0.87,2.35-1.45,3.45c-0.22,0.42-0.84,0.84-1.31,0.88C199.08,50.87,197.57,50.8,196.01,50.8z M64.46,36.7
			c0,4.74,0,9.41,0,14.13c-0.33,0-0.63-0.03-0.91,0.01c-0.19,0.03-0.36,0.17-0.54,0.27c0.03,0.05,0.07,0.1,0.1,0.15
			c1.97,0,3.95,0,5.92,0c0.01-0.09,0.02-0.18,0.03-0.27c-0.68-0.03-1.37-0.07-2.07-0.1c0-2.31,0-4.58,0-6.91c0.87,0,1.7,0,2.53,0
			c1.31,0,2.6-0.1,3.81-0.66c2.25-1.03,2.8-3.92,0.96-5.57c-0.67-0.6-1.6-1.2-2.45-1.26c-2.82-0.22-5.65-0.21-8.48-0.27
			c-0.12,0-0.24,0.2-0.36,0.31c0.04,0.06,0.07,0.11,0.11,0.17C63.55,36.7,63.99,36.7,64.46,36.7z M213.28,50.84
			c0-4.52,0-8.96,0-13.54c0.22,0.34,0.36,0.54,0.49,0.74c2.74,4.28,5.47,8.57,8.2,12.86c0.23,0.37,0.44,0.68,1.03,0.41
			c0-4.8,0-9.62,0-14.49c0.56,0,1.02,0,1.51,0c0-0.21,0-0.38,0-0.6c-1.22,0-2.41-0.02-3.6,0.02c-0.15,0-0.29,0.28-0.43,0.44
			c0.05,0.06,0.1,0.12,0.15,0.18c0.57,0,1.15,0,1.73,0c0,3.43,0,6.79,0,10.3c-0.22-0.34-0.37-0.55-0.51-0.77
			c-2.02-3.22-4.04-6.45-6.08-9.67c-0.14-0.22-0.45-0.47-0.7-0.48c-1.19-0.05-2.38-0.01-3.57-0.03c-0.48-0.01-0.51,0.21-0.39,0.62
			c0.48,0,0.94,0,1.45,0c0,4.68,0,9.31,0,13.93c-1.47,0.28-1.47,0.28-1.43,0.66c1.2,0,2.42,0.01,3.63-0.01
			c0.13,0,0.25-0.17,0.38-0.26c-0.14-0.1-0.27-0.28-0.41-0.29C214.27,50.81,213.8,50.84,213.28,50.84z M128.01,51.37
			c0-1.89,0.01-3.71-0.01-5.52c0-0.2-0.16-0.39-0.24-0.59c-0.13,0.18-0.31,0.34-0.38,0.53c-0.5,1.36-0.93,2.75-1.48,4.08
			c-0.16,0.38-0.65,0.83-1.02,0.86c-1.37,0.1-2.76,0.04-4.14,0.04c0-4.72,0-9.39,0-14.11c0.77,0,1.49,0,2.2,0
			c0.03-0.07,0.06-0.14,0.09-0.21c-0.15-0.09-0.31-0.26-0.46-0.26c-1.8-0.02-3.6-0.02-5.39,0c-0.16,0-0.32,0.16-0.47,0.25
			c0.03,0.08,0.06,0.16,0.09,0.24c0.46,0,0.92,0,1.39,0c0,4.78,0,9.47,0,14.19c-0.5,0.03-0.95,0.05-1.41,0.07
			c-0.02,0.09-0.03,0.17-0.05,0.26c0.24,0.06,0.47,0.18,0.71,0.18c3.3,0.01,6.61,0.01,9.91,0.01
			C127.53,51.41,127.72,51.39,128.01,51.37z M164.37,36.66c0,3.87,0.05,7.63-0.03,11.39c-0.03,1.36-0.84,2.37-2.15,2.82
			c-2.04,0.7-4.02,0.17-4.54-2.03c-0.11-0.45-0.15-0.93-0.15-1.4c-0.01-3.34-0.01-6.68-0.01-10.02c0-0.24,0-0.48,0-0.77
			c0.42,0,0.76,0.01,1.09,0c0.56-0.01,0.56-0.02,0.42-0.61c-1.79,0-3.58,0-5.51,0c0.32,0.85,1.09,0.25,1.53,0.64
			c0,0.22,0,0.48,0,0.75c0,3.32-0.02,6.63,0.01,9.95c0.02,2.03,0.96,3.29,2.92,3.82c0.85,0.23,1.77,0.29,2.66,0.3
			c2.59,0.04,4.56-1.56,4.46-4.53c-0.11-3.18-0.02-6.36-0.02-9.55c0-0.24,0-0.47,0-0.76c0.41,0,0.73-0.01,1.04,0
			c0.52,0.03,0.43-0.29,0.39-0.6c-1.4,0-2.76,0-4.1,0c-0.14,0.45-0.01,0.63,0.43,0.61C163.32,36.64,163.81,36.66,164.37,36.66z
			 M45.84,50.94c-0.51,0-0.95,0-1.39,0c-0.02,0.08-0.05,0.16-0.07,0.25c0.2,0.08,0.4,0.22,0.61,0.22c3.37,0.01,6.74,0.01,10.11,0.01
			c0.17,0,0.34-0.04,0.52-0.06c0-2.03,0-4.02,0-6.01c-0.06-0.04-0.12-0.07-0.18-0.11c-0.12,0.17-0.29,0.31-0.36,0.5
			c-0.48,1.37-0.89,2.76-1.43,4.1c-0.15,0.38-0.63,0.86-0.99,0.89c-1.42,0.1-2.85,0.04-4.26,0.04c0-4.72,0-9.38,0-14.1
			c0.77,0,1.49,0,2.2,0c0.03-0.07,0.06-0.14,0.09-0.2c-0.15-0.09-0.31-0.26-0.46-0.26c-1.8-0.02-3.6-0.02-5.39,0
			c-0.16,0-0.31,0.16-0.47,0.25c0.03,0.06,0.06,0.13,0.09,0.19c0.46,0.02,0.91,0.05,1.39,0.07C45.84,41.48,45.84,46.15,45.84,50.94z
			 M147.98,51.15c0.01-0.1,0.03-0.2,0.04-0.31c-1.02,0.39-1.07-0.32-1.26-0.85c-1.57-4.42-3.15-8.83-4.7-13.25
			c-0.17-0.5-0.42-0.63-0.92-0.61c-0.5,0.01-0.85,0.03-1.06,0.62c-1.54,4.33-3.16,8.64-4.68,12.98c-0.3,0.87-0.64,1.42-1.64,1.23
			c-0.03-0.01-0.08,0.04-0.25,0.14c0.21,0.13,0.35,0.31,0.5,0.31c1.17,0.02,2.34,0.02,3.5,0c0.14,0,0.28-0.18,0.43-0.28
			c-0.04-0.07-0.07-0.14-0.11-0.21c-0.7,0-1.41,0-2.18,0c0.65-1.83,1.26-3.58,1.91-5.31c0.06-0.15,0.37-0.28,0.57-0.29
			c1.3-0.03,2.61,0.01,3.91-0.03c0.46-0.01,0.62,0.18,0.74,0.56c0.5,1.5,1.03,3,1.54,4.5c0.06,0.18,0.09,0.36,0.15,0.61
			c-0.6,0-1.11,0-1.62,0c-0.03,0.07-0.05,0.14-0.08,0.21c0.17,0.08,0.33,0.24,0.5,0.24c1.42,0.02,2.83,0.02,4.25,0
			C147.67,51.4,147.82,51.24,147.98,51.15z M28.4,51.14c-0.03-0.07-0.06-0.15-0.09-0.22c-0.71,0-1.41,0-2.21,0
			c0.66-1.86,1.28-3.62,1.93-5.38c0.05-0.13,0.35-0.24,0.54-0.24c0.85-0.03,1.71-0.02,2.56-0.01c0.63,0.01,1.41-0.19,1.84,0.11
			c0.42,0.3,0.48,1.1,0.69,1.69c0.44,1.26,0.87,2.51,1.34,3.85c-0.61,0-1.12,0-1.63,0c0.03,0.25,0.15,0.45,0.26,0.45
			c1.51,0.02,3.01,0.02,4.52-0.01c0.1,0,0.19-0.22,0.29-0.34c-0.88,0.1-1.06-0.43-1.26-1.01c-1.53-4.41-3.08-8.81-4.62-13.22
			c-0.15-0.43-0.28-0.74-0.86-0.7c-0.53,0.04-0.92,0.01-1.16,0.68c-1.49,4.26-3.07,8.48-4.54,12.75c-0.32,0.94-0.63,1.63-1.78,1.41
			c-0.03,0-0.06,0.05-0.2,0.18c0.2,0.11,0.35,0.26,0.51,0.26c1.15,0.02,2.29,0.02,3.44,0C28.1,51.4,28.25,51.23,28.4,51.14z"/>
		<path d="M94.29,50.77c1.37,0.2,1.37,0.2,1.33,0.64c-1.66,0-3.32,0.01-4.98-0.01c-0.12,0-0.24-0.17-0.37-0.27
			c0.11-0.1,0.22-0.27,0.35-0.28c0.31-0.04,0.63-0.01,0.99-0.01c0-2.35,0-4.66,0-7.03c-1.98,0-3.96,0-5.97,0c0,2.34,0,4.64,0,7.03
			c0.33,0,0.64-0.03,0.94,0.01c0.18,0.03,0.35,0.17,0.52,0.26c-0.16,0.1-0.32,0.29-0.48,0.3c-1.51,0.02-3.01,0.02-4.52,0
			c-0.15,0-0.29-0.17-0.43-0.27c0.14-0.1,0.26-0.26,0.41-0.29c0.28-0.05,0.57-0.01,0.91-0.01c0-4.68,0-9.3,0-14
			c-0.42,0-0.84,0-1.25,0c-0.15-0.44-0.08-0.64,0.38-0.64c1.51,0.01,3.01-0.01,4.52,0.02c0.18,0,0.36,0.23,0.53,0.35
			c-0.04,0.08-0.07,0.15-0.11,0.23c-0.46,0-0.92,0-1.42,0c0,2.19,0,4.3,0,6.45c2,0,3.97,0,5.98,0c0-2.14,0-4.25,0-6.43
			c-0.44,0-0.86,0-1.3,0c-0.11-0.42-0.08-0.64,0.4-0.63c1.62,0.01,3.23,0.01,4.9,0.01c0.03,0.2,0.05,0.36,0.08,0.59
			c-0.48,0-0.92,0-1.42,0C94.29,41.47,94.29,46.1,94.29,50.77z"/>
		<path d="M174.33,36.68c-0.46,0-0.86,0-1.26,0c-0.04-0.05-0.07-0.1-0.11-0.14c0.11-0.11,0.23-0.32,0.34-0.32
			c2.89,0.06,5.8-0.01,8.67,0.27c2.03,0.2,3.1,1.68,3.04,3.55c-0.04,1.36-0.79,2.29-1.98,2.8c-0.93,0.4-1.95,0.6-2.97,0.91
			c0.04,0.07,0.11,0.23,0.2,0.36c1.57,2.07,3.16,4.13,4.71,6.21c0.28,0.37,0.56,0.59,1.05,0.55c0.16-0.01,0.33,0.18,0.5,0.27
			c-0.03,0.07-0.06,0.14-0.1,0.21c-1.14,0-2.29,0.03-3.43-0.02c-0.24-0.01-0.52-0.3-0.7-0.52c-1.68-2.16-3.33-4.34-4.99-6.5
			c-0.13-0.17-0.28-0.34-0.49-0.59c0,2.44,0,4.78,0,7.2c0.55,0,1.12,0,1.69,0c0.03,0.08,0.06,0.16,0.1,0.24
			c-0.15,0.09-0.3,0.26-0.45,0.26c-1.6,0.02-3.19,0.02-4.79,0c-0.14,0-0.28-0.17-0.43-0.26c0.03-0.06,0.05-0.12,0.08-0.18
			c0.42,0,0.83,0,1.31,0C174.33,46.18,174.33,41.48,174.33,36.68z M176.88,43.36c1.02-0.08,2-0.07,2.93-0.26
			c1.62-0.33,2.53-1.65,2.5-3.42c-0.03-1.49-1.01-2.74-2.51-2.95c-0.94-0.13-1.92-0.02-2.92-0.02
			C176.88,38.87,176.88,41.03,176.88,43.36z"/>
		<path d="M12.93,43.64c1.09,1.43,2.12,2.77,3.16,4.12c0.66,0.85,1.34,1.68,1.96,2.56c0.28,0.39,0.58,0.57,1.06,0.53
			c0.17-0.01,0.36,0.15,0.54,0.23c-0.03,0.08-0.05,0.17-0.08,0.25c-1.18,0-2.37,0.02-3.55-0.02c-0.18-0.01-0.39-0.26-0.53-0.44
			c-1.77-2.29-3.52-4.59-5.28-6.88c-0.05-0.07-0.11-0.13-0.25-0.29c0,2.45,0,4.79,0,7.21c0.52,0,1.05,0,1.58,0
			c0.04,0.07,0.07,0.14,0.11,0.21c-0.14,0.1-0.28,0.28-0.43,0.28c-1.62,0.02-3.24,0.02-4.85,0c-0.15,0-0.29-0.18-0.44-0.27
			c0.04-0.07,0.07-0.14,0.11-0.21c0.44,0,0.88,0,1.36,0c0-4.76,0-9.45,0-14.21c-0.47,0-0.91,0-1.35,0C6,36.64,5.96,36.59,5.93,36.53
			c0.12-0.11,0.24-0.31,0.36-0.31c2.87,0.05,5.76-0.02,8.61,0.25c2.17,0.2,3.29,1.83,3.1,3.83c-0.11,1.13-0.75,1.95-1.72,2.41
			c-0.84,0.39-1.78,0.57-2.67,0.83C13.42,43.59,13.22,43.59,12.93,43.64z M9.92,43.36c1.01-0.08,1.96-0.07,2.87-0.24
			c1.54-0.29,2.36-1.33,2.53-2.97c0.14-1.43-0.51-2.69-1.72-3.19c-1.2-0.5-2.45-0.26-3.72-0.27c0,2.12,0,4.16,0,6.19
			C9.89,42.99,9.9,43.1,9.92,43.36z"/>
		<path d="M196.01,50.8c1.57,0,3.08,0.07,4.57-0.04c0.47-0.03,1.09-0.46,1.31-0.88c0.58-1.1,0.98-2.29,1.45-3.45
			c0.05-0.12,0.05-0.28,0.13-0.38c0.11-0.13,0.28-0.22,0.42-0.32c0.07,0.14,0.2,0.29,0.2,0.43c0.02,1.32,0.01,2.64,0.01,3.97
			c0,0.4,0,0.8,0,1.22c-0.23,0.03-0.38,0.06-0.53,0.06c-3.67,0-7.33,0.01-11-0.01c-0.19,0-0.38-0.16-0.57-0.24
			c0.03-0.08,0.06-0.16,0.08-0.24c0.44,0,0.88,0,1.36,0c0-4.76,0-9.45,0-14.21c-0.46,0-0.9,0-1.34,0c-0.03-0.08-0.06-0.16-0.1-0.24
			c0.18-0.09,0.35-0.25,0.53-0.25c1.37-0.02,2.74-0.01,4.11-0.01c2.14,0,4.27,0,6.41,0c0.24,0,0.48,0,0.76,0c0,1.63,0,3.16,0,4.7
			c-0.04,0.05-0.09,0.09-0.13,0.14c-0.16-0.15-0.38-0.28-0.46-0.47c-0.39-0.97-0.73-1.97-1.12-2.94c-0.28-0.7-0.82-1-1.59-0.98
			c-1.5,0.03-3,0.01-4.53,0.01c0,2.18,0,4.28,0,6.52c0.84-0.06,1.68-0.02,2.46-0.22c0.39-0.1,0.76-0.6,0.99-1
			c0.25-0.44,0.3-0.97,0.47-1.46c0.05-0.14,0.21-0.23,0.32-0.35c0.09,0.13,0.24,0.26,0.24,0.38c0.02,1.91,0.02,3.81,0,5.72
			c0,0.13-0.16,0.26-0.24,0.39c-0.12-0.11-0.29-0.2-0.34-0.33c-0.18-0.5-0.3-1.03-0.49-1.53c-0.26-0.7-0.8-1.07-1.54-1.1
			c-0.6-0.02-1.21,0-1.86,0C196.01,46.06,196.01,48.4,196.01,50.8z"/>
		<path d="M64.46,36.7c-0.47,0-0.91,0-1.35,0c-0.04-0.06-0.07-0.11-0.11-0.17c0.12-0.11,0.24-0.31,0.36-0.31
			c2.83,0.06,5.66,0.04,8.48,0.27c0.85,0.07,1.78,0.66,2.45,1.26c1.84,1.65,1.28,4.54-0.96,5.57c-1.22,0.56-2.5,0.66-3.81,0.66
			c-0.83,0-1.65,0-2.53,0c0,2.34,0,4.61,0,6.91c0.7,0.04,1.39,0.07,2.07,0.1c-0.01,0.09-0.02,0.18-0.03,0.27c-1.97,0-3.95,0-5.92,0
			c-0.03-0.05-0.07-0.1-0.1-0.15c0.18-0.09,0.35-0.24,0.54-0.27c0.28-0.05,0.58-0.01,0.91-0.01C64.46,46.11,64.46,41.44,64.46,36.7z
			 M66.97,43.67c1.02,0,1.96,0.04,2.9-0.01c1.53-0.07,2.43-0.65,2.68-1.78c0.14-0.65,0.21-1.33,0.17-1.99
			c-0.11-1.61-0.85-2.6-2.27-2.84c-1.13-0.19-2.3-0.14-3.48-0.2C66.97,39.19,66.97,41.4,66.97,43.67z"/>
		<path d="M213.28,50.84c0.52,0,0.99-0.02,1.46,0.01c0.14,0.01,0.27,0.19,0.41,0.29c-0.13,0.09-0.25,0.26-0.38,0.26
			c-1.21,0.02-2.42,0.01-3.63,0.01c-0.04-0.38-0.04-0.38,1.43-0.66c0-4.62,0-9.25,0-13.93c-0.51,0-0.97,0-1.45,0
			c-0.12-0.41-0.09-0.63,0.39-0.62c1.19,0.02,2.38-0.02,3.57,0.03c0.24,0.01,0.55,0.26,0.7,0.48c2.04,3.21,4.06,6.44,6.08,9.67
			c0.14,0.22,0.29,0.44,0.51,0.77c0-3.51,0-6.87,0-10.3c-0.58,0-1.15,0-1.73,0c-0.05-0.06-0.1-0.12-0.15-0.18
			c0.14-0.15,0.28-0.43,0.43-0.44c1.19-0.04,2.38-0.02,3.6-0.02c0,0.22,0,0.39,0,0.6c-0.49,0-0.95,0-1.51,0c0,4.87,0,9.69,0,14.49
			c-0.59,0.27-0.8-0.04-1.03-0.41c-2.73-4.29-5.47-8.57-8.2-12.86c-0.13-0.2-0.27-0.41-0.49-0.74
			C213.28,41.88,213.28,46.31,213.28,50.84z"/>
		<path d="M128.01,51.37c-0.29,0.02-0.49,0.04-0.68,0.04c-3.3,0-6.61,0.01-9.91-0.01c-0.24,0-0.47-0.12-0.71-0.18
			c0.02-0.09,0.03-0.17,0.05-0.26c0.45-0.02,0.91-0.05,1.41-0.07c0-4.72,0-9.42,0-14.19c-0.47,0-0.93,0-1.39,0
			c-0.03-0.08-0.06-0.16-0.09-0.24c0.16-0.09,0.32-0.25,0.47-0.25c1.8-0.02,3.6-0.02,5.39,0c0.15,0,0.31,0.17,0.46,0.26
			c-0.03,0.07-0.06,0.14-0.09,0.21c-0.71,0-1.43,0-2.2,0c0,4.72,0,9.38,0,14.11c1.38,0,2.77,0.06,4.14-0.04
			c0.37-0.03,0.86-0.48,1.02-0.86c0.56-1.34,0.99-2.72,1.48-4.08c0.07-0.2,0.25-0.36,0.38-0.53c0.09,0.2,0.24,0.39,0.24,0.59
			C128.02,47.67,128.01,49.48,128.01,51.37z"/>
		<path d="M164.37,36.66c-0.56,0-1.05-0.02-1.54,0.01c-0.44,0.02-0.57-0.16-0.43-0.61c1.33,0,2.69,0,4.1,0
			c0.04,0.32,0.13,0.63-0.39,0.6c-0.31-0.02-0.63,0-1.04,0c0,0.29,0,0.52,0,0.76c0,3.18-0.08,6.37,0.02,9.55
			c0.1,2.97-1.87,4.57-4.46,4.53c-0.89-0.01-1.81-0.07-2.66-0.3c-1.96-0.53-2.91-1.79-2.92-3.82c-0.03-3.32-0.01-6.63-0.01-9.95
			c0-0.26,0-0.53,0-0.75c-0.44-0.39-1.22,0.21-1.53-0.64c1.93,0,3.72,0,5.51,0c0.14,0.6,0.14,0.6-0.42,0.61
			c-0.33,0.01-0.67,0-1.09,0c0,0.29,0,0.53,0,0.77c0,3.34-0.01,6.68,0.01,10.02c0,0.47,0.04,0.94,0.15,1.4
			c0.52,2.2,2.5,2.73,4.54,2.03c1.31-0.45,2.12-1.47,2.15-2.82C164.42,44.29,164.37,40.52,164.37,36.66z"/>
		<path d="M45.84,50.94c0-4.79,0-9.46,0-14.21c-0.47-0.03-0.93-0.05-1.39-0.07c-0.03-0.06-0.06-0.13-0.09-0.19
			c0.16-0.09,0.31-0.25,0.47-0.25c1.8-0.02,3.6-0.02,5.39,0c0.16,0,0.31,0.17,0.46,0.26c-0.03,0.07-0.06,0.14-0.09,0.2
			c-0.71,0-1.43,0-2.2,0c0,4.71,0,9.38,0,14.1c1.41,0,2.84,0.06,4.26-0.04c0.36-0.03,0.84-0.51,0.99-0.89
			c0.54-1.34,0.95-2.73,1.43-4.1c0.06-0.19,0.24-0.33,0.36-0.5c0.06,0.04,0.12,0.07,0.18,0.11c0,1.99,0,3.97,0,6.01
			c-0.18,0.02-0.35,0.06-0.52,0.06c-3.37,0-6.74,0.01-10.11-0.01c-0.2,0-0.4-0.14-0.61-0.22c0.02-0.08,0.05-0.16,0.07-0.25
			C44.89,50.94,45.33,50.94,45.84,50.94z"/>
		<path d="M147.98,51.15c-0.15,0.09-0.31,0.25-0.46,0.25c-1.42,0.02-2.83,0.02-4.25,0c-0.17,0-0.33-0.16-0.5-0.24
			c0.03-0.07,0.05-0.14,0.08-0.21c0.51,0,1.02,0,1.62,0c-0.06-0.25-0.09-0.44-0.15-0.61c-0.51-1.5-1.04-2.99-1.54-4.5
			c-0.13-0.38-0.29-0.57-0.74-0.56c-1.3,0.04-2.61,0-3.91,0.03c-0.2,0-0.52,0.14-0.57,0.29c-0.65,1.73-1.26,3.48-1.91,5.31
			c0.78,0,1.48,0,2.18,0c0.04,0.07,0.07,0.14,0.11,0.21c-0.14,0.1-0.28,0.28-0.43,0.28c-1.17,0.02-2.34,0.02-3.5,0
			c-0.15,0-0.29-0.17-0.5-0.31c0.18-0.1,0.22-0.15,0.25-0.14c1,0.19,1.34-0.36,1.64-1.23c1.52-4.34,3.14-8.65,4.68-12.98
			c0.21-0.59,0.56-0.6,1.06-0.62c0.5-0.01,0.74,0.11,0.92,0.61c1.55,4.42,3.12,8.84,4.7,13.25c0.19,0.53,0.24,1.24,1.26,0.85
			C148,50.95,147.99,51.05,147.98,51.15z M142.39,44.98c-0.75-2.13-1.48-4.22-2.27-6.49c-0.82,2.27-1.57,4.35-2.34,6.49
			C139.34,44.98,140.82,44.98,142.39,44.98z"/>
		<path d="M28.4,51.14c-0.15,0.09-0.3,0.26-0.46,0.26c-1.15,0.02-2.29,0.02-3.44,0c-0.16,0-0.31-0.16-0.51-0.26
			c0.14-0.13,0.18-0.18,0.2-0.18c1.15,0.22,1.46-0.48,1.78-1.41c1.47-4.26,3.05-8.49,4.54-12.75c0.23-0.66,0.62-0.64,1.16-0.68
			c0.58-0.04,0.71,0.27,0.86,0.7c1.53,4.41,3.09,8.81,4.62,13.22c0.2,0.58,0.38,1.12,1.26,1.01c-0.1,0.12-0.19,0.33-0.29,0.34
			c-1.51,0.02-3.01,0.02-4.52,0.01c-0.12,0-0.23-0.2-0.26-0.45c0.51,0,1.02,0,1.63,0c-0.46-1.34-0.9-2.6-1.34-3.85
			c-0.21-0.59-0.27-1.39-0.69-1.69c-0.42-0.3-1.21-0.1-1.84-0.11c-0.85-0.01-1.71-0.02-2.56,0.01c-0.19,0.01-0.49,0.11-0.54,0.24
			c-0.65,1.75-1.27,3.52-1.93,5.38c0.8,0,1.51,0,2.21,0C28.34,50.99,28.37,51.07,28.4,51.14z M30.7,38.67
			c-0.05,0.01-0.1,0.01-0.14,0.02c-0.75,2.08-1.49,4.16-2.24,6.26c1.58,0,3.04,0,4.59,0C32.15,42.81,31.42,40.74,30.7,38.67z"/>
		<path class="st0" d="M176.88,43.36c0-2.33,0-4.49,0-6.65c1,0,1.98-0.11,2.92,0.02c1.5,0.21,2.48,1.46,2.51,2.95
			c0.03,1.77-0.88,3.09-2.5,3.42C178.87,43.29,177.9,43.28,176.88,43.36z"/>
		<path class="st0" d="M9.92,43.36c-0.02-0.26-0.04-0.37-0.04-0.48c0-2.04,0-4.07,0-6.19c1.27,0.01,2.52-0.24,3.72,0.27
			c1.2,0.51,1.86,1.76,1.72,3.19c-0.16,1.64-0.99,2.68-2.53,2.97C11.88,43.29,10.93,43.28,9.92,43.36z"/>
		<path class="st0" d="M66.97,43.67c0-2.27,0-4.47,0-6.82c1.18,0.06,2.35,0.01,3.48,0.2c1.42,0.24,2.16,1.23,2.27,2.84
			c0.05,0.66-0.02,1.34-0.17,1.99c-0.25,1.13-1.15,1.71-2.68,1.78C68.93,43.7,67.99,43.67,66.97,43.67z"/>
		<path class="st0" d="M142.39,44.98c-1.56,0-3.05,0-4.61,0c0.77-2.14,1.52-4.22,2.34-6.49C140.91,40.76,141.64,42.84,142.39,44.98z
			"/>
		<path class="st0" d="M30.7,38.67c0.72,2.07,1.45,4.14,2.2,6.28c-1.55,0-3.01,0-4.59,0c0.75-2.1,1.5-4.18,2.24-6.26
			C30.6,38.68,30.65,38.68,30.7,38.67z"/>
	</g>
</g>
</svg>
