<?xml version="1.0" encoding="utf-8"?>
<!-- Generator: Adobe Illustrator 24.1.0, SVG Export Plug-In . SVG Version: 6.00 Build 0)  -->
<svg version="1.1" id="Layer_1" xmlns="http://www.w3.org/2000/svg" xmlns:xlink="http://www.w3.org/1999/xlink" x="0px" y="0px"
	 viewBox="0 0 230 90" style="enable-background:new 0 0 230 90;" xml:space="preserve">
<style type="text/css">
	.st0{fill:#FFFFFF;}
	.st1{fill:none;}
</style>
<g id="DZcMdc_1_">
	<g>
		<path class="st0" d="M128.86,29.38c0.05-4.66-1.21-7.99-3.58-10.04c-4.25-3.67-9.15-4.3-14.26-2.4c-7.8,2.9-10.58,13.62-4.7,20.67
			c3.86,4.62,11.15,5.06,15.78,2.53C126.75,37.6,128.69,33.44,128.86,29.38z M125.84,65.21c1.89-0.25,3.32,0.36,4.35,1.85
			c0.3,0.44,0.63,0.86,0.91,1.31c1.15,1.82,2.26,3.66,3.44,5.46c0.89,1.35,2.06,2.45,3.73,2.64c1.3,0.15,2.64,0.03,3.96,0.03
			c0.16-0.49-0.11-0.53-0.47-0.54c-1.03-0.02-1.9-0.43-2.7-1.08c-1.57-1.28-2.63-2.94-3.65-4.65c-1.16-1.96-2.12-4.07-4.13-5.4
			c2.51-1.36,3.32-2.02,4.26-3.42c1.93-2.86,1.61-7.75-3.2-9.13c-0.83-0.24-1.7-0.43-2.56-0.45c-3.02-0.07-6.05-0.06-9.07-0.06
			c-0.17,0-0.33,0.17-0.5,0.25c0.16,0.13,0.3,0.35,0.47,0.38c1.96,0.25,2.38,0.72,2.38,2.71c0,5.71,0,11.43-0.01,17.14
			c0,0.67-0.02,1.36-0.12,2.02c-0.21,1.3-0.58,1.61-1.92,1.71c-0.09,0.01-0.18,0.03-0.26,0.05c-0.19,0.51,0.07,0.55,0.45,0.55
			c2.42-0.01,4.84,0,7.26-0.02c0.18,0,0.37-0.18,0.55-0.27c-0.17-0.11-0.33-0.25-0.52-0.31c-0.18-0.06-0.38-0.01-0.58-0.03
			c-1.27-0.14-1.8-0.62-2-1.89c-0.09-0.57-0.13-1.16-0.13-1.73c-0.02-2.15-0.01-4.31-0.01-6.46
			C125.81,65.65,125.83,65.44,125.84,65.21z M143.2,41.21c-0.02-0.56-0.02-0.56-0.61-0.58c-1.72-0.08-2.42-0.53-2.49-2
			c-0.13-2.8-0.11-5.61-0.12-8.42c0-0.14,0.22-0.41,0.34-0.41c1.31,0,2.59,0.14,3.47,1.27c0.65,0.84,1.28,1.7,1.86,2.59
			c1.17,1.78,2.27,3.6,3.47,5.36c0.7,1.02,1.66,1.84,2.91,2.02c1.44,0.21,2.92,0.21,4.38,0.29c0.04-0.12,0.08-0.23,0.12-0.35
			c-0.2-0.12-0.39-0.33-0.59-0.34c-1.21-0.05-2.24-0.53-3.02-1.39c-0.97-1.07-1.91-2.18-2.72-3.37c-1.49-2.19-2.45-4.77-4.77-6.43
			c0.29-0.13,0.53-0.24,0.76-0.35c1.57-0.75,2.82-1.85,3.71-3.35c2.09-3.55,0.59-7.59-3.34-8.78c-1.12-0.34-2.33-0.47-3.5-0.51
			c-2.54-0.07-5.08-0.02-7.62-0.02c-0.33,0-0.67,0-0.99,0c-0.16,0.44-0.11,0.62,0.37,0.66c1.93,0.14,2.43,0.7,2.43,2.65
			c0,5.57,0,11.14,0,16.7c0,0.73-0.03,1.45-0.1,2.18c-0.13,1.44-0.46,1.77-1.88,2.03c-0.19,0.03-0.34,0.24-0.51,0.37
			c0.04,0.06,0.08,0.13,0.12,0.19C137.64,41.21,140.39,41.21,143.2,41.21z M20.34,37.07c-0.13-0.27-0.17-0.35-0.21-0.44
			c-1.99-5.22-3.98-10.44-5.95-15.67c-0.79-2.1-1.54-4.22-2.31-6.33c-0.23-0.62,0.05-0.98,0.63-1.14c0.25-0.07,0.53-0.07,0.78-0.15
			c0.17-0.05,0.32-0.19,0.47-0.29c-0.16-0.09-0.33-0.26-0.49-0.26c-2.52-0.02-5.04-0.02-7.55,0c-0.15,0-0.3,0.19-0.45,0.29
			c0.14,0.09,0.28,0.26,0.42,0.26c1.8,0.02,2.74,1.1,3.35,2.64c1.52,3.82,3.05,7.63,4.58,11.45c1.79,4.47,3.57,8.94,5.37,13.4
			c0.11,0.28,0.4,0.49,0.61,0.74c0.2-0.24,0.41-0.49,0.61-0.74c0.03-0.04,0.04-0.09,0.06-0.13c3.46-8.25,6.94-16.5,10.37-24.76
			c0.61-1.47,1.49-2.45,3.16-2.58c0.17-0.01,0.31-0.26,0.47-0.4c-0.05-0.06-0.09-0.12-0.14-0.19c-2.03,0-4.06-0.01-6.09,0.01
			c-0.32,0-0.64,0.15-0.96,0.22c0.29,0.12,0.58,0.3,0.88,0.35c1.02,0.17,1.28,0.53,1.03,1.55c-0.11,0.44-0.25,0.89-0.41,1.31
			c-2.17,5.51-4.35,11.02-6.52,16.53C21.5,34.14,20.95,35.52,20.34,37.07z M186.89,15.91c-0.08,0.01-0.15,0.02-0.23,0.03
			c-0.18,0.41-0.39,0.81-0.54,1.23c-2.54,6.9-5.07,13.8-7.59,20.7c-0.54,1.49-1.37,2.61-3.09,2.77c-0.19,0.02-0.36,0.27-0.54,0.41
			c0.04,0.05,0.08,0.11,0.11,0.16c2.36,0,4.72,0,7.08,0c0.04-0.07,0.08-0.14,0.11-0.22c-0.2-0.13-0.38-0.35-0.59-0.39
			c-1.51-0.28-1.76-0.57-1.31-2.04c0.67-2.22,1.44-4.41,2.15-6.62c0.14-0.43,0.43-0.51,0.83-0.51c2.03,0.01,4.07,0.03,6.1-0.01
			c0.61-0.01,0.84,0.22,1.03,0.74c0.81,2.2,1.66,4.39,2.49,6.58c0.49,1.28,0.32,1.57-1.03,1.9c-0.18,0.04-0.32,0.27-0.47,0.41
			c0.04,0.06,0.09,0.11,0.13,0.17c2.56,0,5.11,0,7.67,0c0.09-0.45-0.05-0.66-0.51-0.67c-1.23-0.04-2.08-0.71-2.66-1.74
			c-0.22-0.4-0.42-0.82-0.58-1.25c-1.18-3.04-2.36-6.09-3.54-9.13c-1.49-3.85-2.99-7.71-4.49-11.56
			C187.29,16.53,187.07,16.23,186.89,15.91z M87.49,51.82c-0.2,0-0.39,0-0.58,0c-4.98,0-9.97-0.01-14.95,0
			c-0.18,0-0.37,0.17-0.55,0.26c0.18,0.12,0.36,0.33,0.55,0.35c1.72,0.17,2.35,0.84,2.35,2.56c0,2.2-0.01,4.41-0.01,6.61
			c0,3.75,0.03,7.51-0.02,11.26c-0.01,0.82-0.19,1.71-0.58,2.41c-0.22,0.4-1.02,0.47-1.55,0.71c-0.12,0.05-0.22,0.22-0.25,0.35
			c-0.01,0.06,0.16,0.2,0.28,0.23c0.13,0.04,0.29,0.01,0.43,0.01c5.01,0,10.02,0,15.03,0c0.24,0,0.47,0,0.77,0c0-1.49,0-2.91,0-4.33
			c-0.64-0.21-0.58,0.29-0.63,0.64c-0.24,1.54-0.84,2.24-2.3,2.32c-2.24,0.12-4.5,0.17-6.74,0.14c-1.49-0.02-1.72-0.34-1.72-1.88
			c-0.01-2.93,0-5.86,0-8.79c0-0.19,0.02-0.38,0.03-0.6c0.2-0.02,0.37-0.06,0.53-0.06c1.62,0.04,3.24,0.05,4.86,0.13
			c1.7,0.09,2.01,0.41,2.33,2.05c0.04,0.19,0.3,0.34,0.45,0.51c0.06-0.05,0.11-0.1,0.17-0.15c0-1.73,0-3.46,0-5.42
			c-0.32,0.24-0.6,0.34-0.66,0.51c-0.25,0.86-0.87,1.08-1.67,1.08c-1.79-0.01-3.58,0-5.37,0c-0.21,0-0.42-0.03-0.68-0.06
			c0-3.06-0.01-6.06,0.02-9.06c0-0.16,0.3-0.47,0.45-0.47c2.37,0.02,4.74,0.03,7.11,0.16c1.33,0.08,1.97,0.8,2.24,2.09
			c0.02,0.12-0.01,0.27,0.06,0.35c0.07,0.1,0.22,0.2,0.33,0.19c0.1-0.01,0.26-0.16,0.26-0.25C87.49,54.44,87.49,53.16,87.49,51.82z
			 M145.72,52.4c0.12,0.01,0.24,0.03,0.36,0.04c1.86,0.11,2.5,0.78,2.5,2.63c0,5.69,0.01,11.38-0.01,17.07
			c0,0.82-0.1,1.64-0.24,2.45c-0.13,0.77-0.67,1.21-1.45,1.32c-0.12,0.02-0.25,0-0.36,0.06c-0.14,0.07-0.26,0.2-0.39,0.3
			c0.13,0.1,0.24,0.23,0.38,0.29c0.1,0.05,0.24,0.01,0.36,0.01c5.01,0,10.02,0,15.03,0c0.24,0,0.47,0,0.77,0c0-1.49,0-2.9,0-4.32
			c-0.73-0.23-0.59,0.37-0.65,0.7c-0.27,1.48-0.84,2.18-2.22,2.25c-2.29,0.12-4.59,0.17-6.89,0.15c-1.39-0.02-1.64-0.34-1.66-1.72
			c-0.03-3-0.01-6-0.02-9.01c0-0.44,0.14-0.61,0.58-0.59c1.5,0.05,3,0.01,4.5,0.11c2.23,0.15,2.34,0.28,2.77,2.45
			c0.42,0.16,0.61,0.06,0.61-0.44c-0.02-1.59-0.01-3.18-0.01-4.77c-0.07-0.04-0.14-0.08-0.21-0.12c-0.19,0.18-0.45,0.33-0.54,0.55
			c-0.27,0.65-0.73,0.94-1.4,0.95c-1.91,0.01-3.82,0-5.74,0.01c-0.35,0-0.55-0.09-0.55-0.48c0-2.88-0.01-5.76,0.02-8.64
			c0-0.16,0.34-0.46,0.52-0.46c2.25,0.01,4.5,0.01,6.75,0.13c1.63,0.09,2.17,0.67,2.56,2.26c0.05,0.19,0.27,0.33,0.41,0.49
			c0.07-0.04,0.14-0.09,0.22-0.13c0-1.36,0-2.72,0-4c-1.97,0-3.91,0.01-5.84,0c-3.24-0.03-6.48-0.07-9.73-0.13
			C145.67,51.79,145.55,51.94,145.72,52.4z M64.37,53.38c0.07-0.06,0.14-0.12,0.21-0.18c0-1.28,0.01-2.56-0.01-3.84
			c0-0.16-0.18-0.4-0.33-0.45c-2.92-0.92-5.88-1.44-8.91-0.52c-1.73,0.52-3.14,1.51-4.01,3.13c-1.36,2.53-1.01,5.4,0.92,7.72
			c1.6,1.93,3.67,3.28,5.74,4.62c1.59,1.03,3.14,2.11,4.23,3.71c1.9,2.79,0.97,6.25-2.07,7.72c-1.31,0.64-2.71,0.68-4.12,0.58
			c-3.21-0.23-5-1.86-5.48-5.04c-0.08-0.53-0.3-0.57-0.75-0.41c0,1.47,0.03,2.92-0.01,4.37c-0.01,0.55,0.17,0.83,0.66,1.04
			c2.99,1.3,6.06,1.54,9.22,0.78c2-0.48,3.72-1.44,4.77-3.27c1.4-2.43,1.54-5.75-0.84-8.58c-1.53-1.82-3.47-3.13-5.38-4.51
			c-1.56-1.13-3.16-2.27-4.49-3.65c-2.14-2.24-1.3-5.77,1.5-7.11c1.31-0.63,2.68-0.64,4.05-0.46c2.35,0.31,4.14,1.31,4.55,3.92
			C63.87,53.1,64.19,53.23,64.37,53.38z M87.34,18.02c0.01,0.19,0.02,0.33,0.02,0.48c0,6.22,0,12.45,0,18.67
			c0,0.51-0.01,1.02-0.07,1.52c-0.18,1.34-0.58,1.72-1.91,1.97c-0.17,0.03-0.31,0.25-0.47,0.38c0.04,0.06,0.09,0.11,0.13,0.17
			c2.77,0,5.55,0,8.32,0c0.04-0.06,0.09-0.12,0.13-0.18c-0.15-0.13-0.28-0.32-0.46-0.39c-0.19-0.08-0.43-0.05-0.65-0.07
			c-1.34-0.13-1.86-0.61-2-1.94c-0.08-0.77-0.13-1.55-0.13-2.32c-0.01-5.84-0.01-11.67-0.01-17.51c0-0.26,0-0.52,0-0.87
			c1.78,0,3.46-0.01,5.15,0c2.13,0.02,2.42,0.26,2.98,2.3c0.03,0.12,0.2,0.21,0.3,0.31c0.1-0.1,0.29-0.2,0.29-0.31
			c0.02-1.27,0.01-2.54,0.01-3.78c-6.83,0-13.67,0-20.43,0c0,1.25-0.02,2.48,0.02,3.71c0,0.15,0.29,0.29,0.54,0.52
			c0.07-0.46,0.1-0.67,0.13-0.89c0.18-1.21,0.54-1.71,1.73-1.77C83.08,17.95,85.18,18.02,87.34,18.02z M173.59,76.44
			c0.32,0.09,0.39,0.12,0.46,0.12c2.59,0,5.18,0.01,7.77,0c0.16,0,0.32-0.17,0.49-0.26c-0.17-0.11-0.33-0.31-0.51-0.32
			c-2.06-0.17-2.49-0.59-2.64-2.66c-0.01-0.12-0.02-0.24-0.02-0.36c-0.01-6.47-0.01-12.93-0.02-19.4c0-0.07,0.04-0.13,0.07-0.26
			c0.96,0,1.92-0.02,2.89,0c1.18,0.02,2.37,0.01,3.55,0.14c0.93,0.1,1.34,0.6,1.5,1.51c0.03,0.19,0.01,0.41,0.1,0.57
			c0.1,0.17,0.29,0.3,0.44,0.44c0.07-0.05,0.13-0.09,0.2-0.14c0-1.34,0-2.68,0-4.02c-6.86,0-13.68,0-20.48,0c0,1.34,0,2.7,0,4.07
			c0.08,0.04,0.16,0.08,0.24,0.12c0.14-0.17,0.4-0.33,0.42-0.5c0.13-1.72,0.79-2.12,2.54-2.18c1.55-0.05,3.1-0.01,4.65-0.01
			c0.3,0,0.61,0,0.93,0c0.02,0.25,0.03,0.39,0.03,0.53c0,6.42,0,12.84,0,19.25c0,0.36-0.02,0.73-0.08,1.08
			c-0.2,1.25-0.62,1.63-1.88,1.82C174.05,76.02,173.89,76.22,173.59,76.44z M114.11,58.45c0.07-0.06,0.15-0.12,0.22-0.18
			c0.07-1.55,0.13-3.09,0.22-4.64c0.03-0.49-0.13-0.79-0.61-0.91c-1.87-0.46-3.72-1.13-5.62-1.34c-3.84-0.43-7.45,0.39-10.4,3.05
			c-3.44,3.1-4.56,7.08-4.07,11.57c0.36,3.33,1.68,6.21,4.37,8.31c3.21,2.51,6.9,3.04,10.79,2.34c2.72-0.49,4.8-1.98,5.95-4.59
			c0.1-0.22-0.01-0.54-0.02-0.81c-0.23,0.16-0.51,0.29-0.69,0.5c-0.51,0.61-0.9,1.34-1.48,1.87c-4,3.61-11.17,2.39-14.03-2.39
			c-2.17-3.62-2.53-7.53-1.59-11.57c0.64-2.73,2.07-4.99,4.7-6.2c2.84-1.31,5.78-1.3,8.67-0.16c1.52,0.6,2.72,1.59,3.05,3.32
			c0.09,0.45,0.11,0.91,0.21,1.36C113.8,58.16,113.99,58.3,114.11,58.45z M72.64,20.34c-0.01,0-0.01,0-0.02,0
			c0.04-0.65,0.05-1.31,0.13-1.96c0.06-0.52-0.11-0.8-0.6-0.99c-2.72-1.06-5.52-1.65-8.44-1.4c-4.55,0.39-8.11,2.43-10.3,6.54
			c-1.45,2.72-1.8,5.65-1.34,8.67c0.42,2.75,1.48,5.23,3.56,7.13c3.38,3.09,7.41,3.78,11.77,2.92c2.68-0.53,4.66-2.05,5.75-4.61
			c0.08-0.2-0.01-0.47-0.02-0.71c-0.22,0.12-0.5,0.2-0.65,0.38c-0.54,0.65-0.95,1.43-1.56,1.98c-3.87,3.48-10.84,2.45-13.79-2.06
			c-2.38-3.65-2.77-7.67-1.83-11.85c0.5-2.24,1.55-4.22,3.48-5.52c3.32-2.21,6.86-2.22,10.43-0.66c1.08,0.47,1.98,1.25,2.34,2.45
			c0.19,0.62,0.24,1.28,0.38,1.91c0.04,0.17,0.19,0.32,0.29,0.48c0.1-0.16,0.27-0.3,0.29-0.47C72.59,21.84,72.61,21.09,72.64,20.34z
			 M208.73,37.86C208.73,37.86,208.73,37.86,208.73,37.86c0,0.58,0.02,1.16-0.01,1.74c-0.03,0.46,0.11,0.74,0.55,0.96
			c2.58,1.24,5.28,1.34,8,0.7c4.93-1.17,6.95-6.78,3.39-10.66c-1.28-1.39-2.88-2.49-4.35-3.7c-1.41-1.17-2.98-2.18-4.23-3.5
			c-1.57-1.66-1.09-4.32,0.83-5.56c1.64-1.05,3.42-0.9,5.19-0.4c1.54,0.43,2.35,1.52,2.59,3.08c0.02,0.15,0.26,0.27,0.4,0.4
			c0.1-0.16,0.27-0.32,0.27-0.48c0.03-0.94-0.02-1.89,0.02-2.83c0.03-0.52-0.19-0.72-0.64-0.88c-1.86-0.65-3.77-0.9-5.71-0.72
			c-2,0.18-3.76,0.92-4.96,2.63c-1.71,2.44-1.42,5.63,0.88,7.87c1.32,1.29,2.89,2.33,4.4,3.42c1.37,0.99,2.83,1.87,3.84,3.28
			c1.51,2.12,1.15,4.88-0.9,6.22c-1.93,1.27-4.03,1.25-6.12,0.47c-1.84-0.68-2.64-2.16-2.83-4.04c-0.01-0.14-0.24-0.27-0.37-0.4
			c-0.08,0.15-0.23,0.29-0.24,0.44C208.72,36.55,208.73,37.21,208.73,37.86z M170.2,40.9c-0.05-0.08-0.1-0.16-0.15-0.23
			c-0.21-0.02-0.43-0.04-0.64-0.06c-1.85-0.19-2.39-0.76-2.47-2.62c-0.01-0.15-0.01-0.29-0.01-0.44
			c-0.01-5.18-0.03-10.36-0.03-15.55c0-1.04,0-2.08,0.07-3.12c0.08-1.33,0.51-1.73,1.82-1.9c0.21-0.03,0.4-0.21,0.59-0.33
			c-0.2-0.1-0.4-0.28-0.61-0.29c-1.77-0.02-3.53-0.01-5.3-0.01c-0.62,0-1.24,0-1.87,0c-0.04,0.08-0.07,0.17-0.11,0.25
			c0.18,0.12,0.35,0.31,0.54,0.34c1.5,0.22,1.91,0.63,2.03,2.14c0.03,0.36,0.05,0.72,0.05,1.09c0,5.62,0.01,11.24,0,16.85
			c0,0.58-0.02,1.17-0.11,1.74c-0.2,1.28-0.63,1.72-1.91,1.88c-0.48,0.06-0.48,0.24-0.35,0.61c2.67,0,5.31,0.01,7.95-0.02
			C169.85,41.23,170.02,41.01,170.2,40.9z M38.31,16.35c-0.05,0.09-0.11,0.17-0.16,0.26c0.19,0.12,0.36,0.31,0.56,0.33
			c1.49,0.21,1.86,0.57,2.01,2.07c0.06,0.58,0.09,1.16,0.09,1.74c0.01,4.24,0.01,8.47,0,12.71c-0.01,1.67-0.03,3.34-0.11,5
			c-0.08,1.48-0.53,1.92-1.99,2.21c-0.16,0.03-0.28,0.27-0.54,0.53c3.05,0,5.82,0,8.58,0c0.21-0.66-0.25-0.57-0.6-0.6
			c-1.87-0.15-2.42-0.69-2.54-2.56c-0.06-0.89-0.04-1.79-0.04-2.68c0-5.18-0.02-10.36,0.02-15.54c0.01-0.75,0.1-1.61,0.48-2.21
			c0.25-0.4,1.09-0.43,1.65-0.66c0.12-0.05,0.2-0.21,0.29-0.32c-0.13-0.1-0.27-0.28-0.4-0.28C43.19,16.35,40.75,16.35,38.31,16.35z
			 M199.58,20.13c0.83,0.02,1.43-0.27,1.91-0.93c0.92-1.25,1.15-2.65,0.73-4.12c-0.12-0.41-0.41-0.82-0.74-1.12
			c-0.58-0.52-1.45-0.41-1.86,0.15c-0.42,0.58-0.23,1.35,0.45,1.81c0.16,0.11,0.33,0.2,0.5,0.29c0.54,0.29,0.75,0.74,0.58,1.33
			c-0.25,0.91-0.45,1.85-1.46,2.27C199.64,19.84,199.64,19.98,199.58,20.13z"/>
		<path d="M128.86,29.38c-0.17,4.05-2.11,8.22-6.77,10.76c-4.63,2.53-11.91,2.09-15.78-2.53c-5.88-7.04-3.1-17.76,4.7-20.67
			c5.11-1.9,10.01-1.26,14.26,2.4C127.65,21.39,128.91,24.73,128.86,29.38z M125.76,29.13c-0.04-2.92-0.61-5.81-2.52-8.27
			c-2.43-3.12-5.66-4.3-9.51-3.57c-3.69,0.7-5.98,3.01-6.95,6.6c-0.89,3.27-0.7,6.53,0.5,9.69c0.87,2.3,2.34,4.16,4.47,5.45
			c4.49,2.7,10.2,1.24,12.61-3.25C125.44,33.75,125.72,31.53,125.76,29.13z"/>
		<path d="M125.84,65.21c-0.01,0.23-0.04,0.44-0.04,0.65c0,2.15-0.01,4.31,0.01,6.46c0,0.58,0.04,1.16,0.13,1.73
			c0.2,1.27,0.73,1.75,2,1.89c0.19,0.02,0.4-0.02,0.58,0.03c0.19,0.06,0.35,0.2,0.52,0.31c-0.18,0.09-0.37,0.27-0.55,0.27
			c-2.42,0.02-4.84,0.01-7.26,0.02c-0.37,0-0.64-0.04-0.45-0.55c0.08-0.01,0.17-0.04,0.26-0.05c1.33-0.1,1.71-0.4,1.92-1.71
			c0.1-0.66,0.12-1.35,0.12-2.02c0.01-5.71,0-11.43,0.01-17.14c0-2-0.42-2.46-2.38-2.71c-0.17-0.02-0.31-0.25-0.47-0.38
			c0.17-0.09,0.33-0.25,0.5-0.25c3.02,0,6.05-0.01,9.07,0.06c0.86,0.02,1.73,0.21,2.56,0.45c4.8,1.39,5.13,6.27,3.2,9.13
			c-0.94,1.39-1.76,2.06-4.26,3.42c2.01,1.33,2.97,3.44,4.13,5.4c1.02,1.71,2.08,3.37,3.65,4.65c0.8,0.65,1.67,1.06,2.7,1.08
			c0.36,0.01,0.64,0.05,0.47,0.54c-1.32,0-2.66,0.12-3.96-0.03c-1.67-0.19-2.84-1.29-3.73-2.64c-1.18-1.8-2.29-3.64-3.44-5.46
			c-0.28-0.45-0.61-0.87-0.91-1.31C129.16,65.57,127.73,64.95,125.84,65.21z M125.81,58.53c0,1.55,0.04,3.1-0.02,4.64
			c-0.03,0.72,0.3,0.96,0.91,1c0.79,0.06,1.59,0.13,2.39,0.12c1.22-0.02,2.31-0.41,3.21-1.29c1.99-1.98,2.16-6.22,0.31-8.36
			c-1.3-1.51-4.53-2.39-6.34-1.67c-0.22,0.09-0.43,0.5-0.43,0.77C125.79,55.34,125.81,56.94,125.81,58.53z"/>
		<path d="M143.2,41.21c-2.81,0-5.56,0-8.31,0c-0.04-0.06-0.08-0.13-0.12-0.19c0.17-0.13,0.32-0.33,0.51-0.37
			c1.42-0.26,1.75-0.58,1.88-2.03c0.06-0.72,0.1-1.45,0.1-2.18c0.01-5.57,0.01-11.14,0-16.7c0-1.95-0.5-2.51-2.43-2.65
			c-0.47-0.03-0.53-0.22-0.37-0.66c0.32,0,0.65,0,0.99,0c2.54,0,5.08-0.06,7.62,0.02c1.17,0.03,2.38,0.17,3.5,0.51
			c3.92,1.19,5.42,5.24,3.34,8.78c-0.89,1.51-2.14,2.6-3.71,3.35c-0.23,0.11-0.47,0.22-0.76,0.35c2.31,1.66,3.27,4.24,4.77,6.43
			c0.81,1.19,1.75,2.3,2.72,3.37c0.78,0.87,1.81,1.35,3.02,1.39c0.2,0.01,0.39,0.22,0.59,0.34c-0.04,0.12-0.08,0.23-0.12,0.35
			c-1.46-0.09-2.94-0.08-4.38-0.29c-1.25-0.18-2.21-1-2.91-2.02c-1.2-1.76-2.3-3.58-3.47-5.36c-0.58-0.89-1.21-1.75-1.86-2.59
			c-0.88-1.13-2.16-1.27-3.47-1.27c-0.12,0-0.34,0.27-0.34,0.41c0.02,2.81-0.01,5.62,0.12,8.42c0.07,1.47,0.77,1.92,2.49,2
			C143.19,40.65,143.19,40.65,143.2,41.21z M139.96,23.22C139.96,23.22,139.96,23.22,139.96,23.22c0,1.57,0.02,3.15-0.01,4.72
			c-0.01,0.54,0.18,0.83,0.73,0.85c1.09,0.04,2.2,0.23,3.25,0.06c0.83-0.13,1.74-0.54,2.37-1.1c1.65-1.47,1.9-3.46,1.64-5.54
			c-0.32-2.57-1.78-4.16-4.31-4.59c-0.92-0.16-1.88-0.06-2.82-0.07c-0.65-0.01-0.88,0.31-0.86,0.96
			C139.98,20.07,139.96,21.65,139.96,23.22z"/>
		<path d="M20.34,37.07c0.61-1.55,1.16-2.93,1.71-4.32c2.18-5.51,4.35-11.02,6.52-16.53c0.17-0.43,0.3-0.87,0.41-1.31
			c0.25-1.02-0.01-1.38-1.03-1.55c-0.31-0.05-0.59-0.23-0.88-0.35c0.32-0.08,0.64-0.22,0.96-0.22c2.03-0.02,4.06-0.01,6.09-0.01
			c0.05,0.06,0.09,0.12,0.14,0.19c-0.16,0.14-0.31,0.39-0.47,0.4c-1.67,0.12-2.55,1.11-3.16,2.58c-3.43,8.26-6.91,16.51-10.37,24.76
			c-0.02,0.04-0.03,0.1-0.06,0.13c-0.2,0.25-0.41,0.49-0.61,0.74c-0.21-0.24-0.5-0.46-0.61-0.74c-1.8-4.46-3.58-8.94-5.37-13.4
			c-1.53-3.82-3.06-7.63-4.58-11.45c-0.61-1.53-1.55-2.61-3.35-2.64c-0.14,0-0.28-0.17-0.42-0.26c0.15-0.1,0.3-0.29,0.45-0.29
			c2.52-0.02,5.04-0.02,7.55,0c0.17,0,0.33,0.17,0.49,0.26c-0.16,0.1-0.3,0.24-0.47,0.29c-0.25,0.08-0.53,0.08-0.78,0.15
			c-0.58,0.17-0.86,0.52-0.63,1.14c0.77,2.11,1.51,4.23,2.31,6.33c1.97,5.23,3.97,10.45,5.95,15.67
			C20.16,36.72,20.21,36.8,20.34,37.07z"/>
		<path d="M186.89,15.91c0.18,0.32,0.39,0.62,0.52,0.95c1.51,3.85,3,7.7,4.49,11.56c1.18,3.04,2.35,6.09,3.54,9.13
			c0.17,0.43,0.36,0.85,0.58,1.25c0.58,1.03,1.43,1.7,2.66,1.74c0.46,0.01,0.6,0.22,0.51,0.67c-2.56,0-5.12,0-7.67,0
			c-0.04-0.06-0.09-0.11-0.13-0.17c0.16-0.14,0.29-0.36,0.47-0.41c1.36-0.33,1.52-0.62,1.03-1.9c-0.83-2.19-1.68-4.38-2.49-6.58
			c-0.19-0.52-0.42-0.75-1.03-0.74c-2.03,0.05-4.07,0.02-6.1,0.01c-0.41,0-0.69,0.08-0.83,0.51c-0.71,2.21-1.48,4.4-2.15,6.62
			c-0.44,1.47-0.2,1.76,1.31,2.04c0.21,0.04,0.4,0.25,0.59,0.39c-0.04,0.07-0.08,0.14-0.11,0.22c-2.36,0-4.72,0-7.08,0
			c-0.04-0.05-0.08-0.11-0.11-0.16c0.18-0.14,0.35-0.39,0.54-0.41c1.72-0.17,2.54-1.29,3.09-2.77c2.52-6.9,5.06-13.8,7.59-20.7
			c0.15-0.42,0.36-0.82,0.54-1.23C186.74,15.93,186.82,15.92,186.89,15.91z M186.39,20.87c-0.08,0-0.16-0.01-0.24-0.01
			c-1.02,3.09-2.04,6.18-3.08,9.33c2.24,0,4.36,0,6.57,0C188.54,27.05,187.47,23.96,186.39,20.87z"/>
		<path d="M87.49,51.82c0,1.34,0.01,2.62-0.01,3.89c0,0.09-0.16,0.24-0.26,0.25c-0.11,0.01-0.26-0.09-0.33-0.19
			c-0.06-0.08-0.03-0.23-0.06-0.35c-0.27-1.3-0.91-2.02-2.24-2.09c-2.36-0.14-4.74-0.14-7.11-0.16c-0.16,0-0.45,0.3-0.45,0.47
			c-0.03,3-0.02,6-0.02,9.06c0.26,0.02,0.47,0.06,0.68,0.06c1.79,0,3.58-0.01,5.37,0c0.8,0,1.41-0.22,1.67-1.08
			c0.05-0.17,0.34-0.27,0.66-0.51c0,1.96,0,3.69,0,5.42c-0.06,0.05-0.11,0.1-0.17,0.15c-0.16-0.17-0.42-0.32-0.45-0.51
			c-0.32-1.65-0.63-1.97-2.33-2.05c-1.62-0.08-3.24-0.1-4.86-0.13c-0.16,0-0.33,0.03-0.53,0.06c-0.01,0.22-0.03,0.41-0.03,0.6
			c0,2.93,0,5.86,0,8.79c0,1.53,0.23,1.86,1.72,1.88c2.25,0.03,4.5-0.02,6.74-0.14c1.46-0.08,2.06-0.78,2.3-2.32
			c0.06-0.35-0.01-0.86,0.63-0.64c0,1.42,0,2.83,0,4.33c-0.3,0-0.54,0-0.77,0c-5.01,0-10.02,0-15.03,0c-0.15,0-0.3,0.03-0.43-0.01
			c-0.11-0.03-0.29-0.17-0.28-0.23c0.03-0.13,0.13-0.29,0.25-0.35c0.53-0.25,1.33-0.31,1.55-0.71c0.39-0.7,0.57-1.59,0.58-2.41
			c0.06-3.75,0.02-7.51,0.02-11.26c0-2.2,0.01-4.41,0.01-6.61c0-1.73-0.62-2.4-2.35-2.56c-0.19-0.02-0.37-0.23-0.55-0.35
			c0.18-0.09,0.37-0.25,0.55-0.26c4.98-0.01,9.97-0.01,14.95,0C87.1,51.82,87.29,51.82,87.49,51.82z"/>
		<path d="M145.72,52.4c-0.17-0.47-0.05-0.61,0.44-0.6c3.24,0.06,6.48,0.1,9.73,0.13c1.93,0.02,3.86,0,5.84,0c0,1.28,0,2.64,0,4
			c-0.07,0.04-0.14,0.09-0.22,0.13c-0.14-0.16-0.37-0.31-0.41-0.49c-0.39-1.59-0.93-2.17-2.56-2.26c-2.24-0.12-4.5-0.12-6.75-0.13
			c-0.18,0-0.52,0.3-0.52,0.46c-0.03,2.88-0.02,5.76-0.02,8.64c0,0.39,0.19,0.48,0.55,0.48c1.91-0.01,3.82,0,5.74-0.01
			c0.67,0,1.13-0.3,1.4-0.95c0.09-0.22,0.36-0.37,0.54-0.55c0.07,0.04,0.14,0.08,0.21,0.12c0,1.59-0.01,3.18,0.01,4.77
			c0.01,0.5-0.18,0.6-0.61,0.44c-0.43-2.17-0.54-2.3-2.77-2.45c-1.5-0.1-3-0.07-4.5-0.11c-0.45-0.01-0.59,0.16-0.58,0.59
			c0.02,3,0,6,0.02,9.01c0.01,1.38,0.26,1.7,1.66,1.72c2.3,0.03,4.6-0.02,6.89-0.15c1.38-0.07,1.94-0.77,2.22-2.25
			c0.06-0.33-0.07-0.93,0.65-0.7c0,1.42,0,2.84,0,4.32c-0.3,0-0.53,0-0.77,0c-5.01,0-10.02,0-15.03,0c-0.12,0-0.26,0.04-0.36-0.01
			c-0.14-0.07-0.26-0.19-0.38-0.29c0.13-0.1,0.25-0.22,0.39-0.3c0.1-0.05,0.24-0.04,0.36-0.06c0.78-0.12,1.31-0.55,1.45-1.32
			c0.14-0.81,0.23-1.63,0.24-2.45c0.02-5.69,0.01-11.38,0.01-17.07c0-1.85-0.64-2.52-2.5-2.63
			C145.96,52.43,145.84,52.42,145.72,52.4z"/>
		<path d="M64.37,53.38c-0.18-0.15-0.5-0.28-0.53-0.46c-0.4-2.61-2.19-3.62-4.55-3.92c-1.38-0.18-2.75-0.16-4.05,0.46
			c-2.8,1.34-3.64,4.87-1.5,7.11c1.32,1.38,2.92,2.52,4.49,3.65c1.91,1.37,3.85,2.68,5.38,4.51c2.38,2.83,2.24,6.15,0.84,8.58
			c-1.05,1.83-2.77,2.79-4.77,3.27c-3.16,0.76-6.23,0.52-9.22-0.78c-0.49-0.21-0.68-0.5-0.66-1.04c0.04-1.45,0.01-2.9,0.01-4.37
			c0.45-0.15,0.67-0.11,0.75,0.41c0.48,3.18,2.26,4.82,5.48,5.04c1.41,0.1,2.8,0.06,4.12-0.58c3.04-1.47,3.97-4.93,2.07-7.72
			c-1.09-1.6-2.64-2.68-4.23-3.71c-2.08-1.34-4.14-2.69-5.74-4.62c-1.93-2.32-2.28-5.19-0.92-7.72c0.87-1.62,2.29-2.61,4.01-3.13
			c3.02-0.91,5.98-0.4,8.91,0.52c0.15,0.05,0.32,0.29,0.33,0.45c0.03,1.28,0.01,2.56,0.01,3.84C64.51,53.26,64.44,53.32,64.37,53.38
			z"/>
		<path d="M87.34,18.02c-2.16,0-4.27-0.07-6.36,0.03c-1.18,0.06-1.54,0.56-1.73,1.77c-0.03,0.21-0.06,0.43-0.13,0.89
			c-0.25-0.24-0.54-0.38-0.54-0.52c-0.04-1.23-0.02-2.46-0.02-3.71c6.76,0,13.59,0,20.43,0c0,1.23,0.01,2.51-0.01,3.78
			c0,0.1-0.19,0.21-0.29,0.31c-0.1-0.1-0.27-0.19-0.3-0.31c-0.56-2.04-0.85-2.28-2.98-2.3c-1.69-0.01-3.37,0-5.15,0
			c0,0.35,0,0.61,0,0.87c0,5.84,0,11.67,0.01,17.51c0,0.77,0.05,1.55,0.13,2.32c0.14,1.33,0.66,1.81,2,1.94
			c0.22,0.02,0.45-0.01,0.65,0.07c0.18,0.07,0.31,0.26,0.46,0.39c-0.04,0.06-0.09,0.12-0.13,0.18c-2.77,0-5.55,0-8.32,0
			c-0.04-0.06-0.09-0.11-0.13-0.17c0.16-0.13,0.3-0.35,0.47-0.38c1.33-0.25,1.73-0.63,1.91-1.97c0.07-0.5,0.07-1.01,0.07-1.52
			c0-6.22,0-12.45,0-18.67C87.36,18.35,87.35,18.21,87.34,18.02z"/>
		<path d="M173.59,76.44c0.3-0.22,0.46-0.43,0.64-0.45c1.26-0.19,1.68-0.57,1.88-1.82c0.06-0.36,0.08-0.72,0.08-1.08
			c0.01-6.42,0.01-12.84,0-19.25c0-0.14-0.02-0.28-0.03-0.53c-0.32,0-0.63,0-0.93,0c-1.55,0-3.1-0.04-4.65,0.01
			c-1.74,0.05-2.41,0.45-2.54,2.18c-0.01,0.18-0.27,0.34-0.42,0.5c-0.08-0.04-0.16-0.08-0.24-0.12c0-1.36,0-2.73,0-4.07
			c6.8,0,13.62,0,20.48,0c0,1.34,0,2.68,0,4.02c-0.07,0.05-0.13,0.09-0.2,0.14c-0.15-0.14-0.34-0.27-0.44-0.44
			c-0.09-0.16-0.06-0.38-0.1-0.57c-0.16-0.91-0.57-1.41-1.5-1.51c-1.17-0.12-2.36-0.11-3.55-0.14c-0.96-0.02-1.93,0-2.89,0
			c-0.04,0.13-0.07,0.2-0.07,0.26c0,6.47,0.01,12.93,0.02,19.4c0,0.12,0.01,0.24,0.02,0.36c0.15,2.07,0.58,2.49,2.64,2.66
			c0.18,0.01,0.34,0.21,0.51,0.32c-0.16,0.09-0.32,0.26-0.49,0.26c-2.59,0.01-5.18,0.01-7.77,0
			C173.98,76.56,173.91,76.53,173.59,76.44z"/>
		<path d="M114.11,58.45c-0.12-0.15-0.3-0.29-0.34-0.46c-0.1-0.45-0.12-0.91-0.21-1.36c-0.33-1.73-1.53-2.72-3.05-3.32
			c-2.9-1.14-5.83-1.15-8.67,0.16c-2.63,1.22-4.06,3.47-4.7,6.2c-0.94,4.04-0.58,7.95,1.59,11.57c2.86,4.78,10.03,6,14.03,2.39
			c0.58-0.52,0.97-1.26,1.48-1.87c0.18-0.21,0.46-0.33,0.69-0.5c0.01,0.27,0.12,0.59,0.02,0.81c-1.15,2.6-3.23,4.09-5.95,4.59
			c-3.89,0.71-7.59,0.17-10.79-2.34c-2.69-2.1-4.01-4.98-4.37-8.31c-0.48-4.49,0.63-8.48,4.07-11.57c2.96-2.66,6.56-3.48,10.4-3.05
			c1.9,0.21,3.75,0.89,5.62,1.34c0.49,0.12,0.64,0.42,0.61,0.91c-0.09,1.54-0.15,3.09-0.22,4.64
			C114.25,58.34,114.18,58.39,114.11,58.45z"/>
		<path d="M72.64,20.34c-0.04,0.75-0.06,1.5-0.12,2.25c-0.01,0.16-0.19,0.31-0.29,0.47c-0.1-0.16-0.25-0.31-0.29-0.48
			c-0.14-0.63-0.19-1.29-0.38-1.91c-0.36-1.2-1.26-1.97-2.34-2.45c-3.57-1.56-7.11-1.56-10.43,0.66c-1.94,1.29-2.98,3.28-3.48,5.52
			c-0.94,4.18-0.55,8.2,1.83,11.85c2.94,4.51,9.91,5.54,13.79,2.06c0.62-0.55,1.02-1.33,1.56-1.98c0.15-0.18,0.43-0.26,0.65-0.38
			c0.01,0.24,0.1,0.51,0.02,0.71c-1.09,2.56-3.08,4.08-5.75,4.61c-4.36,0.86-8.39,0.17-11.77-2.92c-2.09-1.91-3.14-4.38-3.56-7.13
			c-0.46-3.02-0.12-5.95,1.34-8.67c2.19-4.11,5.74-6.15,10.3-6.54c2.92-0.25,5.72,0.34,8.44,1.4c0.49,0.19,0.66,0.47,0.6,0.99
			c-0.08,0.65-0.09,1.3-0.13,1.96C72.63,20.34,72.64,20.34,72.64,20.34z"/>
		<path d="M208.73,37.86c0-0.65-0.01-1.31,0.01-1.96c0.01-0.15,0.15-0.29,0.24-0.44c0.13,0.13,0.36,0.25,0.37,0.4
			c0.2,1.88,0.99,3.36,2.83,4.04c2.09,0.78,4.19,0.8,6.12-0.47c2.04-1.35,2.41-4.11,0.9-6.22c-1.01-1.41-2.47-2.29-3.84-3.28
			c-1.5-1.09-3.07-2.13-4.4-3.42c-2.3-2.24-2.59-5.43-0.88-7.87c1.2-1.71,2.96-2.45,4.96-2.63c1.95-0.17,3.86,0.07,5.71,0.72
			c0.45,0.16,0.66,0.36,0.64,0.88c-0.05,0.94,0,1.89-0.02,2.83c0,0.16-0.18,0.32-0.27,0.48c-0.14-0.13-0.37-0.25-0.4-0.4
			c-0.24-1.56-1.05-2.65-2.59-3.08c-1.77-0.5-3.55-0.65-5.19,0.4c-1.92,1.23-2.4,3.9-0.83,5.56c1.25,1.32,2.82,2.33,4.23,3.5
			c1.47,1.21,3.07,2.31,4.35,3.7c3.56,3.88,1.54,9.48-3.39,10.66c-2.72,0.65-5.42,0.54-8-0.7c-0.45-0.21-0.58-0.49-0.55-0.96
			C208.75,39.03,208.73,38.44,208.73,37.86C208.73,37.86,208.73,37.86,208.73,37.86z"/>
		<path d="M170.2,40.9c-0.17,0.12-0.35,0.33-0.52,0.33c-2.64,0.02-5.27,0.02-7.95,0.02c-0.13-0.37-0.13-0.55,0.35-0.61
			c1.28-0.16,1.71-0.59,1.91-1.88c0.09-0.57,0.11-1.16,0.11-1.74c0.01-5.62,0.01-11.24,0-16.85c0-0.36-0.02-0.73-0.05-1.09
			c-0.12-1.51-0.53-1.92-2.03-2.14c-0.19-0.03-0.36-0.22-0.54-0.34c0.04-0.08,0.07-0.17,0.11-0.25c0.62,0,1.24,0,1.87,0
			c1.77,0,3.53-0.01,5.3,0.01c0.2,0,0.4,0.19,0.61,0.29c-0.2,0.11-0.38,0.3-0.59,0.33c-1.3,0.16-1.73,0.57-1.82,1.9
			c-0.06,1.04-0.07,2.08-0.07,3.12c0,5.18,0.02,10.36,0.03,15.55c0,0.15,0.01,0.29,0.01,0.44c0.08,1.86,0.62,2.43,2.47,2.62
			c0.21,0.02,0.43,0.04,0.64,0.06C170.09,40.74,170.15,40.82,170.2,40.9z"/>
		<path d="M38.31,16.35c2.44,0,4.88,0,7.32,0.01c0.13,0,0.27,0.18,0.4,0.28c-0.1,0.11-0.17,0.27-0.29,0.32
			c-0.56,0.22-1.4,0.25-1.65,0.66c-0.38,0.6-0.48,1.46-0.48,2.21c-0.04,5.18-0.03,10.36-0.02,15.54c0,0.9-0.01,1.79,0.04,2.68
			c0.12,1.87,0.67,2.4,2.54,2.56c0.34,0.03,0.8-0.07,0.6,0.6c-2.76,0-5.53,0-8.58,0c0.26-0.26,0.37-0.5,0.54-0.53
			c1.46-0.3,1.91-0.73,1.99-2.21c0.09-1.67,0.11-3.34,0.11-5c0.01-4.24,0.01-8.47,0-12.71c0-0.58-0.03-1.16-0.09-1.74
			c-0.15-1.5-0.52-1.86-2.01-2.07c-0.2-0.03-0.37-0.22-0.56-0.33C38.2,16.53,38.25,16.44,38.31,16.35z"/>
		<path d="M199.58,20.13c0.05-0.15,0.06-0.29,0.11-0.32c1.02-0.42,1.21-1.36,1.46-2.27c0.16-0.59-0.04-1.04-0.58-1.33
			c-0.17-0.09-0.34-0.18-0.5-0.29c-0.68-0.46-0.87-1.23-0.45-1.81c0.41-0.56,1.29-0.67,1.86-0.15c0.32,0.29,0.62,0.7,0.74,1.12
			c0.42,1.47,0.19,2.87-0.73,4.12C201.01,19.86,200.42,20.15,199.58,20.13z"/>
		<path class="st1" d="M125.76,29.13c-0.04,2.39-0.32,4.62-1.41,6.65c-2.4,4.49-8.12,5.95-12.61,3.25c-2.14-1.29-3.6-3.15-4.47-5.45
			c-1.2-3.16-1.38-6.42-0.5-9.69c0.97-3.59,3.26-5.9,6.95-6.6c3.85-0.73,7.09,0.45,9.51,3.57
			C125.15,23.32,125.72,26.22,125.76,29.13z"/>
		<path class="st1" d="M125.81,58.53c0-1.6-0.02-3.19,0.02-4.79c0.01-0.27,0.21-0.68,0.43-0.77c1.81-0.72,5.04,0.16,6.34,1.67
			c1.84,2.14,1.68,6.37-0.31,8.36c-0.89,0.89-1.98,1.28-3.21,1.29c-0.8,0.01-1.59-0.06-2.39-0.12c-0.61-0.04-0.94-0.28-0.91-1
			C125.85,61.63,125.81,60.08,125.81,58.53z"/>
		<path class="st1" d="M139.96,23.22c0-1.57,0.02-3.15-0.01-4.72c-0.01-0.64,0.22-0.97,0.86-0.96c0.94,0.01,1.9-0.08,2.82,0.07
			c2.53,0.43,3.99,2.02,4.31,4.59c0.26,2.07,0.01,4.07-1.64,5.54c-0.63,0.56-1.54,0.97-2.37,1.1c-1.05,0.17-2.16-0.02-3.25-0.06
			c-0.55-0.02-0.74-0.3-0.73-0.85C139.98,26.37,139.96,24.79,139.96,23.22C139.96,23.22,139.96,23.22,139.96,23.22z"/>
		<path class="st1" d="M186.39,20.87c1.08,3.09,2.15,6.18,3.25,9.32c-2.21,0-4.33,0-6.57,0c1.04-3.15,2.06-6.24,3.08-9.33
			C186.23,20.86,186.31,20.87,186.39,20.87z"/>
	</g>
</g>
</svg>
