<?xml version="1.0" encoding="utf-8"?>
<!-- Generator: Adobe Illustrator 24.1.0, SVG Export Plug-In . SVG Version: 6.00 Build 0)  -->
<svg version="1.1" id="Layer_1" xmlns="http://www.w3.org/2000/svg" xmlns:xlink="http://www.w3.org/1999/xlink" x="0px" y="0px"
	 viewBox="0 0 230 90" style="enable-background:new 0 0 230 90;" xml:space="preserve">
<style type="text/css">
	.st0{fill:#FFFFFF;}
	.st1{fill:none;}
</style>
<g id="_x30_m2RpT.tif">
	<g>
		<path class="st0" d="M81.67,61.97c0.12-0.15,0.17-0.24,0.25-0.3c1.03-0.7,1.36-1.7,1.12-2.86c-0.24-1.17-1.07-1.86-2.22-1.95
			c-1.86-0.13-3.72-0.15-5.59-0.15c-0.19,0-0.55,0.44-0.55,0.68c-0.04,3.21-0.04,6.42,0,9.63c0,0.24,0.43,0.68,0.67,0.68
			c1.76,0.02,3.53,0.05,5.28-0.11c1.5-0.14,2.46-1.13,2.71-2.43C83.59,63.84,83.11,62.89,81.67,61.97z M193.09,42.07
			c0.23-0.14,0.47-0.29,0.7-0.44c1.54-0.99,2.39-2.75,2.08-4.31c-0.32-1.62-1.42-2.68-3.47-2.88c-1.99-0.2-4.01-0.1-6.02-0.12
			c-0.13,0-0.26,0.16-0.43,0.27c1.64,0.91,1.64,0.91,1.64,2.92c0,2.89,0.01,5.78-0.01,8.68c-0.01,1.15,0.38,2.49-1.51,2.8
			c1.05,0.53,4.63,0.46,5.07,0.08c-0.51-0.38-1.42-0.71-1.49-1.17c-0.26-1.75-0.25-3.54-0.34-5.28c1.34-0.3,2.07,0.24,2.63,1.09
			c0.92,1.38,1.75,2.81,2.74,4.14c1.08,1.45,3.19,1.92,4.61,1.11c-0.11-0.1-0.2-0.25-0.3-0.26c-1.64-0.15-2.51-1.32-3.32-2.53
			C194.81,44.84,193.99,43.49,193.09,42.07z M76.23,41.52c0.01-4.53-2.92-7.37-7.5-7.47c-4.92-0.11-7.85,3.63-7.95,7.69
			c-0.11,4.43,3.19,7.77,7.58,7.8C72.88,49.58,76.22,46.17,76.23,41.52z M86.48,42.09c0.23-0.14,0.49-0.3,0.75-0.48
			c1.6-1.09,2.34-2.76,1.97-4.44c-0.35-1.59-1.46-2.57-3.56-2.76c-1.92-0.17-3.87-0.09-5.81-0.1c-0.15,0-0.31,0.18-0.52,0.31
			c1.75,0.84,1.75,0.84,1.75,2.88c0,2.71,0.03,5.43-0.01,8.14c-0.02,1.32,0.49,2.91-1.61,3.42c1.17,0.46,4.67,0.38,5.31-0.1
			c-0.31-0.1-0.6-0.13-0.8-0.28c-0.37-0.27-0.96-0.59-0.98-0.91c-0.1-1.73-0.05-3.48-0.05-5.22c0.96-0.16,1.66,0.16,2.18,0.87
			c0.46,0.63,0.85,1.29,1.3,1.92c0.73,1.03,1.39,2.13,2.24,3.05c0.9,0.99,2.86,1.2,3.96,0.58c-0.06-0.08-0.12-0.23-0.19-0.24
			c-1.72-0.25-2.63-1.51-3.49-2.82C88.12,44.68,87.34,43.43,86.48,42.09z M126.55,60.96c0-1.02-0.06-2.05,0.02-3.07
			c0.07-0.97-0.24-1.29-1.24-1.26c-0.9,0.03-1.35,0.17-1.31,1.22c0.08,1.9,0.04,3.81,0.01,5.71c-0.01,0.83-0.16,1.64-1.06,2.02
			c-1.46,0.63-2.72-0.24-2.76-1.98c-0.05-2.01-0.04-4.02,0-6.03c0.02-0.79-0.33-1.01-1.02-0.91c-0.63,0.1-1.61-0.42-1.6,0.88
			c0.01,2.05-0.06,4.09,0.03,6.13c0.1,2.4,1.16,3.74,3.32,4.14c3.08,0.58,5.82-0.92,5.61-4.44
			C126.51,62.59,126.55,61.77,126.55,60.96z M97.07,58.9c0.04-0.39,0.09-0.63,0.09-0.87c0.04-1.35,0.04-1.36-1.3-1.36
			c-1.8,0-3.59,0.02-5.39-0.01c-0.68-0.01-0.94,0.26-0.93,0.94c0.02,3.06,0.02,6.13,0,9.19c0,0.67,0.22,0.96,0.91,0.96
			c2.04-0.02,4.09-0.03,6.13,0c0.82,0.01,0.89-0.44,0.88-1.08c-0.01-0.62-0.01-1.12-0.87-1.08c-1.05,0.05-2.12-0.06-3.17,0.03
			c-1.06,0.09-1.39-0.23-1.37-1.33c0.02-1.04,0.34-1.39,1.34-1.26c0.49,0.06,0.99-0.02,1.48,0.02c0.79,0.07,0.93-0.33,0.93-1.02
			c0-0.7-0.2-1.06-0.96-1.02c-0.6,0.04-1.2-0.04-1.79,0.02c-0.87,0.09-0.96-0.37-0.97-1.08c-0.01-0.74,0.14-1.1,0.98-1.06
			C94.4,58.95,95.73,58.9,97.07,58.9z M11.09,49.67c0.34-0.61,0.58-0.97,0.75-1.36c1.85-4.38,3.7-8.76,5.51-13.15
			c0.49-1.19,0.93-2.37,2.39-2.66c0.02,0,0.01-0.12,0.02-0.25c-1.4,0-2.79,0-4.18,0c-0.15,0.08-0.29,0.16-0.44,0.25
			c2.36,0.14,1.34,1.31,1.05,2.1c-1.03,2.77-2.16,5.51-3.25,8.26c-0.44,1.1-0.88,2.19-1.39,3.46c-0.19-0.41-0.31-0.63-0.39-0.85
			c-1.39-3.62-2.78-7.23-4.15-10.86c-0.32-0.84-0.97-1.81,0.52-2.27c-1.61,0-3.22,0-4.82,0c-0.05,0.1-0.1,0.2-0.15,0.29
			c2.06,0.1,2.24,1.74,2.77,3.07c1.72,4.24,3.41,8.5,5.13,12.74C10.59,48.79,10.79,49.1,11.09,49.67z M112.41,67.72
			c0-0.29,0.04-0.44-0.01-0.56c-1.14-3.26-2.32-6.5-3.42-9.77c-0.32-0.96-1.01-0.77-1.7-0.81c-0.67-0.04-1.1,0.12-1.34,0.85
			c-0.81,2.44-1.68,4.86-2.53,7.28c-0.33,0.94-0.66,1.88-1.08,3.08c1.1-0.28,2.15,0.53,2.7-0.8c0.71-1.7,0.71-1.7,2.58-1.7
			c0.07,0,0.14,0.01,0.21,0c0.99-0.16,1.57,0.18,1.78,1.23c0.09,0.44,0.47,1.02,0.85,1.14C111.04,67.86,111.74,67.72,112.41,67.72z
			 M156.99,34.3c-0.05,0.12-0.1,0.24-0.15,0.36c0.13,0.05,0.26,0.14,0.39,0.15c1.24,0.1,1.37,0.9,1.35,1.94
			c-0.04,3.24-0.03,6.49-0.01,9.74c0.01,1.04-0.01,1.99-1.26,2.33c-0.04,0.01-0.03,0.19-0.04,0.27c0.08,0.05,0.13,0.13,0.19,0.13
			c3.03,0.02,6.06,0.03,9.1,0.03c0.19,0,0.54-0.12,0.55-0.2c0.04-0.82,0.02-1.65,0.02-2.79c-0.32,0.41-0.49,0.53-0.51,0.67
			c-0.13,1.02-0.79,1.33-1.71,1.33c-1.13,0.01-2.26,0.03-3.38,0.06c-0.77,0.02-1.19-0.31-1.18-1.13c0.01-1.55-0.03-3.11,0.03-4.65
			c0.01-0.26,0.51-0.75,0.71-0.71c1.43,0.24,3.31-0.71,3.99,1.64c0.07-0.07,0.14-0.15,0.21-0.22c0-1.02,0-2.05,0-3.2
			c-1.62,1.34-3.28,0.58-4.95,0.78c0-0.86,0-1.56,0-2.26c0-3.55,0-3.56,3.56-3.23c0.98,0.09,1.92,0.23,2.17,1.43
			c0.02,0.07,0.21,0.11,0.51,0.24c0-0.58,0-1.03,0-1.47c0-1.28-0.04-1.27-1.28-1.25c-2.22,0.04-4.43,0.01-6.65,0.01
			C158.11,34.3,157.55,34.3,156.99,34.3z M201.15,34.33c-0.05,0.1-0.09,0.21-0.14,0.31c0.13,0.06,0.25,0.15,0.39,0.16
			c1.29,0.09,1.45,0.93,1.44,2.01c-0.04,2.93,0,5.85-0.02,8.78c-0.01,1.32,0.36,2.83-1.72,3.37c0.39,0.17,0.54,0.29,0.69,0.29
			c3,0.01,5.99,0.01,8.99,0c0.19,0,0.54-0.12,0.54-0.2c0.04-0.82,0.02-1.64,0.02-2.46c-0.11-0.01-0.21-0.01-0.32-0.02
			c-0.11,0.28-0.16,0.61-0.34,0.82c-0.28,0.32-0.64,0.76-0.99,0.79c-1.4,0.12-2.81,0.11-4.22,0.12c-0.59,0-0.88-0.31-0.87-0.94
			c0.02-1.62-0.02-3.24,0.04-4.86c0.01-0.24,0.46-0.7,0.63-0.67c1.41,0.27,3.3-0.74,4.19,1.4c0-1.01,0-2.02,0-3.13
			c-1.6,1.26-3.23,0.56-4.86,0.69c0-1.07,0-1.98,0-2.9c0-2.58,0-2.57,2.61-2.57c1.32,0,2.65-0.03,3.2,1.56c0.01,0.02,0.13,0,0.2,0
			c0.82-1.94,0.3-2.65-1.67-2.54c-1.89,0.11-3.8,0-5.7-0.01C202.55,34.33,201.85,34.33,201.15,34.33z M110.88,34.19
			c-0.12-0.01-0.25-0.01-0.37-0.02c-0.14,0.3-0.31,0.58-0.42,0.89c-1.35,3.63-2.7,7.26-4.03,10.9c-0.46,1.26-0.84,2.57-2.41,2.92
			c-0.02,0-0.02,0.12-0.04,0.24c1.42,0,2.83,0,4.24,0c-0.52-0.56-1.36-0.77-0.96-1.77c0.43-1.08,0.75-2.2,1.18-3.28
			c0.1-0.26,0.45-0.56,0.71-0.6c3.34-0.47,3.68-0.26,4.87,2.86c0.08,0.2,0.12,0.41,0.22,0.59c0.49,0.87,0.6,1.62-0.59,2
			c-0.02,0.01-0.01,0.13-0.02,0.25c1.58,0,3.15,0,4.72,0c0.07-0.11,0.13-0.23,0.2-0.34c-1.66-0.11-2.16-1.27-2.61-2.48
			c-1.01-2.67-2.03-5.33-3.05-7.99C111.98,36.98,111.43,35.59,110.88,34.19z M152.68,35.31c0.74-1.94,0.32-2.79-1.49-3.14
			c-0.41-0.08-0.83-0.16-1.25-0.21c-2.07-0.27-4.3,0.76-5.08,2.33C144,36,144.45,38,146.19,39.6c0.87,0.81,1.92,1.43,2.85,2.17
			c0.77,0.61,1.57,1.2,2.22,1.93c0.8,0.91,0.99,2.03,0.44,3.16c-0.63,1.31-2.05,1.92-3.88,1.75c-1.68-0.16-2.57-0.86-3.03-2.34
			c-0.09-0.29-0.21-0.57-0.32-0.85c-0.13,0.02-0.25,0.04-0.38,0.06c0,0.75,0.03,1.5-0.01,2.25c-0.03,0.66,0.18,1.15,0.86,1.23
			c1.45,0.16,2.93,0.45,4.37,0.35c1.86-0.13,3.35-1.04,3.98-2.97c0.65-1.99-0.05-3.61-1.47-4.96c-0.74-0.7-1.59-1.28-2.39-1.9
			c-0.92-0.71-1.89-1.35-2.75-2.13c-0.79-0.71-1.04-1.69-0.67-2.71c0.36-1,1.11-1.59,2.18-1.78c2.11-0.37,3.3,0.23,4.21,2.18
			C152.41,35.12,152.52,35.17,152.68,35.31z M182.37,38.38c0.98-2.33,0.38-3.62-1.85-4.13c-0.51-0.12-1.04-0.19-1.57-0.24
			c-4.37-0.48-8.15,2.34-8.7,6.48c-0.63,4.69,1.91,8.22,6.43,8.91c2.57,0.39,5.01-0.54,6.03-2.35c0.18-0.32,0.24-0.71,0.36-1.07
			c-0.1-0.05-0.2-0.1-0.3-0.15c-0.19,0.21-0.35,0.45-0.56,0.64c-0.6,0.53-1.14,1.19-1.83,1.52c-2.8,1.32-6.07,0.08-7.41-2.71
			c-0.82-1.71-0.97-3.51-0.74-5.36c0.43-3.47,3.15-5.56,6.56-4.95c1.61,0.29,3.1,0.87,3.28,2.88
			C182.08,38,182.25,38.16,182.37,38.38z M43.26,46.08c-0.13-0.08-0.25-0.15-0.38-0.23c-0.16,0.15-0.39,0.28-0.48,0.46
			c-1.18,2.49-5.81,2.94-7.98,0.75c-2.01-2.03-2.45-4.51-2.08-7.22c0.47-3.43,3.11-5.4,6.53-4.91c1.96,0.28,2.77,1.04,3.31,3.07
			c0.03,0.12,0.15,0.21,0.45,0.59c0.07-1.06,0.1-1.84,0.19-2.6c0.08-0.65-0.07-1.11-0.77-1.28c-0.99-0.24-1.97-0.58-2.97-0.7
			c-4.41-0.52-8.15,2.27-8.72,6.45c-0.64,4.71,1.91,8.3,6.43,8.91c2.1,0.28,4.11-0.03,5.6-1.76C42.77,47.18,42.98,46.6,43.26,46.08z
			 M223.11,49.23c-1.8-1.15-1.8-1.15-1.8-3.37c0-2.68,0-5.36,0-8.04c0-2.39,0-2.36,2.39-2.39c1.08-0.01,2.05,0.05,2.34,1.35
			c0.01,0.03,0.13,0.03,0.35,0.08c0-0.8,0.09-1.59-0.07-2.32c-0.03-0.15-0.99-0.11-1.52-0.14c-0.28-0.02-0.56,0.01-0.85,0.01
			c-3.03-0.04-6.06-0.09-9.09-0.13c-0.26,0-0.6,0.02-0.76,0.17c-0.33,0.31-0.05,1.96,0.49,2.54c0.04-1.79,1.27-1.54,2.36-1.56
			c0.49-0.01,0.99,0.04,1.48-0.01c0.82-0.08,1.02,0.29,1.01,1.05c-0.03,3.07,0.01,6.14-0.02,9.21c-0.01,1.3,0.45,2.81-1.3,3.55
			C219.77,49.23,221.44,49.23,223.11,49.23z M55.09,49.23c0.02-0.08,0.03-0.17,0.05-0.25c-0.17-0.08-0.34-0.21-0.53-0.23
			c-0.92-0.1-1.26-0.65-1.27-1.51c-0.01-3.7-0.04-7.4-0.02-11.1c0-0.23,0.3-0.64,0.47-0.65c1.09-0.04,2.18-0.02,3.27,0.07
			c0.26,0.02,0.52,0.39,0.73,0.65c0.16,0.19,0.23,0.44,0.34,0.67c0.1-0.02,0.2-0.03,0.29-0.05c0.05-0.8,0.1-1.6,0.16-2.52
			c-0.87,0.04-1.6,0.12-2.32,0.11c-3.1-0.03-6.19-0.09-9.29-0.12c-0.27,0-0.78,0.15-0.78,0.25c-0.04,0.78,0.02,1.56,0.04,2.34
			c0.14,0.08,0.29,0.15,0.43,0.23c0.1-1.91,1.36-1.64,2.47-1.66c0.39-0.01,0.78,0.04,1.16-0.01c0.85-0.1,1.17,0.2,1.15,1.11
			c-0.05,3.24-0.02,6.48-0.02,9.72c0,1.13,0.33,2.43-1.56,2.71c0.09,0.09,0.18,0.17,0.27,0.26C51.78,49.23,53.44,49.23,55.09,49.23z
			 M145.79,56.83c0.63,1.07,1.11,2.09,1.78,2.97c1.55,2.06,2.31,4.3,1.93,6.88c-0.14,0.97,0.4,1.11,1.19,1.07
			c0.74-0.04,1.6,0.14,1.43-1.07c-0.39-2.7,0.44-5.04,2.06-7.17c0.47-0.61,0.82-1.31,1.21-1.98c0.12-0.22,0.18-0.47,0.28-0.74
			c-2.26-0.37-2.31-0.35-3.35,1.4c-0.47,0.8-0.94,1.6-1.51,2.56c-0.58-0.97-1.06-1.75-1.52-2.53
			C148.27,56.48,148.09,56.4,145.79,56.83z M124.07,45.68c-0.12,0.01-0.23,0.03-0.35,0.04c0,0.68,0.05,1.36-0.01,2.04
			c-0.07,0.79,0.3,1.27,1,1.36c1.17,0.15,2.38,0.31,3.55,0.21c1.66-0.14,2.95-1.01,3.46-2.68c0.5-1.65,0.13-3.16-1.16-4.34
			c-0.8-0.74-1.69-1.37-2.54-2.06c-0.71-0.57-1.49-1.07-2.12-1.73c-1.14-1.19-0.73-2.92,0.76-3.56c1.6-0.69,3.42,0.05,4.09,1.64
			c0.07,0.17,0.22,0.3,0.36,0.48c0.82-1.71,0.39-2.66-1.28-2.93c-0.69-0.11-1.4-0.21-2.1-0.17c-1.66,0.09-3.05,0.73-3.69,2.36
			c-0.63,1.61-0.2,3.07,1.06,4.22c0.8,0.73,1.73,1.32,2.59,1.99c0.69,0.54,1.43,1.04,2.02,1.69c1.28,1.41,0.76,3.34-1,4.03
			c-2.02,0.8-3.8-0.07-4.43-2.15C124.24,45.97,124.14,45.83,124.07,45.68z M137.84,58.9c0.87,0,1.61-0.04,2.34,0.01
			c0.9,0.06,0.93-0.47,0.94-1.14c0.01-0.7-0.11-1.13-0.97-1.12c-2.4,0.04-4.79,0.03-7.19,0c-0.71-0.01-0.87,0.29-0.92,0.94
			c-0.07,1,0.25,1.46,1.29,1.3c0.31-0.05,0.64,0.02,0.95-0.01c0.79-0.09,1.04,0.23,1.02,1.02c-0.05,2.29,0.02,4.58-0.03,6.87
			c-0.02,0.98,0.55,0.99,1.23,0.96c0.65-0.03,1.4,0.18,1.35-0.93c-0.05-1.2-0.01-2.4-0.01-3.59
			C137.84,61.82,137.84,60.42,137.84,58.9z M22.38,49.11c1.63,0,3.26,0,5.18,0c-2.07-1.04-2.07-1.04-2.07-3.26
			c0-2.68-0.02-5.35,0.01-8.03c0.02-1.28-0.49-2.84,1.63-3.24c-0.07-0.08-0.13-0.15-0.2-0.23c-1.54,0-3.08,0-4.62,0
			c1.84,0.62,1.34,2.13,1.35,3.39c0.02,2.68,0.01,5.35,0,8.03C23.66,47.03,24.03,48.45,22.38,49.11z M95.73,49.16
			c1.66,0,3.32,0,5.1,0c-0.16-0.2-0.2-0.32-0.27-0.35c-1.63-0.65-1.64-0.65-1.64-2.4c0-3.17,0.03-6.34-0.01-9.51
			c-0.01-1.06,0.05-1.97,1.31-2.24c0.02,0,0.01-0.13,0.03-0.29c-1.51,0-3,0-4.5,0c1.55,0.56,1.35,1.82,1.35,2.96
			c0.01,2.82,0.01,5.64,0,8.46C97.1,47.06,97.34,48.44,95.73,49.16z M117.84,36.75c1.13,0.19,1.99-0.32,2.42-1.26
			c0.44-0.98,0.27-2.14-0.58-2.64c-0.38-0.23-1.18-0.27-1.46-0.02c-0.58,0.52-0.07,0.98,0.42,1.33c1.16,0.82,1.11,1.46-0.13,2.15
			C118.34,36.4,118.18,36.53,117.84,36.75z"/>
		<path d="M81.67,61.97c1.44,0.92,1.92,1.86,1.67,3.18c-0.25,1.3-1.21,2.29-2.71,2.43c-1.75,0.16-3.52,0.13-5.28,0.11
			c-0.24,0-0.67-0.44-0.67-0.68c-0.04-3.21-0.04-6.42,0-9.63c0-0.24,0.36-0.68,0.55-0.68c1.86,0,3.73,0.02,5.59,0.15
			c1.15,0.08,1.98,0.77,2.22,1.95c0.24,1.16-0.09,2.16-1.12,2.86C81.84,61.73,81.79,61.83,81.67,61.97z M78.65,63.03
			c-0.02-0.05-0.04-0.1-0.06-0.15c-0.44,0.18-1.15,0.25-1.29,0.56c-0.61,1.38,0.02,2.25,1.48,2.24c0.14,0,0.28,0,0.42-0.01
			c0.84-0.04,1.56-0.24,1.61-1.27c0.04-0.84-0.54-1.31-1.64-1.37C79,63.03,78.83,63.03,78.65,63.03z M78.74,61.12
			c0.07,0,0.4,0.02,0.7-0.04c0.63-0.12,1.12-0.42,1.13-1.16c0.01-0.75-0.48-1.07-1.12-1.16c-0.55-0.08-1.12-0.06-1.67-0.04
			c-0.17,0.01-0.41,0.15-0.49,0.3C76.75,60.06,77.36,61.12,78.74,61.12z"/>
		<path d="M193.09,42.07c0.9,1.42,1.71,2.78,2.59,4.09c0.81,1.21,1.67,2.39,3.32,2.53c0.1,0.01,0.2,0.16,0.3,0.26
			c-1.42,0.8-3.53,0.34-4.61-1.11c-0.99-1.33-1.82-2.76-2.74-4.14c-0.56-0.84-1.3-1.39-2.63-1.09c0.09,1.74,0.08,3.53,0.34,5.28
			c0.07,0.46,0.98,0.79,1.49,1.17c-0.44,0.38-4.01,0.46-5.07-0.08c1.89-0.31,1.5-1.65,1.51-2.8c0.02-2.89,0.01-5.78,0.01-8.68
			c0-2.01,0-2.01-1.64-2.92c0.17-0.11,0.3-0.27,0.43-0.27c2.01,0.01,4.03-0.08,6.02,0.12c2.05,0.2,3.15,1.26,3.47,2.88
			c0.31,1.56-0.54,3.32-2.08,4.31C193.56,41.78,193.32,41.93,193.09,42.07z M190.61,35.19c-0.4,0.12-1.24-0.31-1.22,0.79
			c0.02,1.65-0.02,3.3,0.02,4.95c0.01,0.25,0.24,0.6,0.46,0.71c0.96,0.47,2.76,0.08,3.41-0.75c0.96-1.22,1-2.62,0.46-3.99
			C193.22,35.61,192.09,35.16,190.61,35.19z"/>
		<path d="M76.23,41.52c-0.01,4.65-3.35,8.05-7.86,8.02c-4.4-0.03-7.7-3.37-7.58-7.8c0.1-4.06,3.03-7.8,7.95-7.69
			C73.3,34.15,76.24,36.99,76.23,41.52z M74.21,41.95c0.01-1.61-0.3-3.12-1.18-4.45c-1.27-1.93-3.11-2.84-5.41-2.57
			c-2.13,0.25-3.69,1.38-4.37,3.47c-0.82,2.49-0.66,4.95,0.68,7.23c1.24,2.11,3.16,3.12,5.58,2.84c2.36-0.27,3.77-1.75,4.33-4.03
			C74.04,43.63,74.09,42.78,74.21,41.95z"/>
		<path d="M86.48,42.09c0.86,1.35,1.63,2.6,2.45,3.83c0.86,1.3,1.77,2.56,3.49,2.82c0.07,0.01,0.13,0.15,0.19,0.24
			c-1.1,0.61-3.05,0.41-3.96-0.58c-0.84-0.93-1.51-2.02-2.24-3.05c-0.45-0.63-0.84-1.3-1.3-1.92c-0.52-0.71-1.22-1.03-2.18-0.87
			c0,1.74-0.05,3.49,0.05,5.22c0.02,0.32,0.61,0.64,0.98,0.91c0.2,0.15,0.49,0.18,0.8,0.28c-0.64,0.48-4.15,0.56-5.31,0.1
			c2.1-0.51,1.59-2.09,1.61-3.42c0.04-2.71,0.01-5.43,0.01-8.14c0-2.03,0-2.03-1.75-2.88c0.2-0.13,0.36-0.31,0.52-0.31
			c1.94,0.01,3.88-0.07,5.81,0.1c2.1,0.19,3.21,1.17,3.56,2.76c0.37,1.68-0.37,3.35-1.97,4.44C86.98,41.78,86.71,41.94,86.48,42.09z
			 M82.82,38.38c0,0.85-0.04,1.7,0.02,2.54c0.02,0.27,0.3,0.69,0.52,0.74c2,0.4,3.75-0.13,4.06-2.62c0.32-2.59-1.37-4.21-3.96-3.81
			c-0.24,0.04-0.58,0.45-0.61,0.72C82.77,36.75,82.82,37.57,82.82,38.38z"/>
		<path d="M126.55,60.96c0,0.81-0.04,1.62,0.01,2.43c0.21,3.52-2.53,5.02-5.61,4.44c-2.16-0.41-3.23-1.74-3.32-4.14
			c-0.08-2.04-0.01-4.09-0.03-6.13c-0.01-1.3,0.97-0.79,1.6-0.88c0.68-0.1,1.03,0.12,1.02,0.91c-0.04,2.01-0.05,4.02,0,6.03
			c0.04,1.74,1.3,2.61,2.76,1.98c0.89-0.38,1.04-1.19,1.06-2.02c0.03-1.9,0.07-3.81-0.01-5.71c-0.05-1.05,0.4-1.19,1.31-1.22
			c0.99-0.03,1.31,0.29,1.24,1.26C126.49,58.91,126.55,59.94,126.55,60.96z"/>
		<path d="M97.07,58.9c-1.35,0-2.68,0.05-4-0.02c-0.84-0.04-0.99,0.32-0.98,1.06c0.01,0.71,0.1,1.16,0.97,1.08
			c0.59-0.06,1.2,0.02,1.79-0.02c0.76-0.05,0.96,0.32,0.96,1.02c0,0.69-0.15,1.09-0.93,1.02c-0.49-0.04-0.99,0.04-1.48-0.02
			c-1-0.13-1.32,0.22-1.34,1.26c-0.02,1.1,0.31,1.42,1.37,1.33c1.05-0.09,2.11,0.02,3.17-0.03c0.86-0.04,0.86,0.47,0.87,1.08
			c0.01,0.64-0.06,1.09-0.88,1.08c-2.04-0.03-4.09-0.02-6.13,0c-0.69,0.01-0.92-0.29-0.91-0.96c0.02-3.06,0.02-6.13,0-9.19
			c0-0.68,0.25-0.95,0.93-0.94c1.8,0.03,3.59,0.01,5.39,0.01c1.33,0,1.34,0,1.3,1.36C97.16,58.27,97.11,58.51,97.07,58.9z"/>
		<path d="M11.09,49.67c-0.3-0.58-0.51-0.89-0.64-1.23c-1.71-4.25-3.41-8.5-5.13-12.74c-0.54-1.33-0.72-2.97-2.77-3.07
			c0.05-0.1,0.1-0.2,0.15-0.29c1.61,0,3.22,0,4.82,0c-1.49,0.46-0.83,1.43-0.52,2.27c1.37,3.62,2.76,7.24,4.15,10.86
			c0.09,0.22,0.2,0.44,0.39,0.85c0.51-1.26,0.96-2.36,1.39-3.46c1.09-2.75,2.22-5.49,3.25-8.26c0.29-0.79,1.31-1.96-1.05-2.1
			c0.15-0.08,0.29-0.16,0.44-0.25c1.39,0,2.78,0,4.18,0c-0.01,0.12,0,0.24-0.02,0.25c-1.47,0.29-1.9,1.47-2.39,2.66
			c-1.81,4.39-3.67,8.77-5.51,13.15C11.67,48.71,11.43,49.07,11.09,49.67z"/>
		<path d="M112.41,67.72c-0.67,0-1.37,0.14-1.97-0.05c-0.38-0.12-0.76-0.71-0.85-1.14c-0.22-1.06-0.79-1.39-1.78-1.23
			c-0.07,0.01-0.14,0-0.21,0c-1.86,0-1.87,0-2.58,1.7c-0.55,1.32-1.6,0.52-2.7,0.8c0.42-1.2,0.75-2.14,1.08-3.08
			c0.85-2.42,1.73-4.84,2.53-7.28c0.24-0.73,0.67-0.89,1.34-0.85c0.68,0.04,1.37-0.14,1.7,0.81c1.1,3.27,2.28,6.51,3.42,9.77
			C112.45,67.28,112.41,67.43,112.41,67.72z M107.53,60.45c-0.09-0.01-0.17-0.01-0.26-0.02c-0.31,0.9-0.61,1.8-0.95,2.8
			c0.8,0,1.42,0,2.14,0C108.12,62.21,107.83,61.33,107.53,60.45z"/>
		<path d="M156.99,34.3c0.56,0,1.12,0,1.68,0c2.22,0,4.43,0.03,6.65-0.01c1.24-0.02,1.28-0.03,1.28,1.25c0,0.44,0,0.89,0,1.47
			c-0.3-0.14-0.49-0.17-0.51-0.24c-0.26-1.2-1.2-1.34-2.17-1.43c-3.56-0.32-3.56-0.32-3.56,3.23c0,0.7,0,1.4,0,2.26
			c1.67-0.2,3.33,0.56,4.95-0.78c0,1.16,0,2.18,0,3.2c-0.07,0.07-0.14,0.15-0.21,0.22c-0.68-2.35-2.56-1.4-3.99-1.64
			c-0.2-0.03-0.7,0.45-0.71,0.71c-0.07,1.55-0.02,3.1-0.03,4.65c-0.01,0.81,0.41,1.14,1.18,1.13c1.13-0.02,2.26-0.05,3.38-0.06
			c0.92,0,1.58-0.31,1.71-1.33c0.02-0.14,0.19-0.26,0.51-0.67c0,1.13,0.02,1.96-0.02,2.79c0,0.08-0.36,0.2-0.55,0.2
			c-3.03,0-6.06-0.01-9.1-0.03c-0.05,0-0.11-0.07-0.19-0.13c0.01-0.09,0-0.26,0.04-0.27c1.25-0.34,1.26-1.3,1.26-2.33
			c-0.03-3.25-0.04-6.49,0.01-9.74c0.01-1.04-0.12-1.84-1.35-1.94c-0.13-0.01-0.26-0.1-0.39-0.15
			C156.88,34.54,156.93,34.42,156.99,34.3z"/>
		<path d="M201.15,34.33c0.7,0,1.4,0,2.1,0c1.9,0.01,3.81,0.11,5.7,0.01c1.97-0.11,2.49,0.6,1.67,2.54c-0.07,0-0.19,0.02-0.2,0
			c-0.55-1.59-1.87-1.56-3.2-1.56c-2.61,0-2.61,0-2.61,2.57c0,0.91,0,1.83,0,2.9c1.63-0.13,3.26,0.57,4.86-0.69
			c0,1.11,0,2.12,0,3.13c-0.9-2.14-2.78-1.14-4.19-1.4c-0.17-0.03-0.63,0.43-0.63,0.67c-0.06,1.62-0.02,3.24-0.04,4.86
			c-0.01,0.63,0.28,0.94,0.87,0.94c1.41-0.01,2.82,0,4.22-0.12c0.35-0.03,0.71-0.47,0.99-0.79c0.18-0.21,0.23-0.54,0.34-0.82
			c0.11,0.01,0.21,0.01,0.32,0.02c0,0.82,0.02,1.64-0.02,2.46c0,0.08-0.35,0.2-0.54,0.2c-3,0.01-5.99,0.01-8.99,0
			c-0.15,0-0.29-0.12-0.69-0.29c2.07-0.54,1.71-2.05,1.72-3.37c0.02-2.93-0.02-5.85,0.02-8.78c0.01-1.07-0.15-1.91-1.44-2.01
			c-0.13-0.01-0.26-0.1-0.39-0.16C201.05,34.54,201.1,34.44,201.15,34.33z"/>
		<path d="M110.88,34.19c0.55,1.4,1.1,2.79,1.64,4.19c1.02,2.66,2.04,5.32,3.05,7.99c0.46,1.21,0.96,2.36,2.61,2.48
			c-0.07,0.11-0.13,0.23-0.2,0.34c-1.57,0-3.14,0-4.72,0c0.01-0.13,0-0.25,0.02-0.25c1.19-0.38,1.07-1.13,0.59-2
			c-0.1-0.18-0.14-0.4-0.22-0.59c-1.2-3.13-1.53-3.33-4.87-2.86c-0.27,0.04-0.61,0.34-0.71,0.6c-0.43,1.08-0.75,2.2-1.18,3.28
			c-0.4,1,0.44,1.2,0.96,1.77c-1.41,0-2.82,0-4.24,0c0.02-0.11,0.01-0.23,0.04-0.24c1.57-0.35,1.94-1.66,2.41-2.92
			c1.33-3.64,2.68-7.27,4.03-10.9c0.11-0.31,0.28-0.59,0.42-0.89C110.63,34.18,110.76,34.18,110.88,34.19z M112.22,42.45
			c-0.62-1.75-1.17-3.32-1.72-4.89c-0.09,0.02-0.17,0.03-0.26,0.05c-0.54,1.59-1.07,3.17-1.64,4.84
			C109.83,42.45,110.94,42.45,112.22,42.45z"/>
		<path d="M152.68,35.31c-0.16-0.14-0.27-0.19-0.31-0.27c-0.9-1.94-2.1-2.55-4.21-2.18c-1.07,0.19-1.82,0.78-2.18,1.78
			c-0.37,1.02-0.12,2,0.67,2.71c0.86,0.77,1.84,1.42,2.75,2.13c0.81,0.62,1.66,1.2,2.39,1.9c1.42,1.35,2.12,2.97,1.47,4.96
			c-0.63,1.93-2.12,2.83-3.98,2.97c-1.44,0.1-2.91-0.18-4.37-0.35c-0.68-0.08-0.89-0.57-0.86-1.23c0.04-0.75,0.01-1.5,0.01-2.25
			c0.13-0.02,0.25-0.04,0.38-0.06c0.11,0.28,0.23,0.56,0.32,0.85c0.45,1.48,1.35,2.18,3.03,2.34c1.83,0.18,3.25-0.43,3.88-1.75
			c0.55-1.13,0.36-2.25-0.44-3.16c-0.64-0.73-1.45-1.32-2.22-1.93c-0.94-0.74-1.98-1.37-2.85-2.17c-1.74-1.6-2.18-3.6-1.33-5.32
			c0.78-1.57,3.01-2.59,5.08-2.33c0.42,0.05,0.84,0.13,1.25,0.21C153,32.52,153.43,33.37,152.68,35.31z"/>
		<path d="M182.37,38.38c-0.12-0.21-0.29-0.38-0.31-0.55c-0.18-2.01-1.66-2.59-3.28-2.88c-3.41-0.61-6.14,1.49-6.56,4.95
			c-0.23,1.85-0.08,3.65,0.74,5.36c1.34,2.79,4.61,4.03,7.41,2.71c0.7-0.33,1.24-0.99,1.83-1.52c0.21-0.19,0.38-0.42,0.56-0.64
			c0.1,0.05,0.2,0.1,0.3,0.15c-0.12,0.36-0.18,0.75-0.36,1.07c-1.02,1.81-3.46,2.74-6.03,2.35c-4.52-0.69-7.06-4.21-6.43-8.91
			c0.56-4.15,4.33-6.96,8.7-6.48c0.52,0.06,1.05,0.13,1.57,0.24C182.75,34.76,183.35,36.04,182.37,38.38z"/>
		<path d="M43.26,46.08c-0.28,0.52-0.49,1.1-0.86,1.54c-1.49,1.74-3.5,2.05-5.6,1.76c-4.52-0.61-7.07-4.2-6.43-8.91
			c0.57-4.18,4.31-6.98,8.72-6.45c1,0.12,1.98,0.46,2.97,0.7c0.69,0.17,0.85,0.62,0.77,1.28c-0.09,0.77-0.12,1.54-0.19,2.6
			c-0.3-0.38-0.42-0.47-0.45-0.59c-0.54-2.04-1.35-2.79-3.31-3.07c-3.43-0.5-6.06,1.48-6.53,4.91c-0.37,2.71,0.07,5.19,2.08,7.22
			c2.17,2.19,6.8,1.74,7.98-0.75c0.09-0.19,0.32-0.31,0.48-0.46C43.01,45.93,43.13,46,43.26,46.08z"/>
		<path d="M223.11,49.23c-1.67,0-3.34,0-5.01,0c1.75-0.74,1.29-2.25,1.3-3.55c0.03-3.07-0.01-6.14,0.02-9.21
			c0.01-0.76-0.19-1.13-1.01-1.05c-0.49,0.05-0.99,0-1.48,0.01c-1.08,0.02-2.32-0.22-2.36,1.56c-0.54-0.59-0.82-2.23-0.49-2.54
			c0.16-0.16,0.5-0.17,0.76-0.17c3.03,0.03,6.06,0.08,9.09,0.13c0.28,0,0.57-0.02,0.85-0.01c0.53,0.03,1.49-0.01,1.52,0.14
			c0.16,0.74,0.07,1.52,0.07,2.32c-0.23-0.05-0.35-0.05-0.35-0.08c-0.29-1.31-1.25-1.37-2.34-1.35c-2.39,0.03-2.39,0.01-2.39,2.39
			c0,2.68,0,5.36,0,8.04C221.3,48.08,221.3,48.08,223.11,49.23z"/>
		<path d="M55.09,49.23c-1.65,0-3.31,0-4.96,0c-0.09-0.09-0.18-0.17-0.27-0.26c1.89-0.28,1.56-1.58,1.56-2.71
			c0.01-3.24-0.03-6.48,0.02-9.72c0.01-0.91-0.3-1.21-1.15-1.11c-0.38,0.04-0.77,0-1.16,0.01c-1.11,0.01-2.38-0.25-2.47,1.66
			c-0.14-0.08-0.29-0.15-0.43-0.23c-0.03-0.78-0.08-1.56-0.04-2.34c0.01-0.1,0.51-0.25,0.78-0.25c3.1,0.03,6.19,0.09,9.29,0.12
			c0.72,0.01,1.45-0.07,2.32-0.11c-0.06,0.92-0.11,1.72-0.16,2.52c-0.1,0.02-0.2,0.03-0.29,0.05c-0.11-0.22-0.18-0.48-0.34-0.67
			c-0.21-0.25-0.47-0.62-0.73-0.65c-1.08-0.09-2.18-0.11-3.27-0.07c-0.17,0.01-0.47,0.42-0.47,0.65c-0.02,3.7,0.01,7.4,0.02,11.1
			c0,0.86,0.35,1.41,1.27,1.51c0.18,0.02,0.35,0.15,0.53,0.23C55.13,49.06,55.11,49.14,55.09,49.23z"/>
		<path d="M145.79,56.83c2.3-0.43,2.48-0.34,3.5,1.4c0.46,0.78,0.93,1.56,1.52,2.53c0.56-0.96,1.03-1.76,1.51-2.56
			c1.03-1.74,1.08-1.76,3.35-1.4c-0.1,0.26-0.15,0.52-0.28,0.74c-0.39,0.67-0.74,1.37-1.21,1.98c-1.62,2.13-2.45,4.46-2.06,7.17
			c0.17,1.21-0.69,1.02-1.43,1.07c-0.79,0.04-1.33-0.1-1.19-1.07c0.38-2.58-0.38-4.82-1.93-6.88
			C146.9,58.91,146.42,57.89,145.79,56.83z"/>
		<path d="M124.07,45.68c0.07,0.15,0.16,0.29,0.21,0.45c0.63,2.08,2.41,2.94,4.43,2.15c1.76-0.69,2.27-2.63,1-4.03
			c-0.58-0.64-1.33-1.14-2.02-1.69c-0.86-0.67-1.79-1.26-2.59-1.99c-1.26-1.15-1.69-2.61-1.06-4.22c0.64-1.63,2.03-2.28,3.69-2.36
			c0.69-0.04,1.41,0.06,2.1,0.17c1.67,0.27,2.1,1.22,1.28,2.93c-0.14-0.18-0.29-0.31-0.36-0.48c-0.67-1.59-2.49-2.33-4.09-1.64
			c-1.49,0.64-1.9,2.38-0.76,3.56c0.63,0.65,1.41,1.16,2.12,1.73c0.85,0.68,1.74,1.32,2.54,2.06c1.29,1.18,1.66,2.69,1.16,4.34
			c-0.5,1.67-1.8,2.53-3.46,2.68c-1.17,0.1-2.37-0.06-3.55-0.21c-0.7-0.09-1.07-0.57-1-1.36c0.06-0.67,0.01-1.36,0.01-2.04
			C123.84,45.71,123.96,45.7,124.07,45.68z"/>
		<path d="M137.84,58.9c0,1.52,0,2.92,0,4.32c0,1.2-0.04,2.4,0.01,3.59c0.05,1.11-0.71,0.9-1.35,0.93
			c-0.68,0.03-1.25,0.02-1.23-0.96c0.05-2.29-0.01-4.58,0.03-6.87c0.02-0.79-0.24-1.11-1.02-1.02c-0.31,0.04-0.64-0.03-0.95,0.01
			c-1.04,0.16-1.36-0.3-1.29-1.3c0.05-0.65,0.21-0.95,0.92-0.94c2.4,0.03,4.79,0.04,7.19,0c0.86-0.01,0.98,0.42,0.97,1.12
			c-0.01,0.67-0.04,1.2-0.94,1.14C139.45,58.86,138.71,58.9,137.84,58.9z"/>
		<path d="M22.38,49.11c1.65-0.67,1.28-2.08,1.29-3.34c0.01-2.68,0.02-5.35,0-8.03c-0.01-1.26,0.49-2.77-1.35-3.39
			c1.54,0,3.08,0,4.62,0c0.07,0.08,0.13,0.15,0.2,0.23c-2.12,0.4-1.61,1.96-1.63,3.24c-0.04,2.68-0.01,5.35-0.01,8.03
			c0,2.22,0,2.22,2.07,3.26C25.64,49.11,24.01,49.11,22.38,49.11z"/>
		<path d="M95.73,49.16c1.61-0.71,1.37-2.1,1.38-3.37c0.01-2.82,0.01-5.64,0-8.46c0-1.15,0.2-2.4-1.35-2.96c1.49,0,2.99,0,4.5,0
			c-0.01,0.16-0.01,0.28-0.03,0.29c-1.26,0.27-1.32,1.18-1.31,2.24c0.04,3.17,0.01,6.34,0.01,9.51c0,1.76,0,1.75,1.64,2.4
			c0.08,0.03,0.12,0.14,0.27,0.35C99.05,49.16,97.39,49.16,95.73,49.16z"/>
		<path d="M117.84,36.75c0.33-0.22,0.49-0.35,0.67-0.44c1.25-0.69,1.29-1.33,0.13-2.15c-0.49-0.35-1-0.81-0.42-1.33
			c0.28-0.25,1.08-0.21,1.46,0.02c0.84,0.5,1.02,1.66,0.58,2.64C119.83,36.43,118.98,36.94,117.84,36.75z"/>
		<path class="st0" d="M78.65,63.03c0.18,0,0.35-0.01,0.53,0c1.11,0.06,1.68,0.54,1.64,1.37c-0.05,1.03-0.78,1.23-1.61,1.27
			c-0.14,0.01-0.28,0-0.42,0.01c-1.46,0.01-2.09-0.86-1.48-2.24c0.14-0.32,0.84-0.38,1.29-0.56C78.61,62.93,78.63,62.98,78.65,63.03
			z"/>
		<path class="st0" d="M78.74,61.12c-1.37,0-1.99-1.06-1.44-2.1c0.08-0.15,0.32-0.29,0.49-0.3c0.56-0.03,1.12-0.04,1.67,0.04
			c0.64,0.09,1.13,0.41,1.12,1.16c-0.01,0.74-0.5,1.04-1.13,1.16C79.13,61.14,78.81,61.12,78.74,61.12z"/>
		<path class="st0" d="M74.21,41.95c-0.12,0.83-0.17,1.68-0.37,2.49c-0.56,2.27-1.97,3.76-4.33,4.03c-2.43,0.28-4.35-0.74-5.58-2.84
			c-1.34-2.28-1.5-4.74-0.68-7.23c0.68-2.08,2.24-3.22,4.37-3.47c2.3-0.27,4.14,0.65,5.41,2.57C73.91,38.84,74.22,40.34,74.21,41.95
			z"/>
		<path class="st1" d="M82.82,38.38c0-0.81-0.05-1.63,0.03-2.43c0.03-0.27,0.37-0.68,0.61-0.72c2.59-0.4,4.28,1.22,3.96,3.81
			c-0.3,2.48-2.06,3.02-4.06,2.62c-0.22-0.04-0.5-0.47-0.52-0.74C82.77,40.08,82.82,39.23,82.82,38.38z"/>
		<path class="st0" d="M107.53,60.45c0.29,0.88,0.59,1.77,0.93,2.79c-0.72,0-1.34,0-2.14,0c0.34-1,0.65-1.9,0.95-2.8
			C107.36,60.44,107.45,60.44,107.53,60.45z"/>
	</g>
</g>
</svg>
